<?xml version="1.0" standalone="no"?>
<!DOCTYPE svg PUBLIC "-//W3C//DTD SVG 1.1//EN" "http://www.w3.org/Graphics/SVG/1.1/DTD/svg11.dtd" >
<svg xmlns="http://www.w3.org/2000/svg">
<metadata></metadata>
<defs>
<font id="PrudentialModernMedMdIt" horiz-adv-x="1024" >
<font-face units-per-em="2048" ascent="1638" descent="-410" />
<missing-glyph horiz-adv-x="624" />
<glyph horiz-adv-x="0" />
<glyph unicode="&#xd;" horiz-adv-x="0" />
<glyph horiz-adv-x="0" />
<glyph horiz-adv-x="0" />
<glyph unicode=" "  horiz-adv-x="624" />
<glyph unicode="&#x09;" horiz-adv-x="624" />
<glyph unicode="&#xa0;" horiz-adv-x="624" />
<glyph unicode="!" horiz-adv-x="681" d="M240 0l47 225h200l-47 -225h-200zM375 467l176 1012h217l-262 -1012h-131z" />
<glyph unicode="&#x22;" horiz-adv-x="681" d="M354 926l121 553h127l-121 -553h-127zM598 926l121 553h127l-121 -553h-127z" />
<glyph unicode="#" horiz-adv-x="1251" d="M225 471l25 115h219l109 311h-203l24 115h219l166 467h127l-166 -467h279l164 467h127l-164 -467h192l-24 -115h-209l-111 -311h195l-25 -115h-211l-163 -471h-127l163 471h-276l-164 -471h-127l164 471h-203zM596 586h276l111 311h-278z" />
<glyph unicode="$" horiz-adv-x="1251" d="M170 268l137 90q16 -37 44 -75.5t64 -72.5t80 -57.5t95 -25.5l123 571q-53 12 -119 39t-119 74t-81.5 117.5t-6.5 173.5q20 94 71.5 165.5t119 118t147.5 70t158 23.5l32 157h140l-33 -157q61 -4 113.5 -28t93.5 -57.5t70.5 -74.5t48.5 -82l-125 -86q-29 74 -89.5 129 t-140.5 72l-114 -535q100 -35 172.5 -72.5t116.5 -88t57.5 -115t-4.5 -152.5q-18 -86 -68.5 -157.5t-121 -123t-155.5 -80t-174 -28.5l-55 -254h-139l55 254q-74 2 -134 26.5t-108.5 63.5t-85 86t-65.5 92zM540 1011.5q13 -46.5 43.5 -78.5t73.5 -50.5t91 -28.5l106 498 q-61 2 -113.5 -14.5t-93.5 -46t-68.5 -71.5t-37.5 -94q-14 -68 -1 -114.5zM729 127q55 2 111.5 21.5t103.5 51t80 77t45 100.5q14 68 -1 114t-49 77.5t-80 53t-95 37.5z" />
<glyph unicode="%" horiz-adv-x="1820" d="M365.5 1004.5q-13.5 62.5 3.5 134.5q14 72 55 134t97.5 108t124 72t138.5 26q72 0 128.5 -26t93 -72t49 -108.5t-1.5 -133.5q-16 -72 -56.5 -134.5t-96.5 -108.5t-123.5 -71.5t-139.5 -25.5t-128 25.5t-93 71.5t-50.5 108.5zM418 -20l1179 1519h121l-1179 -1519h-121z M496 1139q-23 -96 27.5 -154.5t140.5 -58.5q92 0 165.5 58t96.5 155q20 96 -29 154.5t-141 58.5t-166 -58.5t-94 -154.5zM1083.5 205.5q-14.5 62.5 1.5 134.5t56.5 134.5t96.5 108.5t124 71.5t139 25.5q72 0 128.5 -25.5t93 -71.5t50 -108.5t-3.5 -134.5q-16 -72 -55 -134.5 t-95 -108.5t-123.5 -71.5t-139.5 -25.5t-128.5 25.5t-93 71.5t-51 108.5zM1212 340q-20 -96 29 -154.5t141 -58.5t166 58.5t94 154.5q20 94 -28.5 153.5t-138.5 59.5q-92 0 -166 -58.5t-97 -154.5z" />
<glyph unicode="&#x26;" horiz-adv-x="1366" d="M175.5 228.5q-19.5 78.5 0.5 174.5q16 76 58 141.5t100.5 121t126 101.5t133.5 83q-14 33 -26.5 76t-18.5 90t-5 95t11 93q14 63 49 116.5t86 93.5t116.5 62.5t143.5 22.5q63 0 114.5 -18.5t85.5 -53t46 -86t-2 -116.5q-14 -66 -56 -123.5t-99.5 -107.5t-122 -94 t-121.5 -81q45 -133 111.5 -246.5t125.5 -199.5q23 23 50.5 61.5t56 87.5t56.5 106.5t50 116.5l129 -32q-23 -57 -53.5 -119t-65 -120t-71.5 -110.5t-72 -91.5q18 -25 47 -48t59.5 -39.5t60.5 -27t50 -10.5l-31 -147h-53q-29 0 -62.5 11.5t-69.5 31.5t-69.5 47t-58.5 57 q-92 -80 -202.5 -123.5t-256.5 -43.5q-86 0 -159.5 29.5t-122.5 85t-68.5 134zM337 271q15 -52 51 -85.5t86 -50t104 -16.5q98 0 179 34.5t146 88.5q-78 117 -145.5 241.5t-120.5 253.5q-51 -29 -98 -61.5t-87 -72.5t-70 -91t-44 -119q-16 -70 -1 -122zM710 1124 q1 -37 7 -71.5t14 -65.5t14 -53q43 25 90.5 57.5t87.5 69.5t68.5 78t38.5 84q14 70 -22.5 109.5t-92.5 39.5q-41 0 -74.5 -15.5t-58 -40t-42 -56t-23.5 -62.5q-8 -37 -7 -74z" />
<glyph unicode="'" horiz-adv-x="454" d="M362 926l121 553h127l-121 -553h-127z" />
<glyph unicode="(" horiz-adv-x="681" d="M255 224q-28 210 24 444q49 227 165.5 438t294.5 393h160q-94 -98 -170 -195.5t-135 -200t-101 -213t-69 -233.5q-51 -233 -16.5 -437t127.5 -392h-152q-100 186 -128 396z" />
<glyph unicode=")" horiz-adv-x="681" d="M68 -172q94 98 169.5 195.5t135 200t101.5 213t69 233.5q51 233 16 437t-127 392h152q100 -186 127.5 -396t-23.5 -444q-49 -227 -165.5 -438t-295.5 -393h-159z" />
<glyph unicode="*" d="M401 1161l66 133l252 -133l14 8l23 310h137l-102 -305l10 -13l301 142l22 -138l-319 -63l-10 -17l170 -217l-129 -86l-91 275h-16l-207 -271l-90 80l264 234l-2 14z" />
<glyph unicode="+" horiz-adv-x="1228" d="M182 469l27 127h469l102 469h127l-102 -469h469l-27 -127h-469l-100 -469h-127l100 469h-469z" />
<glyph unicode="," horiz-adv-x="624" d="M129 -303l164 303h-82l47 225h201l-47 -225l-197 -303h-86z" />
<glyph unicode="-" horiz-adv-x="681" d="M182 469l27 127h516l-27 -127h-516z" />
<glyph unicode="." horiz-adv-x="624" d="M211 0l47 225h201l-47 -225h-201z" />
<glyph unicode="/" horiz-adv-x="569" d="M-20 -20l804 1519h125l-809 -1519h-120z" />
<glyph unicode="0" horiz-adv-x="1251" d="M223 395q-4 143 39 344t110.5 344.5t154.5 235.5t193.5 136t227.5 44t208 -44t135 -136t53.5 -235.5t-37.5 -344.5t-112 -344t-156 -235t-193.5 -136t-227.5 -44t-207.5 44t-135 136t-52.5 235zM405.5 254.5q61.5 -148.5 241.5 -148.5t305 148.5t199 484.5 q72 336 11.5 484.5t-240.5 148.5t-306 -148.5t-198 -484.5q-74 -336 -12.5 -484.5z" />
<glyph unicode="1" horiz-adv-x="1251" d="M317 0l27 127h256l260 1202l-291 -29l21 97q82 23 167 47t140 55h147l-296 -1372h251l-26 -127h-656z" />
<glyph unicode="2" horiz-adv-x="1251" d="M135 0l33 156q92 129 196.5 222t210 164.5t205 131t181 121t139 134t80.5 173.5q29 129 -35 199.5t-205 70.5q-80 0 -147.5 -29.5t-121 -75.5t-91 -103.5t-58.5 -112.5l-139 32q35 76 84 151t119.5 134t166 95t218.5 36q90 0 166.5 -25.5t127 -75.5t71 -124t-0.5 -168 q-25 -113 -92 -201t-159.5 -162.5t-201 -142.5t-213 -139.5t-197.5 -152.5t-155 -181h805l-26 -127h-961z" />
<glyph unicode="3" horiz-adv-x="1251" d="M127 270l137 82q59 -115 147.5 -180.5t204.5 -65.5q164 0 272.5 77t137.5 210q33 156 -46 244t-300 88h-145l28 127h88q221 0 336 69.5t146 206.5q12 55 -0.5 100.5t-43 77t-75.5 49t-99 17.5q-68 0 -121 -14.5t-100 -41t-90 -64.5t-90 -85l-102 82q96 104 224 177 t306 73q199 0 292 -96t54 -273q-14 -68 -46 -121t-73 -92.5t-88 -68.5t-94 -45q80 -35 125 -81t65.5 -98.5t19.5 -107.5t-11 -106q-20 -94 -72.5 -173t-131.5 -136.5t-178 -89t-216 -31.5q-106 0 -185 29.5t-134.5 72.5t-90.5 94t-51 94z" />
<glyph unicode="4" horiz-adv-x="1251" d="M152 348l28 127l828 1004h217l-217 -1004h254l-29 -127h-254l-74 -348h-147l73 348h-679zM336 475h524l182 848h-6z" />
<glyph unicode="5" horiz-adv-x="1251" d="M203 262l149 70q31 -100 103.5 -163t189.5 -63q74 0 142.5 23t127 70t101.5 121.5t65 179.5q18 82 10 150.5t-40.5 117.5t-88 76.5t-131.5 27.5q-109 0 -200.5 -59t-159.5 -164l-123 29l240 801h758l-29 -127h-635l-139 -473q88 66 170 93t159 27q92 0 171 -31.5 t131.5 -94t71 -155.5t-8.5 -218q-18 -84 -64.5 -176.5t-124 -169t-186 -125.5t-250.5 -49q-94 0 -161.5 23.5t-114.5 63t-79 91t-54 104.5z" />
<glyph unicode="6" horiz-adv-x="1251" d="M236.5 344q-11.5 131 29.5 320q39 174 111 326.5t172 266t227 178t277 64.5q121 0 197.5 -27.5t103.5 -58.5l-90 -125q-43 41 -95.5 62.5t-138.5 21.5q-88 0 -177 -37t-169 -112.5t-143.5 -192.5t-100.5 -276q41 35 87 66.5t99.5 56t117 39t141.5 14.5q82 0 155.5 -30 t123.5 -88t69.5 -148.5t-6.5 -208.5q-25 -119 -84.5 -208t-139 -148.5t-173 -89t-185.5 -29.5q-115 0 -204 35.5t-141 116.5t-63.5 212zM384 339.5q11 -69.5 46 -121.5t93.5 -82t138.5 -30q78 0 145 26t120.5 72t89.5 108.5t52 138.5q18 86 6 151.5t-46 110.5t-85 67.5 t-108 22.5q-68 0 -139.5 -25.5t-134 -68.5t-109.5 -100.5t-66 -121.5q-14 -78 -3 -147.5z" />
<glyph unicode="7" horiz-adv-x="1251" d="M293 0l899 1352h-750l29 127h938l-20 -90l-924 -1389h-172z" />
<glyph unicode="8" horiz-adv-x="1251" d="M167 227.5q-17 73.5 1 157.5q14 70 53 130t94.5 110.5t123 90.5t141.5 70v5q-113 47 -163 135t-26 204q20 90 71.5 160t125.5 116t166 69.5t194 23.5t184 -23.5t136.5 -69.5t76 -115.5t1.5 -160.5q-25 -117 -113 -204.5t-223 -134.5v-5q61 -25 111 -61.5t83 -87.5 t45 -113.5t-4 -138.5q-18 -84 -67.5 -157.5t-128 -129t-187 -87t-244.5 -31.5q-135 0 -229 31.5t-149.5 87t-72.5 129zM324 385q-10 -49 1 -99t49 -90t105.5 -65t167.5 -25t178 25t133.5 65t88 90t43.5 99q14 63 -6.5 113.5t-66.5 90.5t-114.5 71.5t-148.5 60.5 q-74 -29 -145.5 -60.5t-130 -71.5t-99.5 -90.5t-55 -113.5zM549 1139q-12 -59 10.5 -106.5t63.5 -83.5t92 -59.5t94 -35.5q63 14 127.5 41t117 62.5t89.5 82t49 99.5q12 61 -5.5 105t-56 73t-93 42t-115.5 13t-122 -13t-112 -42t-89 -73t-50 -105z" />
<glyph unicode="9" horiz-adv-x="1251" d="M215 66l92 124q41 -41 94.5 -62.5t139.5 -21.5q88 0 175 39t166 117t142 193.5t104 269.5q-41 -35 -87 -66.5t-99 -56t-116.5 -39t-139.5 -14.5q-84 0 -156.5 29.5t-123 88t-70 147.5t7.5 210q25 119 84 208t139 148.5t172 89t185 29.5q115 0 204 -36t142 -116.5 t64.5 -211.5t-29.5 -320q-39 -176 -111 -327.5t-173 -265t-228 -178t-277 -64.5q-121 0 -197.5 27.5t-103.5 58.5zM494 876.5q12 -65.5 45.5 -110.5t84 -67.5t109.5 -22.5q68 0 131.5 20.5t119.5 57.5t103.5 87t81.5 109q39 195 -30.5 308.5t-229.5 113.5 q-78 0 -145.5 -25.5t-120.5 -71.5t-90 -108.5t-53 -138.5q-18 -86 -6 -151.5z" />
<glyph unicode=":" horiz-adv-x="624" d="M211 0l47 225h201l-47 -225h-201zM338 594l49 225h201l-49 -225h-201z" />
<glyph unicode=";" horiz-adv-x="624" d="M129 -303l164 303h-82l47 225h201l-47 -225l-197 -303h-86zM338 594l49 225h201l-49 -225h-201z" />
<glyph unicode="&#x3c;" horiz-adv-x="1228" d="M197 475l24 115l1143 475l-27 -127l-981 -406l805 -405l-26 -127z" />
<glyph unicode="=" horiz-adv-x="1228" d="M137 260l27 127h1065l-27 -127h-1065zM227 678l29 127h1065l-29 -127h-1065z" />
<glyph unicode="&#x3e;" horiz-adv-x="1228" d="M94 0l27 127l981 405l-805 406l27 127l938 -473l-27 -119z" />
<glyph unicode="?" horiz-adv-x="909" d="M276 0l48 225h200l-47 -225h-201zM383 1274q76 111 174 168t209 57q63 0 119.5 -20.5t93.5 -60.5t52.5 -97t-1.5 -133q-14 -68 -50 -122t-82 -103.5t-98 -93.5t-97.5 -89t-80 -94t-47.5 -104l-24 -115h-139l24 113q16 78 52 136t80 107t93.5 90t92.5 84t75.5 90.5 t47.5 108.5q6 31 4 62.5t-17.5 56t-45.5 41t-75 16.5q-72 0 -129 -36t-120 -122z" />
<glyph unicode="@" horiz-adv-x="1638" d="M242.5 438q-29.5 137 5.5 295q35 162 126 302.5t217 242.5t276.5 161.5t306.5 59.5q141 0 258.5 -46t194.5 -129t107.5 -198.5t0.5 -255.5q-33 -150 -104.5 -259t-158 -182t-175.5 -107.5t-158 -34.5q-61 0 -93 36.5t-24 90.5l-4 -2q-53 -47 -127 -86t-143 -39 q-66 0 -115 25.5t-79 69.5t-39 103.5t5 124.5q23 102 78 202.5t132 179.5t171 128t195 49q84 0 137 -35.5t74 -121.5l67 123h137l-284 -564q-14 -29 -26.5 -54t-16.5 -46q-10 -51 35 -51q57 0 117.5 39t113.5 100.5t93 137t56 151.5q27 125 2.5 221t-87 162.5t-158.5 101.5 t-211 35q-135 0 -258 -49t-223.5 -135t-170 -202t-98.5 -249q-29 -135 -6 -249.5t88.5 -197.5t166.5 -129t228 -46q154 0 299.5 56t255.5 165h156q-68 -88 -154 -153.5t-182 -109.5t-199.5 -66.5t-203.5 -22.5q-158 0 -284 58t-207 160.5t-110.5 239.5zM688 631 q-18 -90 3.5 -145.5t92.5 -55.5q70 0 139.5 40t127 101.5t98.5 133t55 133.5q10 49 5 84.5t-20 59.5t-40 34t-51 10q-74 0 -142.5 -39t-124 -97.5t-93.5 -128t-50 -130.5z" />
<glyph unicode="A" horiz-adv-x="1251" d="M49 0l774 1479h244l135 -1479h-172l-41 463h-530l-238 -463h-172zM530 602h449l-47 762h-23z" />
<glyph unicode="B" horiz-adv-x="1366" d="M221 0l320 1479h544q96 0 167 -29t113 -78q43 -50 57 -116q7 -31 6 -63q0 -38 -9 -79q-27 -123 -102.5 -208t-220.5 -132l2 -4q119 -31 176 -132q37 -65 37 -147q0 -44 -11 -94q-18 -84 -60 -155.5t-116.5 -126t-184.5 -85t-259 -30.5h-459zM414 139h307 q182 0 285.5 63.5t132.5 203.5q8 37 8 70q-1 92 -65 150q-88 79 -263 79h-282zM567 844h287q92 0 162.5 21.5t119 57t77 81t38.5 92.5q8 39 8 72q0 171 -231 171h-2h-352z" />
<glyph unicode="C" horiz-adv-x="1251" d="M215 402q-2 28 -2 58q0 123 33 279q39 180 107.5 321.5t162.5 239t210 148.5t249 51q207 0 304 -112.5t101 -317.5l-159 -45q-4 78 -19.5 140.5t-49.5 105.5t-90 66.5t-138 23.5q-80 0 -158 -37t-145.5 -113.5t-122 -193.5t-88.5 -277q-31 -140 -31 -247q0 -14 1 -30 q5 -118 43 -193.5t105.5 -112.5t159.5 -37q86 0 152.5 29.5t119 78.5t93.5 112.5t71 131.5l142 -29q-47 -102 -107.5 -187t-136.5 -146.5t-170 -95t-207 -33.5q-125 0 -218 46t-147.5 139t-64.5 237z" />
<glyph unicode="D" horiz-adv-x="1366" d="M205 0l319 1479h398q150 0 263 -47.5t181 -140.5t85 -231q5 -43 5 -90q0 -105 -26 -231q-35 -164 -108 -299t-179.5 -233t-244.5 -152.5t-304 -54.5h-389zM397 139h221q256 0 419 150.5t229 449.5q26 119 26 212q0 33 -4 63q-12 114 -63 187t-138.5 105.5t-199.5 32.5 h-230z" />
<glyph unicode="E" horiz-adv-x="1251" d="M221 0l320 1479h886l-30 -140h-723l-107 -495h514l-30 -139h-514l-123 -566h764l-29 -139h-928z" />
<glyph unicode="F" horiz-adv-x="1138" d="M205 0l319 1479h877l-31 -140h-713l-106 -495h528l-30 -139h-529l-151 -705h-164z" />
<glyph unicode="G" horiz-adv-x="1366" d="M228 402q-3 32 -3 67q0 120 33 270q41 195 114.5 338.5t171 236.5t213 139t242.5 46q94 0 171 -23.5t133.5 -75.5t91.5 -134t43 -201l-162 -31q-16 176 -93 251t-206 75q-82 0 -164 -31t-156.5 -102.5t-135 -190t-99.5 -297.5q-32 -145 -32 -250q0 -24 2 -47 q9 -118 52 -190t113 -102.5t152 -30.5q90 0 162.5 25.5t126 70.5t88 104.5t49.5 126.5l26 125h-334l31 140h498l-154 -711h-135l29 135h-4q-74 -78 -186.5 -116.5t-235.5 -38.5q-127 0 -222.5 46t-151.5 139t-68 237z" />
<glyph unicode="H" horiz-adv-x="1478" d="M221 0l320 1479h164l-138 -635h709l137 635h164l-320 -1479h-163l151 705h-708l-152 -705h-164z" />
<glyph unicode="I" horiz-adv-x="681" d="M258 0l320 1479h163l-319 -1479h-164z" />
<glyph unicode="J" horiz-adv-x="909" d="M51 170l142 80q23 -57 72.5 -94t119.5 -37q76 0 137.5 46t89.5 173l248 1141h164l-238 -1098q-45 -211 -153.5 -306t-274.5 -95q-66 0 -112.5 15t-83.5 41.5t-63.5 61.5t-47.5 72z" />
<glyph unicode="K" horiz-adv-x="1366" d="M238 0l319 1479h164l-166 -768h4l778 768h195l-580 -557l316 -922h-187l-270 786l-303 -290l-107 -496h-163z" />
<glyph unicode="L" horiz-adv-x="1138" d="M221 0l320 1479h164l-291 -1340h700l-29 -139h-864z" />
<glyph unicode="M" horiz-adv-x="1705" d="M221 0l320 1479h254l116 -1196h4l631 1196h258l-319 -1479h-148l291 1352h-6l-704 -1352h-127l-125 1352h-7l-290 -1352h-148z" />
<glyph unicode="N" horiz-adv-x="1478" d="M221 0l320 1479h235l398 -1139h8l248 1139h147l-320 -1479h-135l-465 1319h-4l-284 -1319h-148z" />
<glyph unicode="O" horiz-adv-x="1366" d="M264 739q80 371 274.5 565.5t467.5 194.5q274 1 384 -193q63 -112 63 -284q0 -125 -34 -283q-82 -373 -275.5 -566t-467.5 -193q-272 0 -383 194q-64 112 -64 282q0 125 35 283zM428 739q-33 -150 -33 -263q0 -124 40 -204q77 -152 272 -153q197 0 338 151.5t210 468.5 q32 148 32 260q0 127 -41 208q-77 153 -271 153q-195 0 -337 -153t-210 -468z" />
<glyph unicode="P" horiz-adv-x="1251" d="M205 0l319 1479h516q119 0 198 -32t122 -87t52 -131q3 -25 3 -52q0 -53 -12 -112q-41 -184 -196.5 -295t-434.5 -111h-262l-141 -659h-164zM541 799h278q102 0 175 17.5t123 51t79 85t43 116.5q9 41 9 76q0 77 -44 125q-64 68 -231 69h-316z" />
<glyph unicode="Q" horiz-adv-x="1366" d="M264 739q80 371 274.5 565.5t467.5 194.5q274 0 384 -193q63 -112 63 -284q0 -126 -34 -283q-80 -369 -274 -563q23 -72 70 -103.5t124 -31.5l-34 -160q-70 0 -116 12.5t-77 37t-52.5 60.5t-39.5 85q-152 -96 -344 -96q-272 0 -383 194q-64 112 -64 282q0 126 35 283z M428 739q-33 -150 -33 -263q0 -125 40 -204q77 -153 272 -153q143 0 258 82q-25 55 -59 82.5t-97 38.5l35 157q98 -14 153.5 -47t89.5 -104q109 145 168 411q32 148 32 260q0 127 -41 208q-77 153 -271 153q-195 0 -337 -152.5t-210 -468.5z" />
<glyph unicode="R" horiz-adv-x="1366" d="M205 0l319 1479h475q243 1 347 -101q75 -73 75 -190q0 -46 -12 -98q-35 -158 -136.5 -250t-242.5 -135l162 -705h-178l-156 672h-346l-143 -672h-164zM543 811h297q170 0 271 64.5t132 205.5q9 39 9 72q0 29 -7 52q-14 50 -52 80t-99.5 42t-141.5 12h-295z" />
<glyph unicode="S" horiz-adv-x="1251" d="M180 365l162 53q8 -59 29.5 -112.5t59.5 -95.5t94.5 -66.5t138.5 -24.5q164 0 261 75.5t122 190.5q5 25 5 48q0 40 -16 72q-24 50 -74.5 88t-118 66.5t-139 58.5t-139 62.5t-115.5 78.5q-50 47 -72 109q-12 34 -12 75q0 35 9 75q18 80 65 149.5t116 121t157 81t188 29.5 q174 0 281.5 -90t126.5 -274l-154 -33q-2 53 -20.5 100t-54.5 82t-89 55.5t-125 20.5q-129 0 -214 -59.5t-111 -170.5q-5 -21 -5 -40q0 -36 18 -64q26 -43 76 -77t118.5 -62.5t140.5 -58t139.5 -64.5t115.5 -83q48 -47 70 -113q12 -36 11 -78q0 -35 -8 -76 q-18 -80 -59.5 -158t-113 -139.5t-175 -99t-244.5 -37.5q-121 0 -201 35.5t-129 91t-74.5 124t-40.5 134.5z" />
<glyph unicode="T" horiz-adv-x="1138" d="M334 1339l31 140h1048l-31 -140h-442l-289 -1339h-164l289 1339h-442z" />
<glyph unicode="U" horiz-adv-x="1478" d="M312 249q-9 39 -8 83q0 54 13 114l224 1033h164l-228 -1045q-8 -37 -8 -71q0 -27 5 -52q11 -57 46 -100t96.5 -67.5t147.5 -24.5t157.5 24.5t126 67.5t89 100.5t49.5 122.5l227 1045h164l-223 -1033q-25 -111 -81 -197.5t-138 -146t-184.5 -91t-217.5 -31.5t-203 31.5 t-143 91t-75 146.5z" />
<glyph unicode="V" horiz-adv-x="1138" d="M356 1479h164l103 -1213h4l628 1213h166l-778 -1479h-149z" />
<glyph unicode="W" horiz-adv-x="1705" d="M377 1479h155l19 -1180h4l543 1180h145l39 -1180h4l526 1180h156l-670 -1479h-145l-45 1196h-4l-545 -1196h-145z" />
<glyph unicode="X" horiz-adv-x="1138" d="M29 0l608 772l-260 707h188l199 -543l430 543h188l-557 -707l285 -772h-188l-226 610l-479 -610h-188z" />
<glyph unicode="Y" horiz-adv-x="1138" d="M352 1479h180l209 -678l504 678h180l-641 -856l-133 -623h-164l134 623z" />
<glyph unicode="Z" horiz-adv-x="1138" d="M92 0l25 119l1005 1220h-673l30 140h879l-23 -107l-1022 -1233h762l-28 -139h-955z" />
<glyph unicode="[" horiz-adv-x="681" d="M121 -152l354 1631h418l-19 -86h-270l-315 -1459h270l-20 -86h-418z" />
<glyph unicode="\" horiz-adv-x="569" d="M307 1499h125l148 -1519h-123z" />
<glyph unicode="]" horiz-adv-x="681" d="M74 -152l20 86h271l315 1459h-270l18 86h418l-354 -1631h-418z" />
<glyph unicode="^" horiz-adv-x="1228" d="M219 571l655 908h119l262 -908h-129l-225 768l-551 -768h-131z" />
<glyph unicode="_" d="M-55 -256l22 102h1022l-22 -102h-1022z" />
<glyph unicode="`" horiz-adv-x="569" d="M332 1479h223l119 -291h-137z" />
<glyph unicode="a" d="M140 144q-6 25 -6 54q0 34 9 74q18 88 68.5 155t139.5 119t221.5 91t316.5 70l12 57q7 33 7 60q0 60 -36 90q-52 44 -147 44q-61 0 -111.5 -15t-88.5 -39.5t-65.5 -54.5t-43.5 -56l-115 67q72 92 184.5 158.5t264.5 66.5q68 0 130 -17t105 -55q43 -39 63 -99 q10 -31 10 -70q0 -36 -9 -78l-115 -537q-18 -88 -24 -138q-3 -29 -3 -55q0 -19 2 -36h-151l14 147q-70 -61 -169 -114t-220 -53q-61 0 -112.5 18t-84 55t-46.5 91zM291 270q-4 -16 -4 -32q0 -20 6 -36q10 -30 30.5 -51.5t49 -33t59.5 -11.5q39 0 86 13.5t96.5 38t95.5 56.5 t87 69l63 292q-520 -88 -569 -305z" />
<glyph unicode="b" horiz-adv-x="1138" d="M172 0q23 59 34 116.5t23 116.5l271 1246h147l-112 -516l10 4q72 51 150.5 84.5t154.5 33.5q68 0 137.5 -28.5t118.5 -92.5q50 -64 68 -170q7 -38 6 -83q0 -79 -21 -179q-35 -160 -99.5 -266t-143 -169.5t-161.5 -90t-153 -26.5q-96 0 -160.5 36.5t-117.5 96.5l-50 -113 h-102zM381 250q61 -78 113.5 -111t123.5 -33q139 0 243 106.5t149 311.5q22 101 22 175v29q-6 83 -35.5 134t-80 73.5t-113.5 22.5q-66 0 -145.5 -40.5t-155.5 -106.5z" />
<glyph unicode="c" d="M176 301q-2 22 -2 45q0 85 23 186q27 129 80 231.5t124.5 174.5t160.5 109.5t190 37.5q82 0 139 -21.5t95 -60t59.5 -92t33.5 -114.5l-147 -49q-10 98 -60.5 154t-146.5 56q-137 0 -237.5 -110.5t-143.5 -315.5q-21 -95 -21 -170q0 -86 28 -146q52 -110 190 -110 q51 0 93 9.5t82 32t79 60.5t82 95l106 -53q-55 -68 -105.5 -119t-105.5 -85t-117.5 -50t-142.5 -16q-100 0 -172 37.5t-114 109.5t-50 174z" />
<glyph unicode="d" horiz-adv-x="1138" d="M192 266q-6 37 -6 80q0 82 23 186q33 156 97.5 261.5t141 170t158.5 93t150 28.5q76 0 140.5 -33.5t115.5 -84.5l6 -4l112 516h148l-270 -1246q-12 -59 -24.5 -116.5t-16.5 -116.5h-136l3 104q-49 -51 -131 -87.5t-179 -36.5q-72 0 -142.5 26.5t-121 90t-68.5 169.5z M354 524q-20 -89 -20 -160q0 -92 34 -152q58 -106 197 -106q35 0 69 8.5t68.5 26t74.5 44t87 65.5l121 561q-45 66 -107.5 106.5t-127.5 40.5q-66 0 -125.5 -22.5t-110.5 -73.5t-92 -134t-68 -204z" />
<glyph unicode="e" d="M182 282q-5 35 -6 75q0 79 21 175q27 129 80 231.5t125.5 174.5t160.5 109.5t187 37.5q82 0 149.5 -27.5t110.5 -86t55 -150.5q4 -29 4 -62q0 -71 -18 -157l-21 -98h-692q-12 -61 -13 -115q0 -24 3 -46q8 -73 39.5 -125t83 -82t116.5 -30q98 0 183.5 48.5t150.5 132.5 l103 -60q-37 -45 -80 -89t-98.5 -79.5t-126 -57t-160.5 -21.5t-166 31.5t-125.5 99t-65.5 171.5zM369 631h540q14 61 14 112q0 73 -28 125q-47 90 -168 90q-135 0 -226 -90t-132 -237z" />
<glyph unicode="f" horiz-adv-x="681" d="M236 0l202 938h-180l27 127h180l27 121q20 94 49.5 154.5t69.5 96.5t91.5 49t116.5 13q33 0 64.5 -3t64.5 -7l-28 -131q-27 4 -52.5 9t-50.5 5q-76 0 -114.5 -30.5t-57.5 -120.5l-33 -156h232l-27 -127h-231l-203 -938h-147z" />
<glyph unicode="g" d="M10 -135q16 80 73.5 126t154.5 91q-57 18 -84 61q-20 31 -20 65q0 12 3 25q16 70 64.5 107t117.5 76q-63 57 -81 133q-9 36 -9 74q0 43 11 90q18 84 64 152.5t110.5 117.5t143.5 75.5t165 26.5t145.5 -18t102.5 -55q55 35 122.5 61.5t127.5 32.5l-31 -148q-47 0 -93 -7 t-77 -21q16 -29 30 -86q6 -27 6 -56q0 -35 -9 -75q-16 -80 -62.5 -147.5t-110 -118t-141.5 -79t-158 -28.5q-66 0 -103.5 8t-78.5 21q-88 -25 -104 -99q-8 -37 11 -57t60 -20q188 0 312.5 -17.5t194 -54.5t89.5 -93q12 -32 12 -70q0 -30 -7 -64q-12 -59 -52.5 -110.5 t-109 -91.5t-164.5 -62.5t-221 -22.5q-225 0 -328 63q-81 49 -81 144q0 24 5 51zM150 -133q-3 -14 -3 -27q0 -15 4 -28q7 -25 39.5 -42.5t98 -26.5t176.5 -9q66 0 127 9t109.5 28.5t80 48t39.5 67.5q3 13 3 26q0 59 -64 92q-78 40 -275 40q-86 0 -147.5 -17.5t-101 -43 t-60 -57t-26.5 -60.5zM379 713q-6 -29 -6 -56q0 -69 43 -120q61 -70 184 -70q63 0 114.5 19.5t90.5 52t64.5 76t35.5 90.5q8 38 8 70q0 69 -35 115q-53 68 -188 68q-127 0 -208 -70.5t-103 -174.5z" />
<glyph unicode="h" horiz-adv-x="1138" d="M182 0l320 1479h147l-121 -557h4q78 72 168.5 117.5t182.5 45.5q59 0 110 -16t86 -53q35 -36 49 -96q6 -25 5 -55q0 -41 -11 -91l-166 -774h-147l166 770q9 40 9 71q0 51 -24 76q-38 41 -118 41q-41 0 -88 -15t-93.5 -38.5t-87.5 -52.5t-71 -55l-172 -797h-148z" />
<glyph unicode="i" horiz-adv-x="569" d="M211 0l229 1065h148l-230 -1065h-147zM496 1323l39 176h147l-39 -176h-147z" />
<glyph unicode="j" horiz-adv-x="569" d="M-33 -369l25 121q14 -8 31.5 -13t39.5 -5q63 0 96.5 23.5t45.5 82.5l264 1225h147l-266 -1235q-23 -98 -94.5 -160.5t-173.5 -62.5q-78 0 -115 24zM524 1323l39 176h148l-39 -176h-148z" />
<glyph unicode="k" d="M172 0l320 1479h147l-207 -953h4l547 539h178l-399 -393l211 -672h-174l-166 545l-246 -226l-68 -319h-147z" />
<glyph unicode="l" horiz-adv-x="569" d="M211 0l319 1479h148l-320 -1479h-147z" />
<glyph unicode="m" horiz-adv-x="1705" d="M168 0l229 1065h148l-31 -141l10 8q90 72 177 112.5t165 40.5q104 0 164 -47t72 -120q88 76 184 121.5t191 45.5q53 0 102 -13t83 -49q34 -35 46 -99q4 -24 5 -53q0 -48 -13 -109l-164 -762h-147l163 762q9 42 9 74q0 52 -23 78q-37 44 -108 44q-49 0 -93.5 -14 t-86.5 -37.5t-79.5 -53.5t-74.5 -58l-170 -795h-148l164 762q9 42 9 74q0 52 -23 78q-37 44 -109 44q-49 0 -93 -14t-86 -37.5t-80 -53.5t-75 -58l-170 -795h-147z" />
<glyph unicode="n" horiz-adv-x="1138" d="M182 0l230 1065h147l-31 -143h4q78 72 168.5 117.5t182.5 45.5q59 0 110 -16t86 -53q35 -36 49 -96q6 -25 5 -55q0 -41 -11 -91l-166 -774h-147l166 770q9 40 9 71q0 51 -24 76q-38 41 -118 41q-41 0 -88 -15t-93.5 -38.5t-87.5 -52.5t-71 -55l-172 -797h-148z" />
<glyph unicode="o" d="M171 316q-1 18 -1 36q0 86 20 180q25 115 74 216.5t120 176t162 117.5t199 43q109 0 181.5 -43t110.5 -118q39 -74 45 -176q1 -21 0 -42q0 -83 -19 -174q-25 -115 -75 -216t-120.5 -175.5t-162 -117.5t-199.5 -43q-109 0 -181.5 43t-110.5 117t-43 176zM338 532 q-20 -94 -21 -168q0 -88 30 -148q54 -110 188 -110q133 0 234 109.5t146 316.5q20 94 20 168q0 88 -29 148q-54 110 -187 110t-234.5 -109.5t-146.5 -316.5z" />
<glyph unicode="p" horiz-adv-x="1138" d="M94 -393l316 1458h147l-27 -125h5q27 31 63.5 56.5t78.5 46t84 31.5t81 11q70 0 141.5 -26.5t122.5 -90t70 -170.5q6 -36 6 -80q0 -81 -23 -186q-35 -156 -99.5 -261t-141 -169.5t-158.5 -93t-150 -28.5q-76 0 -139 33.5t-115 84.5l-8 4l-106 -495h-148zM381 254 q47 -66 109.5 -107t127.5 -41q63 0 124 23t112 74t92 134t68 204q18 88 18 157q0 93 -32 154q-58 106 -197 106q-72 0 -138.5 -32.5t-160.5 -110.5z" />
<glyph unicode="q" horiz-adv-x="1138" d="M192 272q-6 36 -6 78q0 81 23 182q35 160 99.5 266.5t142 170t159.5 90t154 26.5q96 0 158.5 -36.5t95.5 -96.5l51 113h119l-316 -1458h-147l106 495l-8 -4q-72 -51 -151.5 -84.5t-155.5 -33.5q-68 0 -137.5 28.5t-118.5 93t-68 170.5zM336 337q6 -83 34.5 -134t79 -74 t115.5 -23q66 0 146 41t153 107l123 561q-63 78 -114.5 110.5t-122.5 32.5q-139 0 -244 -106.5t-148 -310.5q-22 -101 -22 -175v-29z" />
<glyph unicode="r" horiz-adv-x="681" d="M143 0l230 1065h147l-45 -211h4q43 55 85 97t89 71t101.5 44t119.5 15l-32 -147q-139 -4 -237.5 -91t-186.5 -253l-127 -590h-148z" />
<glyph unicode="s" horiz-adv-x="909" d="M88 182l135 88q35 -76 102.5 -120t168.5 -44q121 0 186 54.5t80 122.5q4 18 4 34q0 43 -28 71q-38 38 -102.5 62.5t-141 46t-137 56.5t-93.5 91q-19 32 -19 78q0 35 11 77q16 70 54 123t92.5 90t122 55t145.5 18q104 -2 196 -53t129 -133l-123 -90q-45 76 -100 112.5 t-141 36.5q-94 0 -152.5 -43t-75.5 -114q-3 -13 -3 -25q0 -39 30 -65q39 -33 102.5 -56.5t138 -46t136 -60.5t93.5 -98q19 -37 20 -87q0 -33 -9 -72q-16 -78 -60 -136.5t-104.5 -97.5t-132 -58t-143.5 -19q-125 0 -226.5 52t-154.5 150z" />
<glyph unicode="t" horiz-adv-x="681" d="M240 938l26 127h174l76 350h148l-76 -350h246l-27 -127h-246l-164 -758q-8 -37 15.5 -55.5t89.5 -18.5q37 0 69.5 3t63.5 8l-27 -121q-23 -6 -66.5 -11t-109.5 -5q-121 0 -166 36q-30 24 -30 78q0 27 8 62l170 782h-174z" />
<glyph unicode="u" horiz-adv-x="1138" d="M238 146q-6 25 -5 54q0 41 11 91l168 774h147l-166 -770q-9 -40 -9 -71q0 -50 24 -76q38 -42 118 -42q41 0 88.5 15.5t92.5 39t87 52.5t72 55l172 797h148l-230 -1065h-147l31 143h-4q-78 -72 -169.5 -117.5t-183.5 -45.5q-59 0 -110 16t-86 53t-49 97z" />
<glyph unicode="v" horiz-adv-x="909" d="M262 1065h150l80 -881h4l460 881h150l-549 -1065h-197z" />
<glyph unicode="w" horiz-adv-x="1366" d="M262 1065h150l37 -819h4l387 819h149l35 -823h4l385 823h150l-514 -1065h-150l-35 823h-4l-389 -823h-149z" />
<glyph unicode="x" horiz-adv-x="909" d="M25 0l456 559l-202 506h165l152 -379l305 379h166l-408 -506l226 -559h-170l-172 436l-353 -436h-165z" />
<glyph unicode="y" horiz-adv-x="909" d="M-45 -381l27 121q14 -2 32.5 -4t42.5 -2q33 0 76 7t87 32.5t89 76t82 138.5l-137 1077h156l110 -813h4l426 813h156l-625 -1159q-49 -90 -101 -147.5t-106.5 -91.5t-109.5 -47t-107 -13q-37 0 -58.5 4t-43.5 8z" />
<glyph unicode="z" horiz-adv-x="909" d="M61 0l23 106l762 832h-524l26 127h725l-22 -107l-762 -831h585l-26 -127h-787z" />
<glyph unicode="{" horiz-adv-x="681" d="M231 621l19 86q63 0 104 40.5t58 118.5l88 408q23 104 82 164.5t157 60.5h127l-18 -86h-78q-43 0 -72.5 -26.5t-44.5 -88.5l-102 -471q-16 -78 -65.5 -114.5t-120.5 -46.5l-3 -4q68 -10 101 -47t16 -115l-100 -471q-14 -61 4 -88t61 -27h78l-18 -86h-127q-98 0 -131 60.5 t-10 164.5l88 408q16 78 -6.5 119t-86.5 41z" />
<glyph unicode="|" horiz-adv-x="454" d="M158 -20l329 1519h127l-329 -1519h-127z" />
<glyph unicode="}" horiz-adv-x="681" d="M100 -172l19 86h78q43 0 73.5 26.5t44.5 88.5l101 471q16 78 65 114.5t121 47.5l2 4q-68 10 -100.5 47t-16.5 114l103 471q14 61 -5.5 88t-62.5 27h-78l19 86h127q98 0 131 -60.5t10 -164.5l-88 -408q-16 -78 6.5 -118.5t85.5 -40.5l-18 -86q-63 0 -104.5 -41t-57.5 -119 l-88 -408q-23 -104 -82 -164.5t-158 -60.5h-127z" />
<glyph unicode="~" horiz-adv-x="1228" d="M240 483q27 35 57.5 69t67 59.5t80.5 41t96 15.5q57 0 112.5 -21.5t108.5 -48.5t99 -48.5t85 -21.5q61 0 113.5 46.5t99.5 99.5l60 -90q-33 -35 -67 -68t-69.5 -58.5t-76.5 -41t-88 -15.5q-61 0 -106.5 21.5t-92.5 48.5q-45 27 -94.5 48.5t-120.5 21.5q-68 0 -118 -46 t-87 -104z" />
<glyph unicode="&#xa1;" horiz-adv-x="681" d="M143 -414l263 1012h131l-177 -1012h-217zM422 840l49 225h201l-49 -225h-201z" />
<glyph unicode="&#xa2;" horiz-adv-x="1251" d="M231 -227l162 278q-82 68 -106.5 189.5t12.5 291.5q27 129 80 231.5t124.5 174.5t161 109.5t189.5 37.5q80 0 129 -18l107 182h116l-135 -231q47 -39 71.5 -95.5t39.5 -125.5l-148 -49q-10 84 -45 131l-436 -756q20 -10 42.5 -13.5t47.5 -3.5q51 0 93 9.5t82 32t79 60.5 t82 95l106 -53q-55 -68 -105 -119t-105.5 -85t-118 -50t-142.5 -16q-37 0 -69.5 5t-61.5 17l-135 -229h-117zM427.5 328.5q6.5 -86.5 45.5 -140.5l438 754q-37 16 -84 16q-137 0 -236 -110.5t-145 -315.5q-25 -117 -18.5 -203.5z" />
<glyph unicode="&#xa3;" horiz-adv-x="1251" d="M49 -20l35 159q45 8 92 36t90 73t76 105.5t49 131.5q25 106 25 187h-219l28 127h201q4 59 7 116.5t20 124.5q23 104 70.5 188.5t118.5 145t162 93t200 32.5q193 0 284.5 -99.5t95.5 -281.5l-145 -24q-4 43 -15.5 92t-39 90t-74.5 68.5t-125 27.5q-90 0 -153.5 -26.5 t-107.5 -69.5t-69.5 -96.5t-38.5 -106.5q-18 -86 -26 -153.5t-12 -120.5h311l-29 -127h-295q2 -33 -2 -66t-14 -74q-14 -61 -40 -132.5t-77 -143.5q45 -25 87 -51.5t81 -48t77 -36t79 -14.5q145 0 231 69t139 194l127 -25q-72 -186 -195.5 -275t-293.5 -89q-78 0 -138.5 14 t-110.5 37.5t-95 51.5l-90 56q-53 -59 -121 -103t-160 -56z" />
<glyph unicode="&#xa4;" horiz-adv-x="1251" d="M180 311l137 113q-39 66 -50 145.5t9 169.5q18 90 65.5 170t113.5 146l-88 112l104 86l90 -114q72 51 157 79.5t175 28.5t162.5 -28.5t124.5 -79.5l139 114l67 -86l-137 -112q39 -66 50.5 -146t-7.5 -170q-20 -90 -67 -170t-113 -145l88 -113l-104 -86l-90 115 q-72 -51 -157 -80t-175 -29t-163 29t-124 80l-139 -115zM397.5 576.5q14.5 -72.5 55.5 -123t104 -77t143 -26.5t155 26.5t137.5 77t107.5 123t65 162.5q18 88 5 161t-54 123t-104.5 77.5t-143.5 27.5t-155.5 -27.5t-138 -77.5t-107.5 -123t-64 -161q-20 -90 -5.5 -162.5z " />
<glyph unicode="&#xa5;" horiz-adv-x="1251" d="M295 479l29 127h362l2 17l-49 163h-277l27 127h209l-178 566h147l224 -711l530 711h147l-424 -566h209l-26 -127h-275l-125 -163l-2 -17h363l-29 -127h-362l-103 -479h-139l102 479h-362z" />
<glyph unicode="&#xa6;" horiz-adv-x="454" d="M158 -20l125 573h127l-125 -573h-127zM362 926l125 573h127l-125 -573h-127z" />
<glyph unicode="&#xa7;" d="M199 8l118 66q25 -53 66 -94t115 -41q61 0 109 35.5t61 95.5q10 45 -16.5 104t-71.5 125t-99.5 135.5t-98.5 137t-70.5 130t-16.5 113.5q20 96 94 153.5t199 63.5q-18 33 -34.5 59.5t-27 52t-12.5 55.5t6 71q10 45 38 87t70 73.5t93 50t110 18.5q92 0 150.5 -39 t112.5 -131l-111 -55q-8 12 -20.5 31.5t-32 38t-48 32t-67.5 13.5q-61 0 -103 -36t-53 -83q-6 -23 -3 -43.5t21.5 -51t56.5 -82t104 -135.5t106.5 -141t62 -102t24.5 -83t-7 -83q-23 -104 -100.5 -156.5t-171.5 -64.5q39 -59 55 -115.5t0 -138.5q-10 -45 -37 -89t-70 -79 t-100 -56.5t-127 -21.5q-104 0 -175 50t-99 130zM433 769.5q5 -24.5 20.5 -52t40 -60t57.5 -77.5t57.5 -75t46 -47.5t42 -24.5t42.5 -7q47 0 90 30.5t54 84.5q10 41 -15.5 97t-103.5 157q-37 47 -62.5 74.5t-45 42t-37 18.5t-37.5 4q-51 0 -94.5 -33t-53.5 -80 q-6 -27 -1 -51.5z" />
<glyph unicode="&#xa8;" horiz-adv-x="569" d="M293 1208l43 193h180l-43 -193h-180zM616 1208l43 193h181l-43 -193h-181z" />
<glyph unicode="&#xa9;" horiz-adv-x="1638" d="M204 436q-32 139 5 305q35 164 127 302.5t219 239.5t279.5 158.5t310.5 57.5q156 0 282.5 -57.5t209.5 -158.5t115 -239.5t-3 -302.5q-37 -166 -129 -305t-219 -240.5t-278.5 -158.5t-307.5 -57q-158 0 -285 57t-210.5 158.5t-115.5 240.5zM348 485.5 q23 -116.5 88.5 -201.5t169 -133.5t236.5 -48.5q131 0 255 48.5t226 133.5t175 201.5t104 255.5q29 135 6 252t-88.5 202t-168 133t-233.5 48q-133 0 -257 -48t-226.5 -133t-176 -201.5t-102.5 -252.5q-31 -139 -8 -255.5zM550 559q-13 86 9 184q20 100 69.5 185.5t120 147 t159.5 96t192 34.5q72 0 132 -20.5t101 -60.5t62.5 -98t17.5 -134h-137q2 88 -51.5 139t-149.5 51q-72 0 -132 -25.5t-107.5 -70.5t-80 -106.5t-48.5 -135.5q-16 -72 -9 -134t35.5 -110t77.5 -76t119 -28q98 0 174 54.5t108 146.5h140q-63 -150 -184 -237t-263 -87 q-102 0 -177 36t-120 99.5t-58 149.5z" />
<glyph unicode="&#xaa;" horiz-adv-x="614" d="M246 1012q12 51 44 93t89 73.5t141 57.5t199 44l6 27q10 49 -20.5 73.5t-90.5 24.5q-80 0 -127 -28.5t-69 -61.5l-72 49q45 55 118 95t171 40q43 0 85 -10t70.5 -32.5t43 -59.5t2.5 -90l-70 -322q-10 -53 -13 -83t-1 -54h-109l4 72q-41 -25 -100.5 -54.5t-136.5 -29.5 q-82 0 -132.5 44t-31.5 132zM356 1010q-8 -33 13.5 -56.5t68.5 -23.5q55 0 119 27.5t105 60.5l36 168q-154 -29 -240.5 -70t-101.5 -106z" />
<glyph unicode="&#xab;" d="M279 532l335 324h144l-334 -324l194 -323h-139zM565 532l336 324h143l-333 -324l194 -323h-139z" />
<glyph unicode="&#xac;" horiz-adv-x="1228" d="M227 678l29 127h1065l-119 -545h-127l90 418h-938z" />
<glyph unicode="&#xad;" horiz-adv-x="681" d="M182 469l27 127h516l-27 -127h-516z" />
<glyph unicode="&#xae;" horiz-adv-x="1638" d="M204 436q-32 139 5 305q35 164 127 302.5t219 239.5t279.5 158.5t310.5 57.5q156 0 282.5 -57.5t209.5 -158.5t115 -239.5t-3 -302.5q-37 -166 -129 -305t-219 -240.5t-278.5 -158.5t-307.5 -57q-158 0 -285 57t-210.5 158.5t-115.5 240.5zM348 485.5 q23 -116.5 88.5 -201.5t169 -133.5t236.5 -48.5q131 0 255 48.5t226 133.5t175 201.5t104 255.5q29 135 6 252t-88.5 202t-168 133t-233.5 48q-133 0 -257 -48t-226.5 -133t-176 -201.5t-102.5 -252.5q-31 -139 -8 -255.5zM588 301l190 877h336q158 0 222.5 -60.5 t35.5 -189.5q-27 -119 -103.5 -174.5t-178.5 -67.5l165 -385h-147l-150 381h-151l-84 -381h-135zM829 793h160q123 0 177.5 35.5t70.5 107.5q14 63 -18.5 97t-147.5 34h-182z" />
<glyph unicode="&#xaf;" horiz-adv-x="569" d="M236 1253l26 123h639l-27 -123h-638z" />
<glyph unicode="&#xb0;" horiz-adv-x="819" d="M372 1088.5q-11 54.5 3 115.5q12 61 47 114.5t84 93.5t107.5 63.5t119.5 23.5t110.5 -23.5t80 -63.5t42 -93t-0.5 -115q-14 -61 -49 -115.5t-83.5 -94.5t-106.5 -62.5t-120 -22.5q-61 0 -110.5 22.5t-81 62.5t-42.5 94.5zM473 1204q-20 -88 25 -146.5t127 -58.5 q41 0 79.5 15.5t71.5 43t56.5 65.5t33.5 81q18 88 -26.5 146.5t-126.5 58.5q-41 0 -80 -15.5t-72 -43t-56.5 -65.5t-31.5 -81z" />
<glyph unicode="&#xb1;" horiz-adv-x="1228" d="M82 0l27 127h1065l-27 -127h-1065zM205 571l26 127h469l80 367h127l-80 -367h469l-26 -127h-469l-80 -366h-127l80 366h-469z" />
<glyph unicode="&#xb2;" horiz-adv-x="749" d="M186 598l23 111q86 113 190.5 182.5t197.5 121.5t162.5 104t88.5 132q14 66 -24 107t-128 41q-53 0 -97 -15.5t-80 -41t-61.5 -58.5t-41.5 -65l-86 32q25 49 61.5 94.5t86.5 80t111.5 55t135.5 20.5q129 0 193.5 -63.5t42.5 -173.5q-14 -72 -56.5 -126.5t-99.5 -97.5 t-124 -80.5t-133.5 -75.5t-126 -82t-102.5 -100h525l-23 -102h-635z" />
<glyph unicode="&#xb3;" horiz-adv-x="749" d="M188 758l97 65q39 -74 96 -104.5t133 -30.5q104 0 169 41t79 111q20 92 -28 137t-193 45h-92l20 102h84q117 0 185.5 35t86.5 119q10 47 -28.5 83t-114.5 36q-43 0 -77 -6.5t-61.5 -19.5t-53 -32.5t-54.5 -46.5l-74 58q63 63 144.5 106t198.5 43q129 0 191 -57.5 t40 -163.5q-16 -80 -66.5 -128t-109.5 -67v-4q41 -14 66.5 -40.5t38 -59.5t13.5 -69t-6 -68q-27 -115 -128 -185.5t-252 -70.5q-70 0 -122.5 17.5t-89 43t-59 56t-33.5 55.5z" />
<glyph unicode="&#xb4;" horiz-adv-x="569" d="M408 1188l245 291h224l-332 -291h-137z" />
<glyph unicode="&#xb5;" horiz-adv-x="1138" d="M96 -393l316 1458h147l-166 -770q-23 -106 15 -147.5t118 -41.5q41 0 88.5 15.5t92.5 39t87 52.5t72 55l172 797h148l-230 -1065h-147l31 143h-4q-78 -72 -169.5 -117.5t-183.5 -45.5q-88 0 -151 32l-88 -405h-148z" />
<glyph unicode="&#xb6;" d="M249.5 919.5q-16.5 71.5 2.5 151.5q43 203 187.5 305.5t361.5 102.5h567l-22 -103h-146l-336 -1548h-123l336 1548h-209l-336 -1548h-122l184 850q-92 0 -164 30.5t-118 85t-62.5 126z" />
<glyph unicode="&#xb7;" horiz-adv-x="624" d="M299 530q12 53 55 91t99 38q53 0 82.5 -37.5t17.5 -91.5q-10 -53 -56 -88.5t-100 -35.5q-55 0 -81.5 35.5t-16.5 88.5z" />
<glyph unicode="&#xb8;" horiz-adv-x="569" d="M-29 -416l52 90q25 -18 58.5 -28.5t68.5 -10.5q113 0 133 89q8 33 -9.5 55t-56.5 22q-23 0 -48.5 -3t-49.5 -13l-27 39l168 176h98l-122 -119l4 -4q31 10 63 10q45 0 74 -14t45 -38.5t19 -55.5t-5 -64q-20 -86 -94 -130t-190 -44q-63 0 -106.5 13.5t-74.5 29.5z" />
<glyph unicode="&#xb9;" horiz-adv-x="749" d="M303 598l23 102h155l150 697l-180 -27l14 68q53 14 107.5 28.5t89.5 32.5h110l-172 -799h162l-23 -102h-436z" />
<glyph unicode="&#xba;" horiz-adv-x="614" d="M276 1167q35 156 130.5 244t224.5 88q131 0 188.5 -88t22.5 -244t-129.5 -243.5t-225.5 -87.5q-129 0 -187.5 87.5t-23.5 243.5zM395 1171q-25 -117 3 -177t110 -60t137 61.5t78 171.5q23 111 -4 172.5t-109 61.5q-78 0 -135 -62t-80 -168z" />
<glyph unicode="&#xbb;" d="M209 209l334 323l-195 324h144l196 -324l-340 -323h-139zM496 209l333 323l-194 324h143l197 -324l-340 -323h-139z" />
<glyph unicode="&#xbc;" horiz-adv-x="1875" d="M328 598l22 102h156l149 697l-180 -27l14 68q53 14 107.5 28.5t89.5 32.5h111l-172 -799h161l-22 -102h-436zM442 -20l1229 1519h127l-1235 -1519h-121zM1120 209l19 92l506 588h157l-125 -578h166l-20 -102h-166l-45 -209h-111l45 209h-426zM1266 311h301l100 459h-4z " />
<glyph unicode="&#xbd;" horiz-adv-x="1875" d="M328 598l22 102h156l149 697l-180 -27l14 68q53 14 107.5 28.5t89.5 32.5h111l-172 -799h161l-22 -102h-436zM401 -20l1229 1519h127l-1235 -1519h-121zM1126 0l23 111q57 76 123.5 130t133.5 97t130 77t115.5 68.5t87.5 74.5t47 93q14 66 -23 107t-127 41 q-53 0 -97 -15.5t-80 -41t-61.5 -58.5t-41.5 -66l-88 33q25 49 62.5 94.5t87.5 80t111.5 55t135.5 20.5q129 0 194.5 -63.5t41.5 -173.5q-16 -72 -57.5 -126.5t-98.5 -97.5t-125 -80.5t-133.5 -75.5t-126 -82t-103.5 -100h525l-21 -102h-635z" />
<glyph unicode="&#xbe;" horiz-adv-x="1875" d="M262 758l96 65q39 -74 96.5 -104.5t133.5 -30.5q104 0 168.5 41t79.5 111q20 92 -28 137t-194 45h-92l21 102h84q117 0 185.5 35t86.5 119q10 47 -29 83t-114 36q-43 0 -77 -6.5t-61.5 -19.5t-53 -32.5t-54.5 -46.5l-74 58q63 63 144.5 106t197.5 43q129 0 191.5 -57.5 t40.5 -163.5q-16 -80 -66.5 -128t-109.5 -67v-4q41 -14 66.5 -40.5t37.5 -59.5t13 -69t-5 -68q-27 -115 -128 -185.5t-253 -70.5q-70 0 -122 17.5t-89 43t-59.5 56t-32.5 55.5zM475 -20l1229 1519h127l-1235 -1519h-121zM1120 209l19 92l506 588h157l-125 -578h166l-20 -102 h-166l-45 -209h-111l45 209h-426zM1266 311h301l100 459h-4z" />
<glyph unicode="&#xbf;" horiz-adv-x="909" d="M106.5 -256q-14.5 57 2.5 133q14 66 50 121t82 104.5t98 93.5t97 89t80 93t47 105l25 115h139l-25 -113q-16 -78 -52 -136t-81 -107t-93 -90t-92 -84t-77 -91.5t-45 -107.5q-6 -31 -4 -62.5t17.5 -56t44 -41t75.5 -16.5q72 0 129.5 35.5t120.5 121.5l109 -59 q-74 -111 -172.5 -168t-208.5 -57q-66 0 -121 20.5t-93 60.5t-52.5 97zM612 840l50 225h200l-49 -225h-201z" />
<glyph unicode="&#xc0;" horiz-adv-x="1251" d="M49 0l774 1479h244l135 -1479h-172l-41 463h-530l-238 -463h-172zM530 602h449l-47 762h-23zM752 1848h223l119 -291h-137z" />
<glyph unicode="&#xc1;" horiz-adv-x="1251" d="M49 0l774 1479h244l135 -1479h-172l-41 463h-530l-238 -463h-172zM530 602h449l-47 762h-23zM828 1557l245 291h224l-332 -291h-137z" />
<glyph unicode="&#xc2;" horiz-adv-x="1251" d="M49 0l774 1479h244l135 -1479h-172l-41 463h-530l-238 -463h-172zM530 602h449l-47 762h-23zM662 1557l264 291h192l142 -291h-164l-96 192l-174 -192h-164z" />
<glyph unicode="&#xc3;" horiz-adv-x="1251" d="M49 0l774 1479h244l135 -1479h-172l-41 463h-530l-238 -463h-172zM530 602h449l-47 762h-23zM615 1575q29 92 97 158t171 66q41 0 75.5 -11.5t65.5 -25.5q33 -16 62.5 -27.5t62.5 -11.5q39 0 68.5 24.5t46.5 65.5h102q-12 -37 -36.5 -76t-57.5 -70.5t-72 -52t-80 -20.5 t-78.5 12t-72.5 27q-37 16 -73 27.5t-73 11.5q-33 0 -64.5 -31t-41.5 -66h-102z" />
<glyph unicode="&#xc4;" horiz-adv-x="1251" d="M49 0l774 1479h244l135 -1479h-172l-41 463h-530l-238 -463h-172zM530 602h449l-47 762h-23zM713 1577l43 193h180l-43 -193h-180zM1036 1577l43 193h181l-43 -193h-181z" />
<glyph unicode="&#xc5;" horiz-adv-x="1251" d="M49 0l774 1479h244l135 -1479h-172l-41 463h-530l-238 -463h-172zM530 602h449l-47 762h-23zM801 1762q8 43 32.5 79.5t58.5 64.5t74 44t83 16q86 0 133 -59t29 -145q-10 -43 -34 -80t-57.5 -64.5t-74.5 -44t-84 -16.5q-86 0 -132 59.5t-28 145.5zM891 1762 q-10 -47 16.5 -81t73.5 -34t88 34t51 81t-16.5 80.5t-73.5 33.5t-88 -33.5t-51 -80.5z" />
<glyph unicode="&#xc6;" horiz-adv-x="2048" d="M33 0l1153 1479h1038l-31 -140h-723l-106 -495h514l-31 -139h-514l-123 -566h764l-28 -139h-928l98 463h-545l-352 -463h-186zM682 602h465l166 762h-45z" />
<glyph unicode="&#xc7;" horiz-adv-x="1251" d="M215 401.5q-10 143.5 31 337.5q39 180 107.5 321.5t162.5 239t210 148.5t249 51q207 0 304 -112.5t101 -317.5l-159 -45q-4 78 -19.5 140.5t-49.5 105.5t-90 66.5t-138 23.5q-80 0 -158 -37t-145.5 -113.5t-122 -193.5t-88.5 -277q-35 -160 -30 -277.5t43 -193 t105.5 -112.5t159.5 -37q86 0 152.5 29.5t119 78.5t93.5 112.5t71 131.5l142 -29q-47 -102 -107.5 -187t-136.5 -146.5t-170 -95t-207 -33.5q-125 0 -218 46t-147.5 139t-64.5 236.5zM331 -416l52 90q25 -18 58.5 -28.5t68.5 -10.5q113 0 133 89q8 33 -9.5 55t-56.5 22 q-23 0 -48.5 -3t-49.5 -13l-27 39l168 176h98l-122 -119l4 -4q31 10 63 10q45 0 74 -14t45 -38.5t19 -55.5t-5 -64q-20 -86 -94 -130t-190 -44q-63 0 -106.5 13.5t-74.5 29.5z" />
<glyph unicode="&#xc8;" horiz-adv-x="1251" d="M221 0l320 1479h886l-30 -140h-723l-107 -495h514l-30 -139h-514l-123 -566h764l-29 -139h-928zM809 1848h223l119 -291h-137z" />
<glyph unicode="&#xc9;" horiz-adv-x="1251" d="M221 0l320 1479h886l-30 -140h-723l-107 -495h514l-30 -139h-514l-123 -566h764l-29 -139h-928zM885 1557l245 291h224l-332 -291h-137z" />
<glyph unicode="&#xca;" horiz-adv-x="1251" d="M221 0l320 1479h886l-30 -140h-723l-107 -495h514l-30 -139h-514l-123 -566h764l-29 -139h-928zM719 1557l264 291h192l142 -291h-164l-96 192l-174 -192h-164z" />
<glyph unicode="&#xcb;" horiz-adv-x="1251" d="M221 0l320 1479h886l-30 -140h-723l-107 -495h514l-30 -139h-514l-123 -566h764l-29 -139h-928zM770 1577l43 193h180l-43 -193h-180zM1093 1577l43 193h181l-43 -193h-181z" />
<glyph unicode="&#xcc;" horiz-adv-x="681" d="M258 0l320 1479h163l-319 -1479h-164zM467 1848h223l119 -291h-137z" />
<glyph unicode="&#xcd;" horiz-adv-x="681" d="M258 0l320 1479h163l-319 -1479h-164zM543 1557l245 291h224l-332 -291h-137z" />
<glyph unicode="&#xce;" horiz-adv-x="681" d="M258 0l320 1479h163l-319 -1479h-164zM377 1557l264 291h192l142 -291h-164l-96 192l-174 -192h-164z" />
<glyph unicode="&#xcf;" horiz-adv-x="681" d="M258 0l320 1479h163l-319 -1479h-164zM428 1577l43 193h180l-43 -193h-180zM751 1577l43 193h181l-43 -193h-181z" />
<glyph unicode="&#xd0;" horiz-adv-x="1366" d="M205 0l151 705h-139l31 139h139l137 635h398q150 0 263 -47.5t181 -140.5t85 -231t-21 -321q-35 -164 -108 -299t-179.5 -233t-244.5 -152.5t-304 -54.5h-389zM397 139h221q256 0 419 150.5t229 449.5q35 162 22.5 275.5t-63.5 186.5t-138.5 105.5t-199.5 32.5h-230 l-106 -495h385l-31 -139h-385z" />
<glyph unicode="&#xd1;" horiz-adv-x="1478" d="M221 0l320 1479h235l398 -1139h8l248 1139h147l-320 -1479h-135l-465 1319h-4l-284 -1319h-148zM727 1575q29 92 97 158t171 66q41 0 75.5 -11.5t65.5 -25.5q33 -16 62.5 -27.5t62.5 -11.5q39 0 68.5 24.5t46.5 65.5h102q-12 -37 -36.5 -76t-57.5 -70.5t-72 -52 t-80 -20.5t-78.5 12t-72.5 27q-37 16 -73 27.5t-73 11.5q-33 0 -64.5 -31t-41.5 -66h-102z" />
<glyph unicode="&#xd2;" horiz-adv-x="1366" d="M264 739q80 371 274.5 565.5t467.5 194.5q274 0 383.5 -193.5t29.5 -566.5q-82 -373 -275.5 -566t-467.5 -193q-272 0 -383 194t-29 565zM428 739q-70 -315 7 -467.5t272 -152.5q197 0 338 151.5t210 468.5q68 315 -9 468t-271 153q-195 0 -337 -153t-210 -468zM809 1848 h223l119 -291h-137z" />
<glyph unicode="&#xd3;" horiz-adv-x="1366" d="M264 739q80 371 274.5 565.5t467.5 194.5q274 0 383.5 -193.5t29.5 -566.5q-82 -373 -275.5 -566t-467.5 -193q-272 0 -383 194t-29 565zM428 739q-70 -315 7 -467.5t272 -152.5q197 0 338 151.5t210 468.5q68 315 -9 468t-271 153q-195 0 -337 -153t-210 -468zM885 1557 l245 291h224l-332 -291h-137z" />
<glyph unicode="&#xd4;" horiz-adv-x="1366" d="M264 739q80 371 274.5 565.5t467.5 194.5q274 0 383.5 -193.5t29.5 -566.5q-82 -373 -275.5 -566t-467.5 -193q-272 0 -383 194t-29 565zM428 739q-70 -315 7 -467.5t272 -152.5q197 0 338 151.5t210 468.5q68 315 -9 468t-271 153q-195 0 -337 -153t-210 -468zM719 1557 l264 291h192l142 -291h-164l-96 192l-174 -192h-164z" />
<glyph unicode="&#xd5;" horiz-adv-x="1366" d="M264 739q80 371 274.5 565.5t467.5 194.5q274 0 383.5 -193.5t29.5 -566.5q-82 -373 -275.5 -566t-467.5 -193q-272 0 -383 194t-29 565zM428 739q-70 -315 7 -467.5t272 -152.5q197 0 338 151.5t210 468.5q68 315 -9 468t-271 153q-195 0 -337 -153t-210 -468zM672 1575 q29 92 97 158t171 66q41 0 75.5 -11.5t65.5 -25.5q33 -16 62.5 -27.5t62.5 -11.5q39 0 68.5 24.5t46.5 65.5h102q-12 -37 -36.5 -76t-57.5 -70.5t-72 -52t-80 -20.5t-78.5 12t-72.5 27q-37 16 -73 27.5t-73 11.5q-33 0 -64.5 -31t-41.5 -66h-102z" />
<glyph unicode="&#xd6;" horiz-adv-x="1366" d="M264 739q80 371 274.5 565.5t467.5 194.5q274 0 383.5 -193.5t29.5 -566.5q-82 -373 -275.5 -566t-467.5 -193q-272 0 -383 194t-29 565zM428 739q-70 -315 7 -467.5t272 -152.5q197 0 338 151.5t210 468.5q68 315 -9 468t-271 153q-195 0 -337 -153t-210 -468zM770 1577 l43 193h180l-43 -193h-180zM1093 1577l43 193h181l-43 -193h-181z" />
<glyph unicode="&#xd7;" horiz-adv-x="1228" d="M100 90l539 442l-346 443l108 90l347 -447l538 447l72 -90l-539 -443l346 -442l-108 -90l-348 442l-537 -442z" />
<glyph unicode="&#xd8;" horiz-adv-x="1366" d="M37 -131l258 305q-53 98 -62.5 238.5t31.5 326.5q80 371 274.5 565.5t467.5 194.5q201 0 313 -106l154 184h143l-227 -270q53 -96 62 -237.5t-32 -330.5q-80 -371 -275.5 -565t-467.5 -194q-201 0 -316 110l-186 -221h-137zM420 324l790 940q-78 96 -235 96 q-195 0 -337 -152.5t-210 -468.5q-57 -266 -8 -415zM471 219q74 -100 236 -100q197 0 338 151.5t210 468.5q29 135 30 239.5t-21 180.5z" />
<glyph unicode="&#xd9;" horiz-adv-x="1478" d="M312.5 249q-19.5 87 4.5 197l224 1033h164l-228 -1045q-14 -66 -3 -123t46 -100t96.5 -67.5t147.5 -24.5t157.5 24.5t126 67.5t89 100.5t49.5 122.5l227 1045h164l-223 -1033q-25 -111 -81 -197.5t-138 -146t-184.5 -91t-217.5 -31.5t-203 31.5t-143 91t-74.5 146.5z M864 1848h223l119 -291h-137z" />
<glyph unicode="&#xda;" horiz-adv-x="1478" d="M312.5 249q-19.5 87 4.5 197l224 1033h164l-228 -1045q-14 -66 -3 -123t46 -100t96.5 -67.5t147.5 -24.5t157.5 24.5t126 67.5t89 100.5t49.5 122.5l227 1045h164l-223 -1033q-25 -111 -81 -197.5t-138 -146t-184.5 -91t-217.5 -31.5t-203 31.5t-143 91t-74.5 146.5z M940 1557l245 291h224l-332 -291h-137z" />
<glyph unicode="&#xdb;" horiz-adv-x="1478" d="M312.5 249q-19.5 87 4.5 197l224 1033h164l-228 -1045q-14 -66 -3 -123t46 -100t96.5 -67.5t147.5 -24.5t157.5 24.5t126 67.5t89 100.5t49.5 122.5l227 1045h164l-223 -1033q-25 -111 -81 -197.5t-138 -146t-184.5 -91t-217.5 -31.5t-203 31.5t-143 91t-74.5 146.5z M774 1557l264 291h192l142 -291h-164l-96 192l-174 -192h-164z" />
<glyph unicode="&#xdc;" horiz-adv-x="1478" d="M312.5 249q-19.5 87 4.5 197l224 1033h164l-228 -1045q-14 -66 -3 -123t46 -100t96.5 -67.5t147.5 -24.5t157.5 24.5t126 67.5t89 100.5t49.5 122.5l227 1045h164l-223 -1033q-25 -111 -81 -197.5t-138 -146t-184.5 -91t-217.5 -31.5t-203 31.5t-143 91t-74.5 146.5z M825 1577l43 193h180l-43 -193h-180zM1148 1577l43 193h181l-43 -193h-181z" />
<glyph unicode="&#xdd;" horiz-adv-x="1138" d="M352 1479h180l209 -678l504 678h180l-641 -856l-133 -623h-164l134 623zM770 1557l245 291h224l-332 -291h-137z" />
<glyph unicode="&#xde;" horiz-adv-x="1251" d="M205 0l319 1479h164l-63 -287h352q119 0 197.5 -32t121.5 -87t53.5 -131t-8.5 -164q-41 -184 -196.5 -294.5t-433.5 -110.5h-262l-80 -373h-164zM479 512h279q102 0 175 17.5t123 51t78.5 85t43.5 116.5q29 133 -36 202t-231 69h-315z" />
<glyph unicode="&#xdf;" horiz-adv-x="1138" d="M193 0l243 1135q20 98 68.5 167.5t111 112.5t136 63.5t145.5 20.5q92 0 155.5 -26.5t100.5 -74.5t46 -113.5t-7 -141.5q-23 -104 -85.5 -184t-162.5 -125l-2 -5q133 -41 173 -154.5t7 -273.5q-23 -102 -68.5 -180t-106 -132t-129 -81.5t-136.5 -27.5q-74 0 -119 14 t-84 41l82 121q16 -16 50 -33t87 -17q55 0 100.5 23t79 60.5t58.5 90t37 111.5q20 100 10 170t-49 113t-103.5 61.5t-150.5 18.5l29 127h59q45 0 89 18.5t81 52t64.5 78.5t39.5 100q25 115 -17 178.5t-159 63.5q-121 0 -190.5 -68.5t-97.5 -205.5l-238 -1098h-147z" />
<glyph unicode="&#xe0;" d="M140.5 144.5q-13.5 54.5 2.5 127.5q18 88 68.5 155t139.5 119t221.5 91t316.5 70l12 57q23 106 -28.5 150t-147.5 44q-61 0 -111.5 -15t-88.5 -39.5t-65.5 -54.5t-43.5 -56l-115 67q72 92 184.5 158.5t264.5 66.5q68 0 130 -17t105 -55t62.5 -98.5t1.5 -148.5l-115 -537 q-18 -88 -23.5 -138t-1.5 -91h-151l14 147q-70 -61 -169 -114t-220 -53q-61 0 -112.5 18t-84 55t-46 91.5zM291 270q-8 -37 2 -67.5t30.5 -52t49 -33t59.5 -11.5q39 0 86 13.5t96.5 38t95.5 56.5t87 69l63 292q-520 -88 -569 -305zM549 1479h223l119 -291h-137z" />
<glyph unicode="&#xe1;" d="M140.5 144.5q-13.5 54.5 2.5 127.5q18 88 68.5 155t139.5 119t221.5 91t316.5 70l12 57q23 106 -28.5 150t-147.5 44q-61 0 -111.5 -15t-88.5 -39.5t-65.5 -54.5t-43.5 -56l-115 67q72 92 184.5 158.5t264.5 66.5q68 0 130 -17t105 -55t62.5 -98.5t1.5 -148.5l-115 -537 q-18 -88 -23.5 -138t-1.5 -91h-151l14 147q-70 -61 -169 -114t-220 -53q-61 0 -112.5 18t-84 55t-46 91.5zM291 270q-8 -37 2 -67.5t30.5 -52t49 -33t59.5 -11.5q39 0 86 13.5t96.5 38t95.5 56.5t87 69l63 292q-520 -88 -569 -305zM625 1188l245 291h224l-332 -291h-137z " />
<glyph unicode="&#xe2;" d="M140.5 144.5q-13.5 54.5 2.5 127.5q18 88 68.5 155t139.5 119t221.5 91t316.5 70l12 57q23 106 -28.5 150t-147.5 44q-61 0 -111.5 -15t-88.5 -39.5t-65.5 -54.5t-43.5 -56l-115 67q72 92 184.5 158.5t264.5 66.5q68 0 130 -17t105 -55t62.5 -98.5t1.5 -148.5l-115 -537 q-18 -88 -23.5 -138t-1.5 -91h-151l14 147q-70 -61 -169 -114t-220 -53q-61 0 -112.5 18t-84 55t-46 91.5zM291 270q-8 -37 2 -67.5t30.5 -52t49 -33t59.5 -11.5q39 0 86 13.5t96.5 38t95.5 56.5t87 69l63 292q-520 -88 -569 -305zM459 1188l264 291h192l142 -291h-164 l-96 192l-174 -192h-164z" />
<glyph unicode="&#xe3;" d="M140.5 144.5q-13.5 54.5 2.5 127.5q18 88 68.5 155t139.5 119t221.5 91t316.5 70l12 57q23 106 -28.5 150t-147.5 44q-61 0 -111.5 -15t-88.5 -39.5t-65.5 -54.5t-43.5 -56l-115 67q72 92 184.5 158.5t264.5 66.5q68 0 130 -17t105 -55t62.5 -98.5t1.5 -148.5l-115 -537 q-18 -88 -23.5 -138t-1.5 -91h-151l14 147q-70 -61 -169 -114t-220 -53q-61 0 -112.5 18t-84 55t-46 91.5zM291 270q-8 -37 2 -67.5t30.5 -52t49 -33t59.5 -11.5q39 0 86 13.5t96.5 38t95.5 56.5t87 69l63 292q-520 -88 -569 -305zM412 1206q29 92 97 158t171 66 q41 0 75.5 -11.5t65.5 -25.5q33 -16 62.5 -27.5t62.5 -11.5q39 0 68.5 24.5t46.5 65.5h102q-12 -37 -36.5 -76t-57.5 -70.5t-72 -52t-80 -20.5t-78.5 12t-72.5 27q-37 16 -73 27.5t-73 11.5q-33 0 -64.5 -31t-41.5 -66h-102z" />
<glyph unicode="&#xe4;" d="M140.5 144.5q-13.5 54.5 2.5 127.5q18 88 68.5 155t139.5 119t221.5 91t316.5 70l12 57q23 106 -28.5 150t-147.5 44q-61 0 -111.5 -15t-88.5 -39.5t-65.5 -54.5t-43.5 -56l-115 67q72 92 184.5 158.5t264.5 66.5q68 0 130 -17t105 -55t62.5 -98.5t1.5 -148.5l-115 -537 q-18 -88 -23.5 -138t-1.5 -91h-151l14 147q-70 -61 -169 -114t-220 -53q-61 0 -112.5 18t-84 55t-46 91.5zM291 270q-8 -37 2 -67.5t30.5 -52t49 -33t59.5 -11.5q39 0 86 13.5t96.5 38t95.5 56.5t87 69l63 292q-520 -88 -569 -305zM510 1208l43 193h180l-43 -193h-180z M833 1208l43 193h181l-43 -193h-181z" />
<glyph unicode="&#xe5;" d="M140.5 144.5q-13.5 54.5 2.5 127.5q18 88 68.5 155t139.5 119t221.5 91t316.5 70l12 57q23 106 -28.5 150t-147.5 44q-61 0 -111.5 -15t-88.5 -39.5t-65.5 -54.5t-43.5 -56l-115 67q72 92 184.5 158.5t264.5 66.5q68 0 130 -17t105 -55t62.5 -98.5t1.5 -148.5l-115 -537 q-18 -88 -23.5 -138t-1.5 -91h-151l14 147q-70 -61 -169 -114t-220 -53q-61 0 -112.5 18t-84 55t-46 91.5zM291 270q-8 -37 2 -67.5t30.5 -52t49 -33t59.5 -11.5q39 0 86 13.5t96.5 38t95.5 56.5t87 69l63 292q-520 -88 -569 -305zM598 1393q8 43 32.5 79.5t58.5 64.5t74 44 t83 16q86 0 133 -59t29 -145q-10 -43 -34 -80t-57.5 -64.5t-74.5 -44t-84 -16.5q-86 0 -132 59.5t-28 145.5zM688 1393q-10 -47 16.5 -81t73.5 -34t88 34t51 81t-16.5 80.5t-73.5 33.5t-88 -33.5t-51 -80.5z" />
<glyph unicode="&#xe6;" horiz-adv-x="1593" d="M123 250q27 119 95.5 197.5t165.5 130t215 80t241 49.5l12 57q43 195 -158 194q-59 0 -106 -15t-85 -39.5t-65.5 -54.5t-44.5 -56l-110 67q68 92 178 158.5t252 66.5q100 0 171.5 -32.5t104.5 -110.5q57 55 142.5 99t195.5 44q80 0 145.5 -27.5t107.5 -86t54.5 -150.5 t-14.5 -219l-21 -98h-655q-41 -186 11.5 -292t205.5 -106q80 0 162 48.5t147 132.5l103 -60q-37 -45 -80 -89t-97.5 -79.5t-122 -57t-153.5 -21.5q-49 0 -95 7t-88 26.5t-76 54t-58 92.5q-72 -57 -130.5 -92t-112.5 -54.5t-104 -26.5t-102 -7q-53 0 -100 18t-81 52t-49 84 t-1 116zM274 270q-8 -37 0.5 -67.5t28 -52t47 -33t62.5 -11.5q51 0 102 16.5t96 41t81 54.5t57 56l63 301q-84 -16 -172 -39.5t-164 -58.5t-131 -86t-70 -121zM971 631h508q33 147 -16.5 237t-170.5 90q-129 0 -207.5 -90t-113.5 -237z" />
<glyph unicode="&#xe7;" d="M176 301q-8 102 21 231q27 129 80 231.5t124.5 174.5t160.5 109.5t190 37.5q82 0 139 -21.5t95 -60t59.5 -92t33.5 -114.5l-147 -49q-10 98 -60.5 154t-146.5 56q-137 0 -237.5 -110.5t-143.5 -315.5q-45 -205 7 -315.5t190 -110.5q51 0 93 9.5t82 32t79 60.5t82 95 l106 -53q-55 -68 -105.5 -119t-105.5 -85t-117.5 -50t-142.5 -16q-100 0 -172 37.5t-114 109.5t-50 174zM198 -416l52 90q25 -18 58.5 -28.5t68.5 -10.5q113 0 133 89q8 33 -9.5 55t-56.5 22q-23 0 -48.5 -3t-49.5 -13l-27 39l168 176h98l-122 -119l4 -4q31 10 63 10 q45 0 74 -14t45 -38.5t19 -55.5t-5 -64q-20 -86 -94 -130t-190 -44q-63 0 -106.5 13.5t-74.5 29.5z" />
<glyph unicode="&#xe8;" d="M181.5 282.5q-15.5 104.5 15.5 249.5q27 129 80 231.5t125.5 174.5t160.5 109.5t187 37.5q82 0 149.5 -27.5t110.5 -86t55 -150.5t-14 -219l-21 -98h-692q-18 -88 -10 -161t39.5 -125t83 -82t116.5 -30q98 0 183.5 48.5t150.5 132.5l103 -60q-37 -45 -80 -89t-98.5 -79.5 t-126 -57t-160.5 -21.5t-166 31.5t-126 99t-65.5 172zM369 631h540q33 147 -14 237t-168 90q-135 0 -226 -90t-132 -237zM559 1479h223l119 -291h-137z" />
<glyph unicode="&#xe9;" d="M181.5 282.5q-15.5 104.5 15.5 249.5q27 129 80 231.5t125.5 174.5t160.5 109.5t187 37.5q82 0 149.5 -27.5t110.5 -86t55 -150.5t-14 -219l-21 -98h-692q-18 -88 -10 -161t39.5 -125t83 -82t116.5 -30q98 0 183.5 48.5t150.5 132.5l103 -60q-37 -45 -80 -89t-98.5 -79.5 t-126 -57t-160.5 -21.5t-166 31.5t-126 99t-65.5 172zM369 631h540q33 147 -14 237t-168 90q-135 0 -226 -90t-132 -237zM635 1188l245 291h224l-332 -291h-137z" />
<glyph unicode="&#xea;" d="M181.5 282.5q-15.5 104.5 15.5 249.5q27 129 80 231.5t125.5 174.5t160.5 109.5t187 37.5q82 0 149.5 -27.5t110.5 -86t55 -150.5t-14 -219l-21 -98h-692q-18 -88 -10 -161t39.5 -125t83 -82t116.5 -30q98 0 183.5 48.5t150.5 132.5l103 -60q-37 -45 -80 -89t-98.5 -79.5 t-126 -57t-160.5 -21.5t-166 31.5t-126 99t-65.5 172zM369 631h540q33 147 -14 237t-168 90q-135 0 -226 -90t-132 -237zM469 1188l264 291h192l142 -291h-164l-96 192l-174 -192h-164z" />
<glyph unicode="&#xeb;" d="M181.5 282.5q-15.5 104.5 15.5 249.5q27 129 80 231.5t125.5 174.5t160.5 109.5t187 37.5q82 0 149.5 -27.5t110.5 -86t55 -150.5t-14 -219l-21 -98h-692q-18 -88 -10 -161t39.5 -125t83 -82t116.5 -30q98 0 183.5 48.5t150.5 132.5l103 -60q-37 -45 -80 -89t-98.5 -79.5 t-126 -57t-160.5 -21.5t-166 31.5t-126 99t-65.5 172zM369 631h540q33 147 -14 237t-168 90q-135 0 -226 -90t-132 -237zM520 1208l43 193h180l-43 -193h-180zM843 1208l43 193h181l-43 -193h-181z" />
<glyph unicode="&#xec;" horiz-adv-x="569" d="M211 0l229 1065h148l-230 -1065h-147zM332 1479h223l119 -291h-137z" />
<glyph unicode="&#xed;" horiz-adv-x="569" d="M211 0l229 1065h148l-230 -1065h-147zM408 1188l245 291h224l-332 -291h-137z" />
<glyph unicode="&#xee;" horiz-adv-x="569" d="M211 0l229 1065h148l-230 -1065h-147zM242 1188l264 291h192l142 -291h-164l-96 192l-174 -192h-164z" />
<glyph unicode="&#xef;" horiz-adv-x="569" d="M211 0l229 1065h148l-230 -1065h-147zM293 1208l43 193h180l-43 -193h-180zM616 1208l43 193h181l-43 -193h-181z" />
<glyph unicode="&#xf0;" d="M166 289q-6 96 18 215q25 115 73 210t116.5 162.5t159 105.5t198.5 38q43 0 83 -10.5t63 -18.5q-10 47 -34 94.5t-57 94.5l-241 -119l-49 98l231 113q-45 55 -87 96t-69 62l140 49q80 -57 143 -140l252 123l39 -102l-223 -113q47 -72 82.5 -155.5t55 -176t20.5 -190.5 t-19 -197q-25 -121 -74 -221t-119.5 -173t-162 -113.5t-199.5 -40.5q-109 0 -182.5 37.5t-112.5 106.5t-45 165zM332 504q-39 -182 9.5 -290t193.5 -108q147 0 241 108t133 290q18 88 16.5 159.5t-26.5 123t-73 79t-121 27.5q-147 0 -240.5 -106.5t-132.5 -282.5z" />
<glyph unicode="&#xf1;" horiz-adv-x="1138" d="M182 0l230 1065h147l-31 -143h4q78 72 168.5 117.5t182.5 45.5q59 0 110 -16t86 -53t48.5 -96.5t-5.5 -145.5l-166 -774h-147l166 770q23 106 -15 147t-118 41q-41 0 -88 -15t-93.5 -38.5t-87.5 -52.5t-71 -55l-172 -797h-148zM480 1206q29 92 97 158t171 66 q41 0 75.5 -11.5t65.5 -25.5q33 -16 62.5 -27.5t62.5 -11.5q39 0 68.5 24.5t46.5 65.5h102q-12 -37 -36.5 -76t-57.5 -70.5t-72 -52t-80 -20.5t-78.5 12t-72.5 27q-37 16 -73 27.5t-73 11.5q-33 0 -64.5 -31t-41.5 -66h-102z" />
<glyph unicode="&#xf2;" d="M171 316.5q-5 101.5 19 215.5q25 115 74 216.5t120 176t162 117.5t199 43q109 0 181.5 -43t110.5 -117.5t44.5 -176t-18.5 -216.5t-75 -216t-120.5 -175.5t-162 -117.5t-199.5 -43q-109 0 -181.5 43t-110.5 117.5t-43 176zM338 532q-45 -207 9 -316.5t188 -109.5 q133 0 234 109.5t146 316.5t-9 316.5t-187 109.5t-234.5 -109.5t-146.5 -316.5zM559 1479h223l119 -291h-137z" />
<glyph unicode="&#xf3;" d="M171 316.5q-5 101.5 19 215.5q25 115 74 216.5t120 176t162 117.5t199 43q109 0 181.5 -43t110.5 -117.5t44.5 -176t-18.5 -216.5t-75 -216t-120.5 -175.5t-162 -117.5t-199.5 -43q-109 0 -181.5 43t-110.5 117.5t-43 176zM338 532q-45 -207 9 -316.5t188 -109.5 q133 0 234 109.5t146 316.5t-9 316.5t-187 109.5t-234.5 -109.5t-146.5 -316.5zM635 1188l245 291h224l-332 -291h-137z" />
<glyph unicode="&#xf4;" d="M171 316.5q-5 101.5 19 215.5q25 115 74 216.5t120 176t162 117.5t199 43q109 0 181.5 -43t110.5 -117.5t44.5 -176t-18.5 -216.5t-75 -216t-120.5 -175.5t-162 -117.5t-199.5 -43q-109 0 -181.5 43t-110.5 117.5t-43 176zM338 532q-45 -207 9 -316.5t188 -109.5 q133 0 234 109.5t146 316.5t-9 316.5t-187 109.5t-234.5 -109.5t-146.5 -316.5zM469 1188l264 291h192l142 -291h-164l-96 192l-174 -192h-164z" />
<glyph unicode="&#xf5;" d="M171 316.5q-5 101.5 19 215.5q25 115 74 216.5t120 176t162 117.5t199 43q109 0 181.5 -43t110.5 -117.5t44.5 -176t-18.5 -216.5t-75 -216t-120.5 -175.5t-162 -117.5t-199.5 -43q-109 0 -181.5 43t-110.5 117.5t-43 176zM338 532q-45 -207 9 -316.5t188 -109.5 q133 0 234 109.5t146 316.5t-9 316.5t-187 109.5t-234.5 -109.5t-146.5 -316.5zM422 1206q29 92 97 158t171 66q41 0 75.5 -11.5t65.5 -25.5q33 -16 62.5 -27.5t62.5 -11.5q39 0 68.5 24.5t46.5 65.5h102q-12 -37 -36.5 -76t-57.5 -70.5t-72 -52t-80 -20.5t-78.5 12 t-72.5 27q-37 16 -73 27.5t-73 11.5q-33 0 -64.5 -31t-41.5 -66h-102z" />
<glyph unicode="&#xf6;" d="M171 316.5q-5 101.5 19 215.5q25 115 74 216.5t120 176t162 117.5t199 43q109 0 181.5 -43t110.5 -117.5t44.5 -176t-18.5 -216.5t-75 -216t-120.5 -175.5t-162 -117.5t-199.5 -43q-109 0 -181.5 43t-110.5 117.5t-43 176zM338 532q-45 -207 9 -316.5t188 -109.5 q133 0 234 109.5t146 316.5t-9 316.5t-187 109.5t-234.5 -109.5t-146.5 -316.5zM520 1208l43 193h180l-43 -193h-180zM843 1208l43 193h181l-43 -193h-181z" />
<glyph unicode="&#xf7;" horiz-adv-x="1228" d="M182 469l27 127h1065l-27 -127h-1065zM510 106q10 53 55 90t99 37q53 0 81.5 -36.5t18.5 -90.5q-12 -53 -57 -89.5t-99 -36.5q-53 0 -81.5 36.5t-16.5 89.5zM694 958q10 53 55.5 90t98.5 37t81.5 -36.5t18.5 -90.5q-12 -53 -57 -90t-98 -37t-82 37t-17 90z" />
<glyph unicode="&#xf8;" d="M-2 -168l229 289q-47 78 -55 183.5t18 227.5q25 115 74 216.5t120 176t162 117.5t199 43q129 0 209 -63l170 211h133l-231 -287q47 -76 56.5 -182.5t-19.5 -231.5q-25 -115 -74 -216t-119.5 -175.5t-163 -117.5t-200.5 -43q-133 0 -209 63l-170 -211h-129zM334 254 l526 653q-51 51 -141 51q-133 0 -234.5 -109.5t-146.5 -316.5q-39 -172 -4 -278zM389 158q51 -51 146 -52q133 0 234 110t146 316q37 174 3 279z" />
<glyph unicode="&#xf9;" horiz-adv-x="1138" d="M238.5 145.5q-13.5 59.5 5.5 145.5l168 774h147l-166 -770q-23 -106 15 -147.5t118 -41.5q41 0 88.5 15.5t92.5 39t87 52.5t72 55l172 797h148l-230 -1065h-147l31 143h-4q-78 -72 -169.5 -117.5t-183.5 -45.5q-59 0 -110 16t-86 53t-48.5 96.5zM617 1479h223l119 -291 h-137z" />
<glyph unicode="&#xfa;" horiz-adv-x="1138" d="M238.5 145.5q-13.5 59.5 5.5 145.5l168 774h147l-166 -770q-23 -106 15 -147.5t118 -41.5q41 0 88.5 15.5t92.5 39t87 52.5t72 55l172 797h148l-230 -1065h-147l31 143h-4q-78 -72 -169.5 -117.5t-183.5 -45.5q-59 0 -110 16t-86 53t-48.5 96.5zM693 1188l245 291h224 l-332 -291h-137z" />
<glyph unicode="&#xfb;" horiz-adv-x="1138" d="M238.5 145.5q-13.5 59.5 5.5 145.5l168 774h147l-166 -770q-23 -106 15 -147.5t118 -41.5q41 0 88.5 15.5t92.5 39t87 52.5t72 55l172 797h148l-230 -1065h-147l31 143h-4q-78 -72 -169.5 -117.5t-183.5 -45.5q-59 0 -110 16t-86 53t-48.5 96.5zM527 1188l264 291h192 l142 -291h-164l-96 192l-174 -192h-164z" />
<glyph unicode="&#xfc;" horiz-adv-x="1138" d="M238.5 145.5q-13.5 59.5 5.5 145.5l168 774h147l-166 -770q-23 -106 15 -147.5t118 -41.5q41 0 88.5 15.5t92.5 39t87 52.5t72 55l172 797h148l-230 -1065h-147l31 143h-4q-78 -72 -169.5 -117.5t-183.5 -45.5q-59 0 -110 16t-86 53t-48.5 96.5zM578 1208l43 193h180 l-43 -193h-180zM901 1208l43 193h181l-43 -193h-181z" />
<glyph unicode="&#xfd;" horiz-adv-x="909" d="M-45 -381l27 121q14 -2 32.5 -4t42.5 -2q33 0 76 7t87 32.5t89 76t82 138.5l-137 1077h156l110 -813h4l426 813h156l-625 -1159q-49 -90 -101 -147.5t-106.5 -91.5t-109.5 -47t-107 -13q-37 0 -58.5 4t-43.5 8zM578 1188l245 291h224l-332 -291h-137z" />
<glyph unicode="&#xfe;" horiz-adv-x="1138" d="M94 -393l406 1872h147l-117 -539h5q27 31 63.5 56.5t78.5 46t84 31.5t81 11q70 0 141.5 -26.5t122.5 -90t69.5 -170t-16.5 -266.5q-35 -156 -99.5 -261t-141 -169.5t-158.5 -93t-150 -28.5q-76 0 -139 33.5t-115 84.5l-8 4l-106 -495h-148zM381 254q47 -66 109.5 -107 t127.5 -41q63 0 124 23t112 74t92 134t68 204q43 205 -14.5 311t-196.5 106q-72 0 -138.5 -32.5t-160.5 -110.5z" />
<glyph unicode="&#xff;" horiz-adv-x="909" d="M-45 -381l27 121q14 -2 32.5 -4t42.5 -2q33 0 76 7t87 32.5t89 76t82 138.5l-137 1077h156l110 -813h4l426 813h156l-625 -1159q-49 -90 -101 -147.5t-106.5 -91.5t-109.5 -47t-107 -13q-37 0 -58.5 4t-43.5 8zM463 1208l43 193h180l-43 -193h-180zM786 1208l43 193h181 l-43 -193h-181z" />
<glyph unicode="&#x152;" horiz-adv-x="2048" d="M204 440.5q-5 139.5 29 298.5q35 160 100.5 299.5t164 241.5t231.5 160.5t303 58.5q98 0 178 -10t158 -10h883l-31 -140h-723l-106 -495h514l-31 -139h-514l-123 -566h764l-29 -139h-923q-78 0 -163 -10t-184 -10q-170 0 -277.5 58t-161.5 160.5t-59 242zM397 739 q-66 -305 14.5 -462.5t317.5 -157.5q82 0 148.5 13t116.5 44t83 82t49 127l154 709q33 150 -42 208t-241 58q-238 0 -386 -158t-214 -463z" />
<glyph unicode="&#x153;" horiz-adv-x="1593" d="M141.5 301q-8.5 102 20.5 231q27 129 80 231.5t122.5 174.5t153.5 109.5t174 37.5q109 0 185.5 -44t117.5 -146q78 111 177.5 150.5t203.5 39.5q76 0 140.5 -27.5t105.5 -86t53.5 -150.5t-14.5 -219l-21 -98h-655q-18 -88 -19 -161t20.5 -125t67.5 -82t124 -30 q96 0 178 48.5t135 132.5l102 -60q-31 -45 -71.5 -89t-96 -79.5t-124 -57t-152.5 -21.5q-127 0 -204 45t-105 149q-86 -104 -182.5 -149t-204.5 -45q-90 0 -158 37.5t-106.5 109.5t-47 174zM308 216.5q44 -110.5 173 -110.5q135 0 226.5 111t136.5 315q43 205 3 315.5 t-181 110.5q-129 0 -221.5 -110.5t-135.5 -315.5q-45 -205 -1 -315.5zM1016 631h504q33 147 -14.5 237t-168.5 90q-133 0 -209.5 -90t-111.5 -237z" />
<glyph unicode="&#x178;" horiz-adv-x="1138" d="M352 1479h180l209 -678l504 678h180l-641 -856l-133 -623h-164l134 623zM655 1577l43 193h180l-43 -193h-180zM978 1577l43 193h181l-43 -193h-181z" />
<glyph unicode="&#x2c6;" horiz-adv-x="569" d="M242 1188l264 291h192l142 -291h-164l-96 192l-174 -192h-164z" />
<glyph unicode="&#x2dc;" horiz-adv-x="569" d="M195 1206q29 92 97 158t171 66q41 0 75.5 -11.5t65.5 -25.5q33 -16 62.5 -27.5t62.5 -11.5q39 0 68.5 24.5t46.5 65.5h102q-12 -37 -36.5 -76t-57.5 -70.5t-72 -52t-80 -20.5t-78.5 12t-72.5 27q-37 16 -73 27.5t-73 11.5q-33 0 -64.5 -31t-41.5 -66h-102z" />
<glyph unicode="&#x2000;" horiz-adv-x="983" />
<glyph unicode="&#x2001;" horiz-adv-x="1966" />
<glyph unicode="&#x2002;" horiz-adv-x="983" />
<glyph unicode="&#x2003;" horiz-adv-x="1966" />
<glyph unicode="&#x2004;" horiz-adv-x="655" />
<glyph unicode="&#x2005;" horiz-adv-x="491" />
<glyph unicode="&#x2006;" horiz-adv-x="327" />
<glyph unicode="&#x2007;" horiz-adv-x="327" />
<glyph unicode="&#x2008;" horiz-adv-x="245" />
<glyph unicode="&#x2009;" horiz-adv-x="393" />
<glyph unicode="&#x200a;" horiz-adv-x="109" />
<glyph unicode="&#x2010;" horiz-adv-x="681" d="M182 469l27 127h516l-27 -127h-516z" />
<glyph unicode="&#x2011;" horiz-adv-x="681" d="M182 469l27 127h516l-27 -127h-516z" />
<glyph unicode="&#x2012;" horiz-adv-x="681" d="M182 469l27 127h516l-27 -127h-516z" />
<glyph unicode="&#x2013;" d="M102 481l23 103h1024l-23 -103h-1024z" />
<glyph unicode="&#x2014;" horiz-adv-x="2048" d="M102 481l23 103h2048l-23 -103h-2048z" />
<glyph unicode="&#x2018;" horiz-adv-x="569" d="M389 983l49 225l193 291h86l-160 -291h82l-49 -225h-201z" />
<glyph unicode="&#x2019;" horiz-adv-x="569" d="M383 963l160 290h-82l49 226h201l-49 -226l-193 -290h-86z" />
<glyph unicode="&#x201a;" horiz-adv-x="569" d="M113 -291l159 291h-82l48 225h200l-47 -225l-192 -291h-86z" />
<glyph unicode="&#x201c;" d="M422 983l49 225l193 291h86l-160 -291h82l-49 -225h-201zM840 983l49 225l192 291h86l-159 -291h82l-50 -225h-200z" />
<glyph unicode="&#x201d;" d="M387 963l160 290h-82l49 226h201l-49 -226l-193 -290h-86zM805 963l160 290h-82l49 226h201l-50 -226l-192 -290h-86z" />
<glyph unicode="&#x201e;" d="M117 -291l159 291h-81l47 225h200l-47 -225l-192 -291h-86zM535 -291l159 291h-82l47 225h201l-47 -225l-192 -291h-86z" />
<glyph unicode="&#x2022;" d="M298 594.5q-13 66.5 3 144.5q16 76 59 143.5t104.5 118t134.5 79t151 28.5q76 0 137 -28.5t101 -79t54.5 -118t-2.5 -143.5q-16 -78 -60 -144.5t-105.5 -117.5t-136 -79.5t-150.5 -28.5q-78 0 -138.5 28.5t-99.5 79.5t-52 117.5z" />
<glyph unicode="&#x2026;" horiz-adv-x="2048" d="M242 0l47 225h200l-47 -225h-200zM924 0l47 225h200l-47 -225h-200zM1606 0l47 225h200l-47 -225h-200z" />
<glyph unicode="&#x202f;" horiz-adv-x="393" />
<glyph unicode="&#x2039;" horiz-adv-x="681" d="M225 532l336 324h144l-334 -324l194 -323h-139z" />
<glyph unicode="&#x203a;" horiz-adv-x="681" d="M207 209l334 323l-195 324h143l197 -324l-340 -323h-139z" />
<glyph unicode="&#x205f;" horiz-adv-x="491" />
<glyph unicode="&#x2122;" horiz-adv-x="2027" d="M406 1368l24 111h660l-25 -111h-262l-158 -733h-139l158 733h-258zM1030 635l182 844h215l115 -639l385 639h215l-182 -844h-139l151 704h-4l-428 -704h-90l-125 704h-4l-152 -704h-139z" />
<glyph unicode="&#xe000;" horiz-adv-x="1064" d="M0 0v1065h1065v-1065h-1065z" />
<glyph unicode="&#xfb01;" horiz-adv-x="1138" d="M209 0l203 938h-181l27 127h180l27 121q20 94 50 154.5t70 96.5t91 49t117 13q33 0 64.5 -3t64.5 -7l-29 -131q-27 4 -52.5 9t-49.5 5q-76 0 -115 -30.5t-58 -120.5l-32 -156h231l-26 -127h-232l-203 -938h-147zM813 0l229 1065h148l-229 -1065h-148zM1098 1323l39 176 h147l-39 -176h-147z" />
<glyph unicode="&#xfb02;" horiz-adv-x="1138" d="M209 0l203 938h-181l27 127h180l27 121q20 94 50 154.5t70 96.5t91 49t117 13q33 0 64.5 -3t64.5 -7l-29 -131q-27 4 -52.5 9t-49.5 5q-76 0 -115 -30.5t-58 -120.5l-32 -156h231l-26 -127h-232l-203 -938h-147zM813 0l320 1479h147l-319 -1479h-148z" />
</font>
</defs>
</svg>
