<?xml version="1.0" standalone="no"?>
<!DOCTYPE svg PUBLIC "-//W3C//DTD SVG 1.1//EN" "http://www.w3.org/Graphics/SVG/1.1/DTD/svg11.dtd" >
<svg xmlns="http://www.w3.org/2000/svg">
<metadata></metadata>
<defs>
<font id="PrudentialModernBoldItalic" horiz-adv-x="1251" >
<font-face units-per-em="2048" ascent="1638" descent="-410" />
<missing-glyph horiz-adv-x="624" />
<glyph horiz-adv-x="0" />
<glyph unicode="&#xd;" horiz-adv-x="0" />
<glyph horiz-adv-x="0" />
<glyph horiz-adv-x="0" />
<glyph unicode=" "  horiz-adv-x="624" />
<glyph unicode="&#x09;" horiz-adv-x="624" />
<glyph unicode="&#xa0;" horiz-adv-x="624" />
<glyph unicode="!" horiz-adv-x="681" d="M199 0l61 291h283l-62 -291h-282zM348 500l160 979h303l-266 -979h-197z" />
<glyph unicode="&#x22;" horiz-adv-x="681" d="M248 922l121 557h229l-121 -557h-229zM602 922l121 557h229l-121 -557h-229z" />
<glyph unicode="#" d="M217 432l41 184h191l88 246h-164l39 185h188l152 432h192l-149 -432h196l152 432h192l-149 -432h164l-39 -185h-189l-88 -246h164l-41 -184h-190l-150 -432h-192l147 432h-197l-149 -432h-193l148 432h-164zM643 616h197l88 246h-197z" />
<glyph unicode="$" d="M137 244l209 151q39 -86 94.5 -128t141.5 -62l96 444q-82 18 -153.5 53t-122 86.5t-71 119t-1.5 153.5q23 102 75 180t123.5 130t156.5 79t173 29l31 147h151l-30 -147q117 -4 206 -53.5t168 -149.5l-192 -158q-49 59 -99.5 101.5t-127.5 54.5l-88 -410 q100 -33 175.5 -73.5t121 -96t59.5 -128t-6 -169.5q-23 -102 -74 -174.5t-123 -121t-159 -73t-181 -28.5l-53 -246h-152l54 246q-135 14 -238.5 71.5t-163.5 172.5zM563 1079q-16 -72 25 -107.5t145 -66.5l80 369q-96 -6 -161.5 -50t-88.5 -145zM733 205q39 0 81 8t79 29.5 t64.5 57.5t39.5 91q10 45 1 79t-32.5 59.5t-61.5 44t-85 30.5z" />
<glyph unicode="%" horiz-adv-x="1820" d="M307.5 967.5q-14.5 66.5 1.5 142.5t59.5 142.5t103.5 116.5t134 80t152 30t138 -30t99 -80t53.5 -116.5t-1.5 -142.5t-59.5 -142.5t-104 -116.5t-134 -80t-151.5 -30t-138.5 30t-99 80t-53 116.5zM397 -20l1180 1519h174l-1180 -1519h-174zM510 1046.5q6 -30.5 23.5 -53 t45 -37t62.5 -14.5t68.5 14.5t61.5 37t48.5 53t26.5 63.5t0 63.5t-23.5 53t-45 37t-62.5 14.5t-69 -14.5t-61.5 -37t-48 -53t-26.5 -63.5t0 -63.5zM1089.5 226.5q-14.5 66.5 2.5 142.5q16 76 59 142.5t103.5 116.5t134 79.5t151.5 29.5t139.5 -29.5t100.5 -79.5t52 -117 t-3 -142q-16 -76 -59.5 -142.5t-102.5 -117t-133 -80t-152 -29.5t-139 29.5t-100 80t-53.5 117zM1292 305q6 -31 24.5 -53.5t46.5 -36.5t62 -14q35 0 68 14t60.5 36.5t48 53.5t26.5 64q14 66 -23.5 117t-107.5 51q-35 0 -68.5 -14.5t-61.5 -37t-47.5 -53.5t-27.5 -63 q-6 -33 0 -64z" />
<glyph unicode="&#x26;" horiz-adv-x="1366" d="M162.5 218q-17.5 81 7.5 192q14 68 45 124t74 103t96 86t115 76q-43 88 -57.5 168t10.5 188q16 78 58 141.5t101.5 108.5t133 69.5t155.5 24.5q74 0 132.5 -25.5t96 -69.5t52 -104.5t0.5 -130.5q-16 -72 -53 -130t-88.5 -107t-112 -92t-121.5 -84q43 -82 92 -157 t105 -136q59 66 108 135.5t92 142.5l211 -61q-55 -94 -117.5 -185.5t-140.5 -177.5q39 -43 86 -70.5t100 -29.5l-51 -237q-53 0 -92 5t-76 21.5t-75.5 47t-90.5 81.5q-92 -78 -195.5 -116.5t-213.5 -38.5q-104 0 -185 25.5t-132.5 78.5t-69 134zM438 422q-8 -41 1.5 -78 t33 -65.5t59 -45t78.5 -16.5q53 0 109.5 20.5t105.5 61.5q-143 135 -225 317q-61 -43 -103.5 -82.5t-58.5 -111.5zM688 1047.5q8 -60.5 31 -113.5q76 47 143.5 110.5t83.5 135.5q14 61 -8.5 106t-85.5 45q-43 0 -92.5 -40.5t-65.5 -116.5q-14 -66 -6 -126.5z" />
<glyph unicode="'" horiz-adv-x="454" d="M311 922l121 557h230l-121 -557h-230z" />
<glyph unicode="(" horiz-adv-x="681" d="M212 423.5q5 108.5 34 240.5q27 131 69.5 238.5t99 205.5t129 193.5t161.5 197.5h247q-193 -193 -310.5 -397.5t-166.5 -437.5q-51 -233 -22.5 -438.5t137.5 -397.5h-248q-43 102 -74.5 196.5t-46 192.5t-9.5 206.5z" />
<glyph unicode=")" horiz-adv-x="681" d="M14 -172q193 193 310.5 397.5t169.5 438.5q49 233 20 438t-137 397h248q43 -102 74.5 -197.5t46 -193.5t9.5 -205.5t-32 -238.5q-29 -131 -71 -240t-99 -207t-130 -192.5t-161 -196.5h-248z" />
<glyph unicode="*" horiz-adv-x="1024" d="M379 1128l92 183l242 -140l10 11l2 297h203l-119 -299l8 -11l295 152l23 -184l-310 -47l172 -218l-178 -118l-78 272l-14 -2l-190 -268l-129 108l264 215l-2 13z" />
<glyph unicode="+" horiz-adv-x="1228" d="M172 422l47 221h422l92 422h221l-92 -422h422l-47 -221h-422l-90 -422h-221l90 422h-422z" />
<glyph unicode="," horiz-adv-x="624" d="M121 -307l172 307h-123l61 291h283l-61 -291l-199 -307h-133z" />
<glyph unicode="-" horiz-adv-x="681" d="M180 422l47 221h502l-47 -221h-502z" />
<glyph unicode="." horiz-adv-x="624" d="M170 0l61 291h283l-61 -291h-283z" />
<glyph unicode="/" horiz-adv-x="569" d="M-61 -20l788 1519h223l-790 -1519h-221z" />
<glyph unicode="0" d="M210 441q1 138 36 298q33 160 92 298.5t146 240.5t202 161.5t262 59.5t236.5 -59.5t131.5 -161.5t41 -240.5t-34 -298.5q-35 -160 -94.5 -298t-146.5 -240.5t-201.5 -161.5t-262.5 -59q-147 0 -236 59t-131 161.5t-41 240.5zM476 484q-3 -103 19.5 -165.5t66.5 -90 t106 -27.5q61 0 116.5 27.5t105.5 90t92 166t75 254.5q33 152 35 255.5t-19.5 166t-65.5 90t-106 27.5q-61 0 -117.5 -27.5t-105.5 -90t-91 -166t-75 -255.5t-36 -255z" />
<glyph unicode="1" d="M299 0l43 205h229l222 1020h-263l37 172q104 4 193.5 28.5t150.5 73.5h207l-280 -1294h227l-43 -205h-723z" />
<glyph unicode="2" d="M115 0l51 244q25 57 97.5 122.5t167.5 135t202.5 142.5t201 145.5t160 144.5t80.5 139q23 98 -24 151.5t-150 53.5q-111 0 -190.5 -65.5t-126.5 -168.5l-228 52q31 86 90.5 159.5t139.5 128t174 85t192 30.5t179 -27.5t135.5 -82t76 -133t-1.5 -183.5 q-29 -135 -108.5 -236.5t-196 -194.5t-264 -190.5t-313.5 -222.5h700l-49 -229h-995z" />
<glyph unicode="3" d="M121 266l237 121q35 -92 100.5 -139t172.5 -47q49 0 98 14t91 43t72 71t42 95q20 90 -13.5 140t-95 75t-138.5 30t-144 5l47 221q82 0 155.5 7t132 29.5t99.5 63.5t55 107q16 80 -33 128t-141 48q-94 0 -171 -44t-144 -104l-142 160q133 115 257 162t239 47 q100 0 184 -24.5t139.5 -72.5t79 -119t3.5 -165q-25 -111 -101 -191.5t-192 -127.5q123 -41 171 -138.5t19 -236.5q-25 -117 -88 -201t-149 -138t-185.5 -79.5t-197.5 -25.5q-158 0 -285 72.5t-174 213.5z" />
<glyph unicode="4" d="M121 340l57 260l821 879h289l-203 -934h209l-45 -205h-209l-71 -340h-254l71 340h-665zM371 545h460l144 659h-4z" />
<glyph unicode="5" d="M166 256l246 115q8 -39 30.5 -70t53 -52.5t67.5 -33.5t74 -12q141 -4 226 81t114 224q12 57 5 106.5t-31.5 86t-66.5 57t-100 20.5q-78 0 -143.5 -35.5t-108.5 -91.5l-202 41l225 787h799l-49 -230h-598l-95 -336q43 37 108.5 61.5t186.5 24.5q100 0 172 -43t115 -112.5 t56.5 -157.5t-7.5 -178q-27 -121 -83 -219.5t-139 -167t-193.5 -105t-243.5 -36.5q-176 0 -279.5 75.5t-138.5 200.5z" />
<glyph unicode="6" d="M215 355q-12 126 25 296q41 193 117.5 349.5t182 267t236.5 171t283 60.5q109 0 189.5 -28.5t152.5 -81.5l-162 -213q-39 41 -93 71.5t-134 30.5q-76 0 -150 -35t-137 -96.5t-111.5 -143t-68.5 -176.5q86 63 170 91t186 28q98 0 174 -34.5t123 -98t62.5 -152t-7.5 -194.5 q-25 -117 -85 -207t-143 -152.5t-186.5 -95t-213.5 -32.5q-117 0 -205 41.5t-140.5 124.5t-64.5 209zM475 395.5q10 -67.5 41 -110.5t78 -63.5t100 -20.5q106 0 186 69.5t105 186.5q27 123 -22.5 195.5t-174.5 72.5q-178 0 -303 -168q-20 -94 -10 -161.5z" />
<glyph unicode="7" d="M231 0l869 1249h-711l49 230h1014l-33 -154l-895 -1325h-293z" />
<glyph unicode="8" d="M158 381q35 154 135 250t250 155q-49 29 -86 62t-60.5 74t-30 92t8.5 116q18 84 67.5 153t124 117t172 73.5t209.5 25.5q227 0 339 -99.5t75 -269.5q-29 -131 -111 -207.5t-204 -136.5q61 -29 107 -67.5t74.5 -87.5t36 -111.5t-9.5 -138.5q-18 -90 -76.5 -165 t-143.5 -127t-192.5 -80.5t-224.5 -28.5t-211 28.5t-155.5 80.5t-87 127t-6.5 165zM428 399q-23 -98 36 -156.5t200 -58.5t224 58.5t105 156.5q10 49 -17.5 97.5t-69.5 86.5t-87 61.5t-69 23.5q-25 0 -74 -20.5t-99.5 -57.5t-93.5 -86t-55 -105zM641 1126q-10 -51 5.5 -92 t45 -70.5t64.5 -46t63 -16.5q29 0 72 20.5t86 52.5t76.5 71.5t42.5 80.5q16 74 -26 121t-169 47q-123 0 -183.5 -47t-76.5 -121z" />
<glyph unicode="9" d="M143 90l164 213q37 -41 92.5 -71.5t135.5 -30.5q76 0 149.5 34.5t136 96t109.5 143.5t69 176q-86 -63 -170 -91t-186 -28q-98 0 -174 35t-123 98.5t-62.5 151.5t7.5 195q25 117 84 207t143 152.5t187.5 95t214.5 32.5q117 0 204.5 -42t140 -125t64.5 -210t-24 -295 q-43 -195 -120 -351.5t-182.5 -267t-236.5 -169.5t-281 -59q-109 0 -188.5 28.5t-153.5 81.5zM561 1022q-29 -123 20.5 -195.5t174.5 -72.5q178 0 303 168q20 94 10 161.5t-40 110.5t-77 63.5t-100 20.5q-106 0 -186 -69.5t-105 -186.5z" />
<glyph unicode=":" horiz-adv-x="624" d="M170 0l61 291h283l-61 -291h-283zM301 614l64 291h282l-63 -291h-283z" />
<glyph unicode=";" horiz-adv-x="624" d="M121 -307l172 307h-123l61 291h283l-61 -291l-199 -307h-133zM301 614l64 291h282l-63 -291h-283z" />
<glyph unicode="&#x3c;" horiz-adv-x="1228" d="M176 438l41 189l1163 454l-49 -227l-831 -322l692 -321l-49 -227z" />
<glyph unicode="=" horiz-adv-x="1228" d="M123 197l49 221h1065l-49 -221h-1065zM221 647l47 221h1065l-47 -221h-1065z" />
<glyph unicode="&#x3e;" horiz-adv-x="1228" d="M78 -16l49 227l831 321l-692 322l49 227l967 -454l-41 -189z" />
<glyph unicode="?" horiz-adv-x="909" d="M268 0l62 291h282l-61 -291h-283zM274 1180q72 154 199 236.5t293 82.5q76 0 138.5 -21.5t104.5 -62.5t58 -102.5t-2 -141.5q-23 -102 -84 -174.5t-131 -138.5t-130.5 -132.5t-78.5 -152.5l-16 -75h-226l25 112q18 88 75.5 164t123.5 146q63 70 118.5 134t69.5 130 q10 47 -22.5 78.5t-83.5 31.5q-37 0 -70 -16t-59.5 -42t-47 -57.5t-32.5 -64.5z" />
<glyph unicode="@" horiz-adv-x="1638" d="M245.5 434q-30.5 139 4.5 303q35 162 125 301.5t216 241.5t276.5 160.5t308.5 58.5q131 0 246.5 -44t195.5 -124t113.5 -194.5t3.5 -255.5q-25 -113 -72 -200t-107.5 -152.5t-128 -110.5t-130 -73t-115 -40t-82.5 -12q-43 0 -69.5 25.5t-16.5 78.5l-2 2 q-47 -43 -108.5 -74.5t-115.5 -31.5q-66 0 -118 28.5t-85.5 78t-46 115t4.5 136.5q20 92 68 179.5t116 155t153 108.5t179 41q74 0 129 -31t84 -96l45 102h180l-209 -500q-6 -16 -15 -35.5t-13 -37.5q-10 -45 18 -45q35 0 75 21.5t78.5 62t70.5 103t50 144.5 q27 123 7.5 217.5t-77 158t-147.5 96t-202 32.5q-125 0 -237 -45t-201 -124t-151.5 -186.5t-88.5 -234.5q-29 -135 -9.5 -242.5t81 -184.5t159.5 -117.5t225 -40.5q117 0 225.5 38.5t198.5 104.5h185q-139 -154 -308.5 -234.5t-355.5 -80.5q-158 0 -286 56t-211 157.5 t-113.5 240.5zM774 682q-16 -74 13.5 -123t101.5 -49q49 0 93 21.5t80 55.5t61.5 78t35.5 91q16 74 -16.5 121t-104.5 47q-47 0 -90 -19.5t-77.5 -52.5t-60.5 -77t-36 -93z" />
<glyph unicode="A" d="M27 0l745 1481h352l101 -1481h-281l-14 319h-467l-156 -319h-280zM575 553h345l-27 643h-4z" />
<glyph unicode="B" horiz-adv-x="1366" d="M160 0l319 1479h549q111 0 197 -19.5t142 -62.5q57 -43 79 -113q12 -39 12 -86q0 -38 -8 -82q-20 -117 -92 -203t-205 -133q66 -29 109 -62.5t63.5 -77.5t20.5 -105.5t-19 -145.5q-18 -86 -65.5 -157.5t-124 -123t-184 -80t-248.5 -28.5h-545zM492 229h282 q123 0 190.5 54.5t90.5 160.5q8 36 8 66q1 58 -29 94q-44 54 -168 55h-282zM633 889h282q102 0 164 51t78 129q5 23 5 44q0 49 -26 85q-38 51 -141 51h-282z" />
<glyph unicode="C" d="M221 739q39 180 109.5 322.5t167 239t218.5 147.5t263 51q213 0 317.5 -95t114.5 -294l-270 -61q-10 94 -63.5 153.5t-157.5 59.5q-141 0 -250 -130.5t-166 -392.5q-33 -144 -32 -249q0 -85 21 -143q48 -130 207 -130q47 0 89 10.5t82 35t80 66.5t87 107l246 -69 q-109 -193 -269.5 -290t-365.5 -97q-285 0 -395 198q-65 116 -65 288q0 122 32 273z" />
<glyph unicode="D" horiz-adv-x="1366" d="M160 0l319 1479h490q147 0 259.5 -42t181.5 -133q70 -90 88 -229q6 -42 5 -89q0 -109 -30 -247q-43 -197 -122 -336t-186.5 -229t-237.5 -132t-278 -42h-489zM494 238h188q121 0 208 40.5t146.5 110.5t95 161t58.5 189q20 97 24 189v19q0 81 -27 143q-30 70 -98.5 110.5 t-189.5 40.5h-188z" />
<glyph unicode="E" d="M172 0l320 1479h978l-51 -238h-696l-78 -352h506l-51 -238h-506l-88 -413h719l-51 -238h-1002z" />
<glyph unicode="F" horiz-adv-x="1138" d="M160 0l319 1479h942l-51 -238h-659l-78 -352h493l-51 -238h-493l-140 -651h-282z" />
<glyph unicode="G" horiz-adv-x="1366" d="M188 425q-2 24 -2 48q0 114 29 244q31 141 91.5 281.5t155.5 251t228 180t311 69.5q111 0 193 -28.5t137 -79t86 -119t39 -150.5l-276 -69q-29 111 -85.5 160t-166.5 49q-78 0 -144.5 -38t-121 -107.5t-95.5 -169t-67 -222.5q-25 -114 -25 -206q0 -94 27 -165 q53 -137 200 -137q70 0 130.5 21.5t109.5 60.5t83 93t50 118h-280l53 238h553l-162 -748h-205l33 152q-111 -98 -209 -135t-215 -37q-152 0 -250 56t-148 155.5t-57 233.5z" />
<glyph unicode="H" horiz-adv-x="1478" d="M172 0l320 1479h282l-129 -590h569l129 590h283l-319 -1479h-283l137 635h-569l-137 -635h-283z" />
<glyph unicode="I" horiz-adv-x="681" d="M199 0l319 1479h283l-320 -1479h-282z" />
<glyph unicode="J" horiz-adv-x="909" d="M27 178l227 146q23 -61 52.5 -84t76.5 -23q51 0 92 39t64 137l235 1086h283l-234 -1080q-45 -209 -169 -314t-322 -105q-117 0 -190.5 52t-114.5 146z" />
<glyph unicode="K" horiz-adv-x="1366" d="M160 0l319 1479h283l-144 -662h-4l641 662h326l-541 -555l289 -924h-313l-215 702l-264 -258l-95 -444h-282z" />
<glyph unicode="L" horiz-adv-x="1138" d="M160 0l319 1479h283l-268 -1241h643l-52 -238h-925z" />
<glyph unicode="M" horiz-adv-x="1705" d="M166 0l319 1479h398l61 -1033h4l510 1033h402l-320 -1479h-246l250 1163h-4l-582 -1163h-215l-77 1163h-4l-250 -1163h-246z" />
<glyph unicode="N" horiz-adv-x="1478" d="M166 0l319 1479h295l363 -1008h4l219 1008h266l-319 -1479h-273l-376 1053h-5l-227 -1053h-266z" />
<glyph unicode="O" horiz-adv-x="1366" d="M221 739q78 365 278.5 562.5t506.5 197.5q302 0 418 -199q69 -119 70 -296q0 -119 -32 -265q-78 -365 -279.5 -562t-506.5 -197q-303 0 -418 198q-69 118 -69 295q0 120 32 266zM498 347q53 -130 229 -130q174 0 285 130t168 392q28 133 28 232q0 97 -26 161 q-54 130 -228 130t-283.5 -130.5t-166.5 -392.5q-31 -138 -32 -239q1 -91 26 -153z" />
<glyph unicode="P" d="M139 0l320 1479h540q119 0 210 -26t147 -80q58 -54 76 -137q8 -35 7 -76q0 -56 -14 -122q-25 -115 -79 -198.5t-133.5 -137t-182 -79t-221.5 -25.5h-258l-129 -598h-283zM600 827h225q80 0 135.5 14.5t92.5 42t58.5 66.5t31.5 88q7 35 7 65q0 12 -1 23q-4 39 -28.5 67 t-74 42t-128.5 14h-226z" />
<glyph unicode="Q" horiz-adv-x="1366" d="M221 739q78 365 278.5 562.5t506.5 197.5q303 0 420 -199q69 -117 69 -293q0 -120 -33 -268q-74 -342 -266 -544q33 -31 75 -48.5t97 -19.5l-51 -238q-72 0 -116 7.5t-75.5 26t-58.5 50t-61 80.5q-143 -73 -325 -73h-5q-303 0 -418 198q-69 119 -69 295q0 120 32 266z M498 347q53 -130 229 -130q104 0 188 49q-23 47 -56.5 82t-92.5 47l55 252q106 -10 164.5 -58t97.5 -130q31 55 54.5 124.5t42.5 155.5q28 133 28 232q0 96 -26 161q-54 130 -228 130t-283.5 -130.5t-166.5 -392.5q-31 -138 -31 -239q0 -91 25 -153z" />
<glyph unicode="R" horiz-adv-x="1366" d="M160 0l319 1479h590q125 0 207 -34t126 -93.5t53 -139.5q3 -26 3 -54q0 -56 -12 -118q-29 -137 -118 -239.5t-234 -141.5l184 -659h-313l-150 602h-244l-129 -602h-282zM621 831h208q82 0 141.5 13.5t98.5 39t61.5 64.5t32.5 92q7 33 7 61q0 148 -199 148h-258z" />
<glyph unicode="S" d="M143 330l256 102q14 -53 35 -95t53.5 -73t77.5 -47t107 -16q53 0 100 10t86 33.5t65.5 61.5t39.5 91q4 19 4 36q0 49 -34 84q-46 48 -123 87t-167 76t-163.5 89t-113.5 127q-25 47 -25 109q0 37 9 80q20 98 76.5 176t133.5 130.5t169 80t189 27.5q180 0 298.5 -86 t151.5 -248l-276 -80q-14 86 -67.5 139.5t-154.5 53.5q-92 0 -160.5 -39t-86.5 -125q-3 -14 -3 -27q0 -45 37 -78q48 -42 124.5 -78t166.5 -73t163 -91t113 -134q24 -48 24 -109q0 -42 -11 -90q-49 -229 -209 -341.5t-407 -112.5q-90 0 -171 24.5t-143.5 69.5t-105.5 110.5 t-58 145.5z" />
<glyph unicode="T" horiz-adv-x="1138" d="M309 1243l51 238h1057l-51 -238h-387l-268 -1243h-283l268 1243h-387z" />
<glyph unicode="U" horiz-adv-x="1478" d="M278 282q-9 43 -8 93q0 79 21 178l201 926h282l-203 -938q-16 -75 -16 -131q-1 -79 31 -121q54 -72 198 -72q143 0 230.5 71.5t126.5 252.5l202 938h283l-201 -926q-35 -162 -105.5 -271.5t-162.5 -177t-201.5 -96t-222.5 -28.5t-209 28.5t-160 96t-86 177.5z" />
<glyph unicode="V" horiz-adv-x="1138" d="M340 1479h278l27 -1090h4l510 1090h279l-711 -1479h-315z" />
<glyph unicode="W" horiz-adv-x="1705" d="M350 0l10 1479h265l-31 -998h4l428 998h291l-23 -998h4l420 998h264l-626 -1479h-287l12 1053h-4l-440 -1053h-287z" />
<glyph unicode="X" horiz-adv-x="1138" d="M16 0l564 758l-220 721h308l123 -457l319 457h307l-530 -721l235 -758h-307l-137 502l-354 -502h-308z" />
<glyph unicode="Y" horiz-adv-x="1138" d="M340 1479h295l127 -586l381 586h295l-600 -889l-127 -590h-283l127 590z" />
<glyph unicode="Z" horiz-adv-x="1138" d="M33 0l51 240l907 1001h-643l51 238h1000l-49 -226l-934 -1015h721l-52 -238h-1052z" />
<glyph unicode="[" horiz-adv-x="681" d="M72 -152l354 1631h477l-26 -123h-256l-302 -1385h261l-27 -123h-481z" />
<glyph unicode="\" horiz-adv-x="569" d="M266 1499h223l132 -1519h-224z" />
<glyph unicode="]" horiz-adv-x="681" d="M59 -152l27 123h260l301 1385h-256l27 123h477l-354 -1631h-482z" />
<glyph unicode="^" horiz-adv-x="1228" d="M297 711l534 768h205l203 -768h-225l-129 538l-365 -538h-223z" />
<glyph unicode="_" horiz-adv-x="1024" d="M-55 -256l22 102h1022l-22 -102h-1022z" />
<glyph unicode="`" horiz-adv-x="569" d="M266 1499h316l127 -299h-209z" />
<glyph unicode="a" horiz-adv-x="1024" d="M87 156q-3 19 -3 38q0 33 8 68q41 182 211 281.5t490 136.5l20 90q4 17 4 31q1 39 -27 63q-38 33 -106 33q-90 0 -151.5 -40t-110.5 -91l-135 125q33 43 84 79t111 62q58 27 122 41q56 12 107 12h14q106 -2 180 -24.5t113 -72.5t45 -132q1 -15 1 -31q0 -73 -22 -170 l-108 -501q-10 -41 -14 -80q-2 -15 -2 -30q0 -23 4 -44h-248l2 92q-88 -53 -172 -82.5t-185 -29.5q-72 0 -120.5 23.5t-76.5 63t-35 89.5zM352 293q-4 -18 -4 -33q0 -36 20 -59q28 -33 81 -33q31 0 65.5 11t69 27.5t66.5 37t57 37.5l49 229q-66 -12 -132.5 -26.5t-123 -38 t-96 -60.5t-52.5 -92z" />
<glyph unicode="b" horiz-adv-x="1138" d="M131 0l320 1479h254l-111 -512h4q25 25 59.5 47t73.5 37.5t78 24.5t72 9q102 0 171.5 -45t108.5 -118.5t46 -167.5q2 -24 1 -50q0 -71 -14 -143q-27 -125 -77 -231.5t-120.5 -184t-159.5 -121.5t-196 -44q-86 0 -145.5 34.5t-112.5 100.5l-53 -115h-199zM444 279 q16 -16 30.5 -33t33 -30t45.5 -22.5t68 -9.5q115 0 195.5 89t117.5 259q17 80 17 142q0 70 -22 118q-42 90 -157 89q-61 0 -115.5 -28t-101.5 -62z" />
<glyph unicode="c" horiz-adv-x="1024" d="M164 532q27 127 80 229.5t129 174.5t170 110.5t202 38.5q152 0 247 -74.5t112 -209.5l-230 -82q-8 33 -18 62.5t-28.5 52t-49 35t-76.5 12.5q-106 0 -175.5 -84t-108.5 -265q-21 -97 -21 -166q-1 -59 15 -98q34 -84 147 -84q84 0 146.5 49.5t115.5 120.5l168 -108 q-109 -143 -222.5 -204.5t-260.5 -61.5q-217 2 -307 150q-56 92 -56 225q0 81 21 177z" />
<glyph unicode="d" horiz-adv-x="1138" d="M163 330v22q0 97 23 209q20 98 69.5 192.5t119 168t159 118.5t191.5 45q66 0 135.5 -33.5t97.5 -84.5h5l110 512h254l-319 -1479h-215l12 115q-84 -66 -159 -100.5t-161 -34.5q-106 0 -175.5 44t-106.5 122t-40 184zM434 532q-17 -80 -17 -141q0 -70 22 -118 q42 -89 157 -89q41 0 71.5 9.5t55.5 22.5t46.5 29.5t43.5 33.5l111 512q-31 35 -73 62.5t-103 27.5q-115 0 -196 -89.5t-118 -259.5z" />
<glyph unicode="e" horiz-adv-x="1024" d="M144 304q-2 25 -2 52q0 82 22 176q27 127 80 228.5t129 174.5t170 111.5t202 38.5q104 0 176 -40.5t113 -108.5q40 -68 50 -156q3 -27 4 -56q0 -62 -15 -128l-22 -104h-643q-12 -63 -12 -111q0 -17 2 -31q6 -58 27 -95.5t57 -54t81 -16.5q90 0 147.5 36t116.5 91 l160 -114q-98 -115 -219 -166t-274 -51q-104 0 -179 38.5t-118 111t-53 174.5zM446 664h410q7 36 7 67q-1 64 -29 105q-42 61 -134 61t-159.5 -61.5t-94.5 -171.5z" />
<glyph unicode="f" horiz-adv-x="681" d="M172 0l184 860h-147l45 205h145l29 131q18 86 48 144.5t75 93t105.5 50t138.5 15.5h168l-45 -205h-70q-80 0 -117 -26.5t-51 -87.5l-25 -115h215l-45 -205h-215l-184 -860h-254z" />
<glyph unicode="g" horiz-adv-x="1024" d="M-4 -135q10 49 35.5 86t57.5 61.5t69 36.5t71 12v5q-16 12 -39.5 24t-44 30.5t-33.5 46.5q-6 15 -6 34q0 17 5 37q8 39 34.5 71.5t58.5 58t63.5 42t49.5 22.5q-53 53 -85 120q-20 39 -20 90q0 34 9 73q14 70 56 136.5t105.5 118.5t148.5 83.5t190 31.5q68 0 134.5 -25.5 t107.5 -68.5q91 94 251 94h19l-37 -172q-45 0 -90 -3t-80 -21q18 -35 26 -81q2 -15 2 -32q0 -35 -10 -76q-16 -76 -55 -138t-99.5 -108t-141 -72t-181.5 -26q-84 0 -143 -10t-70 -55q-6 -33 20.5 -48.5t75 -21.5t111 -9t127 -9t123.5 -19.5t102 -44t61 -81.5q10 -28 10 -64 q0 -31 -7 -68q-12 -57 -54 -113.5t-113 -101.5t-170 -72.5t-226 -27.5q-109 0 -192 16.5t-138 48t-78 78.5q-14 31 -14 69q0 20 4 42zM236 -102q-2 -11 -2 -21q0 -45 44 -69q54 -29 214 -29q61 0 106 13t74.5 31.5t45 39t19.5 35.5q4 18 -7 39.5t-44 40t-92.5 30.5 t-151.5 12q-53 0 -90 -13t-61.5 -31.5t-37.5 -40t-17 -37.5zM457 721q-5 -21 -5 -41q0 -48 28 -84q40 -51 122 -51q37 0 71 13t63.5 38t50 56.5t28.5 68.5q5 21 5 40q0 48 -30 85q-40 51 -112 51q-82 0 -143.5 -51t-77.5 -125z" />
<glyph unicode="h" horiz-adv-x="1138" d="M131 0l320 1479h254l-115 -529q70 49 155.5 92t180.5 43q160 0 217 -96q35 -59 35 -145q0 -53 -13 -115l-157 -729h-254l149 692q11 54 11 91q0 38 -12 58q-24 40 -89 40q-84 0 -152.5 -38t-109.5 -75l-166 -768h-254z" />
<glyph unicode="i" horiz-adv-x="569" d="M158 0l229 1065h254l-229 -1065h-254zM430 1262l51 237h254l-51 -237h-254z" />
<glyph unicode="j" horiz-adv-x="569" d="M-74 -373l45 207q20 -2 36 -4t44 -2q45 0 76 26.5t47 104.5l240 1106h254l-248 -1147q-35 -164 -122 -235.5t-245 -71.5q-39 0 -68.5 4t-58.5 12zM457 1262l51 237h254l-51 -237h-254z" />
<glyph unicode="k" horiz-adv-x="1024" d="M131 0l320 1479h254l-179 -826h9l401 412h291l-400 -397l193 -668h-270l-134 477l-161 -149l-70 -328h-254z" />
<glyph unicode="l" horiz-adv-x="569" d="M158 0l319 1479h254l-319 -1479h-254z" />
<glyph unicode="m" horiz-adv-x="1705" d="M131 0l229 1065h232l-25 -115q86 66 163 100.5t185 34.5q84 0 147.5 -38.5t82.5 -116.5q80 66 173 110.5t226 44.5q41 0 84 -14t74 -50q31 -37 43 -99q4 -23 5 -51q0 -46 -13 -105l-164 -766h-254l160 743q6 26 6 47q1 33 -13 54q-22 35 -90 37q-25 0 -55.5 -9.5t-62 -27 t-63.5 -38t-58 -40.5l-164 -766h-254l160 743q6 26 6 47q1 33 -13 54q-22 35 -90 37q-25 0 -55.5 -9.5t-62 -27t-63.5 -38t-58 -40.5l-164 -766h-254z" />
<glyph unicode="n" horiz-adv-x="1138" d="M131 0l229 1065h234l-25 -115q82 49 172 92t185 43q160 0 217 -96q35 -59 35 -145q0 -53 -13 -115l-157 -729h-254l149 692q11 54 11 91q0 38 -12 58q-24 40 -89 40q-84 0 -152.5 -38t-109.5 -75l-166 -768h-254z" />
<glyph unicode="o" horiz-adv-x="1024" d="M146 303q-3 27 -3 56q0 80 21 173q27 127 80 229.5t129 174.5t170 110.5t202 38.5q109 0 186 -38.5t122 -110.5t54 -174q2 -26 2 -55q0 -81 -19 -175q-29 -127 -82.5 -229t-129 -174t-170 -110.5t-202.5 -38.5q-109 0 -185.5 38.5t-120.5 110.5t-54 174zM412 268 q32 -84 139 -84q106 0 176 84t109 264q21 98 21 167q0 59 -15 97q-33 84 -140 85q-106 0 -175.5 -84t-108.5 -265q-21 -98 -21 -168q0 -58 15 -96z" />
<glyph unicode="p" horiz-adv-x="1138" d="M45 -389l315 1454h244l-20 -98q66 53 138.5 85.5t158.5 32.5q106 0 175.5 -44t106.5 -121.5t41 -183.5q1 -15 1 -29q0 -95 -23 -203q-23 -98 -71 -192.5t-118.5 -168t-160 -118.5t-191.5 -45q-66 0 -134.5 33.5t-96.5 84.5h-4l-107 -487h-254zM444 274q31 -35 73 -62.5 t104 -27.5q115 0 195.5 89t117.5 259q17 80 17 142q0 70 -22 118q-42 89 -157 89q-41 0 -71.5 -9.5t-55 -22.5t-46 -30.5t-44.5 -32.5z" />
<glyph unicode="q" horiz-adv-x="1138" d="M160 312q-2 25 -2 50q0 70 16 142q27 125 77 231.5t119.5 184t158.5 121.5t196 44q86 0 146.5 -34.5t113.5 -100.5l53 115h199l-315 -1454h-254l106 487h-4q-25 -25 -60.5 -47t-74.5 -37.5t-78 -24.5t-72 -9q-102 0 -171.5 45t-107.5 118.5t-46 168.5zM434 532 q-17 -80 -17 -141q0 -71 22 -118q42 -89 157 -89q61 0 115.5 28t101.5 62l111 512q-16 14 -30.5 32t-33 31t-45.5 22.5t-67 9.5q-115 0 -196 -89.5t-118 -259.5z" />
<glyph unicode="r" horiz-adv-x="681" d="M115 0l229 1065h234l-39 -182h4q66 96 146.5 147t195.5 55l-58 -268q-10 2 -20 2h-25q-47 0 -95 -23.5t-87 -53t-64.5 -57.5t-27.5 -38l-139 -647h-254z" />
<glyph unicode="s" horiz-adv-x="909" d="M86 195l197 127q33 -61 83 -107.5t132 -46.5q68 0 117 34t61 87q2 10 2 20q0 31 -26 53q-34 28 -88 51t-117.5 48.5t-113.5 64.5q-50 38 -77 98q-15 33 -15 78q0 34 9 74q16 74 57 132.5t98.5 97t125 59t137.5 20.5q106 0 197 -39.5t143 -121.5l-191 -140q-29 41 -72 77 t-102 36q-74 0 -115 -28.5t-51 -75.5q-2 -10 -2 -20q0 -32 26 -53q34 -28 88 -50.5t117.5 -46t114.5 -63.5t77 -102q14 -35 14 -80q0 -36 -9 -79q-18 -84 -60 -143.5t-103.5 -99.5t-137.5 -58t-160 -18q-129 0 -219 55t-137 160z" />
<glyph unicode="t" horiz-adv-x="681" d="M209 860l45 205h147l76 352h254l-76 -352h209l-45 -205h-209l-129 -602q-10 -43 9.5 -58.5t66.5 -15.5q29 0 60.5 7.5t60.5 13.5l-45 -209q-53 -6 -102.5 -11t-102.5 -5q-141 0 -187 66q-30 43 -30 107q0 33 8 72l137 635h-147z" />
<glyph unicode="u" horiz-adv-x="1138" d="M203 336l157 729h254l-149 -692q-11 -54 -11 -91q0 -38 12 -58q24 -40 89 -40q84 0 152.5 38t109.5 75l166 768h254l-229 -1065h-234l25 115q-82 -49 -173 -92t-186 -43q-160 0 -216 96q-34 59 -34 144q0 53 13 116z" />
<glyph unicode="v" horiz-adv-x="909" d="M250 1065h254l20 -721h4l336 721h254l-534 -1065h-267z" />
<glyph unicode="w" horiz-adv-x="1366" d="M250 1065h242l2 -664h4l297 664h235l4 -664h4l295 664h242l-504 -1065h-229l-15 664h-4l-299 -664h-229z" />
<glyph unicode="x" horiz-adv-x="909" d="M8 0l432 553l-190 512h280l86 -295l215 295h275l-410 -512l205 -553h-270l-107 332l-243 -332h-273z" />
<glyph unicode="y" horiz-adv-x="909" d="M-61 -381l45 209q27 -6 50 -7t52 -1q66 0 110 19.5t76 64.5q29 39 45.5 65.5t24.5 59.5q6 29 2 61.5t-8 65.5l-88 909h256l35 -655h4l323 655h254l-567 -1067q-61 -117 -117.5 -191.5t-114 -118.5t-122 -60.5t-142.5 -16.5q-45 0 -70.5 2t-47.5 6z" />
<glyph unicode="z" horiz-adv-x="909" d="M37 0l39 180l659 680h-471l45 205h789l-39 -180l-660 -680h516l-43 -205h-835z" />
<glyph unicode="{" horiz-adv-x="681" d="M145 602l27 123q61 0 109.5 36t62.5 97l86 397q29 127 115 185.5t200 58.5h146l-27 -123h-100q-43 0 -70.5 -30.5t-38.5 -71.5l-84 -389q-23 -102 -68.5 -150.5t-133.5 -68.5l-2 -4q80 -20 105.5 -68.5t2.5 -151.5l-84 -389q-10 -41 5.5 -71.5t58.5 -30.5h100l-27 -123 h-145q-57 0 -102 14.5t-73 44t-38 75.5t4 110l86 397q14 61 -19.5 97t-95.5 36z" />
<glyph unicode="|" horiz-adv-x="454" d="M111 -20l329 1519h222l-330 -1519h-221z" />
<glyph unicode="}" horiz-adv-x="681" d="M76 -172l26 123h101q43 0 70.5 30.5t37.5 71.5l84 389q23 102 70 150.5t133 69.5l2 4q-78 20 -104.5 68t-3.5 151l83 389q10 41 -5 71.5t-58 30.5h-100l26 123h146q57 0 102 -14.5t72.5 -44t38 -75.5t-3.5 -110l-86 -397q-14 -61 19.5 -97t94.5 -36l-26 -123 q-61 0 -109.5 -36t-62.5 -97l-86 -397q-29 -127 -115 -185.5t-201 -58.5h-145z" />
<glyph unicode="~" horiz-adv-x="1228" d="M258 532q23 33 52.5 65t65.5 56.5t79 40t94 15.5q57 0 113.5 -21.5t108.5 -48.5t99.5 -48.5t85.5 -21.5q31 0 58.5 13.5t54.5 34t51.5 47t46.5 53.5l33 -185q-29 -33 -60.5 -64.5t-68.5 -57t-81 -41t-95 -15.5q-72 0 -120 31t-101 61q-37 20 -78 35t-96 15 q-37 0 -67 -13.5t-56.5 -34t-48 -47t-39.5 -53.5z" />
<glyph unicode="&#xa1;" horiz-adv-x="681" d="M111 -369l264 979h196l-157 -979h-303zM377 819l63 291h283l-64 -291h-282z" />
<glyph unicode="&#xa2;" d="M231 -256l172 297q-96 63 -126.5 190t6.5 301q27 127 81 229.5t128.5 174.5t169 110.5t202.5 38.5q72 0 131 -16l125 217h119l-149 -262q117 -74 133 -223l-230 -82q-4 25 -11 46t-17 42l-353 -612q14 -6 30.5 -8.5t35.5 -2.5q84 0 146.5 49.5t115.5 120.5l168 -108 q-109 -143 -222.5 -206t-260.5 -60q-66 0 -127 16l-148 -252h-119zM498.5 366.5q5.5 -67.5 29.5 -108.5l355 614q-25 8 -62 9q-106 0 -186 -84t-119 -265q-23 -98 -17.5 -165.5z" />
<glyph unicode="&#xa3;" d="M100 -20l56 253q57 4 101 34t74.5 72t49 91t29.5 94q6 31 10 60.5t6 58.5h-195l43 193h166q2 59 7.5 121.5t21.5 134.5q43 199 179 303t360 104q205 0 295 -116.5t47 -319.5h-246q4 49 1 88t-20.5 67.5t-50.5 44t-88 15.5q-49 0 -86 -18.5t-62.5 -48t-43 -67.5t-25.5 -79 q-14 -66 -16 -118t2 -111h266l-43 -193h-238q-6 -35 -19 -80t-29.5 -93t-37 -92t-43.5 -75q51 -35 102.5 -60.5t121.5 -25.5q53 0 88 20.5t58.5 53.5t37.5 74t27 81h245q-20 -96 -60 -180t-96.5 -148.5t-129 -101t-160.5 -36.5q-74 0 -128 8t-97 23.5t-82 40t-82 54.5 q-59 -55 -141 -93t-175 -33z" />
<glyph unicode="&#xa4;" d="M164 336l129 106q-31 66 -39 140.5t10 156.5q16 82 57 157t101 140l-84 107l156 131l90 -105q72 41 151.5 66t161.5 25t150.5 -25t121.5 -66l136 105l98 -131l-129 -107q31 -66 39 -140.5t-8 -156.5q-18 -82 -59.5 -156.5t-100.5 -140.5l84 -106l-156 -131l-90 104 q-72 -41 -150.5 -65.5t-160.5 -24.5t-151.5 24.5t-123.5 65.5l-135 -104zM493 618q9 -55 38.5 -96t77.5 -63.5t110 -22.5q61 0 118.5 22.5t104.5 63.5t81 96.5t48 120.5q14 66 4 121t-38.5 96t-77 63.5t-109.5 22.5t-119.5 -22.5t-105.5 -63.5t-80 -96t-47 -121t-5 -121z " />
<glyph unicode="&#xa5;" d="M227 414l43 192h361l-41 139h-291l43 193h195l-160 541h254l176 -635l453 635h253l-393 -541h193l-43 -193h-289l-100 -139h360l-43 -192h-369l-88 -414h-233l88 414h-369z" />
<glyph unicode="&#xa6;" horiz-adv-x="454" d="M111 -20l125 577h221l-125 -577h-221zM315 922l125 577h222l-125 -577h-222z" />
<glyph unicode="&#xa7;" horiz-adv-x="1024" d="M182 2l162 109q20 -45 55 -80t90 -35q53 0 92.5 23.5t51.5 78.5q10 47 -16.5 99.5t-71.5 108.5t-98.5 115.5t-96.5 121t-67.5 125t-10.5 127.5q10 49 37 92t64 73.5t82 49t94 22.5q-35 55 -49.5 106.5t2.5 123.5q12 55 41.5 99t72.5 74.5t97.5 47t113.5 16.5 q55 0 96.5 -8t74 -26.5t61 -50.5t59.5 -79l-164 -112q-25 39 -58.5 73.5t-86.5 34.5q-41 0 -76 -24.5t-43 -61.5q-8 -41 18.5 -88t70.5 -100t96.5 -110.5t94.5 -120t64.5 -128t7.5 -135.5q-8 -35 -26.5 -70.5t-51 -68.5t-80.5 -58.5t-114 -35.5q35 -49 52.5 -109.5 t0.5 -130.5q-14 -63 -49 -112.5t-82 -82t-104.5 -50t-116.5 -17.5q-102 0 -172 50t-117 124zM471 815q-6 -27 16.5 -70t79.5 -120q117 -156 172 -156q41 0 71 22.5t38 59.5t-20.5 82t-82.5 119q-66 88 -101.5 116.5t-68.5 28.5q-35 0 -65.5 -23.5t-38.5 -58.5z" />
<glyph unicode="&#xa8;" horiz-adv-x="569" d="M229 1221l54 237h245l-53 -237h-246zM618 1221l54 237h246l-54 -237h-246z" />
<glyph unicode="&#xa9;" horiz-adv-x="1638" d="M191.5 420q-33.5 141 5.5 319t134 319.5t224 240t281.5 149.5t306.5 51t283.5 -51t217 -149.5t122 -239.5t-4.5 -320q-39 -178 -134 -319t-225 -239.5t-282.5 -149.5t-306.5 -51t-284 51t-217 149.5t-120.5 239.5zM388 491.5q22 -112.5 83 -193.5t157.5 -126t217.5 -45 q119 0 234.5 45t212 126t167 193.5t101.5 247.5q29 135 7 248t-84.5 194t-158.5 126t-215 45q-121 0 -236.5 -45t-212 -126t-166 -194t-98.5 -248q-31 -135 -9 -247.5zM574.5 570q-13.5 81 7.5 175q20 94 67 176.5t114.5 140.5t154 92t184.5 34q137 0 220 -79t75 -232h-176 q2 72 -45.5 101.5t-112.5 29.5q-100 0 -169 -70t-93 -188q-25 -115 16 -191t137 -76q76 0 132.5 34t80.5 108h185q-31 -78 -78 -138.5t-104.5 -101.5t-123 -61.5t-131.5 -20.5q-96 0 -167.5 34t-115.5 93t-57.5 140z" />
<glyph unicode="&#xaa;" horiz-adv-x="614" d="M229 1006q25 111 132.5 169t306.5 80l10 48q14 66 -76 65q-59 0 -97 -16.5t-67 -44.5l-90 75q20 25 53 47.5t72 38t80 23.5t78 8q70 -2 117 -15.5t73.5 -43t30.5 -78.5t-10 -121l-66 -301q-6 -25 -8 -47.5t2 -44.5h-172l2 57q-49 -33 -102.5 -51t-118.5 -18 q-94 0 -129 52t-21 118zM410 1024q-12 -57 55 -57q41 0 85 14t66 35l29 137q-39 -6 -78 -15.5t-71.5 -22.5t-55 -35.5t-30.5 -55.5z" />
<glyph unicode="&#xab;" horiz-adv-x="1138" d="M236 526l317 334h229l-323 -334l182 -321h-229zM653 526l318 334h229l-323 -334l182 -321h-230z" />
<glyph unicode="&#xac;" horiz-adv-x="1228" d="M221 647l47 221h1065l-145 -671h-221l98 450h-844z" />
<glyph unicode="&#xad;" horiz-adv-x="681" d="M180 422l47 221h502l-47 -221h-502z" />
<glyph unicode="&#xae;" horiz-adv-x="1638" d="M191.5 420q-33.5 141 5.5 319t134 319.5t224 240t281.5 149.5t306.5 51t283.5 -51t217 -149.5t122 -239.5t-4.5 -320q-39 -178 -134 -319t-225 -239.5t-282.5 -149.5t-306.5 -51t-284 51t-217 149.5t-120.5 239.5zM388 491.5q22 -112.5 83 -193.5t157.5 -126t217.5 -45 q119 0 234.5 45t212 126t167 193.5t101.5 247.5q29 135 7 248t-84.5 194t-158.5 126t-215 45q-121 0 -236.5 -45t-212 -126t-166 -194t-98.5 -248q-31 -135 -9 -247.5zM580 324l180 833h313q162 0 239 -54t46 -198q-25 -117 -96.5 -166t-180.5 -55l140 -360h-183l-118 350 h-84l-76 -350h-180zM864 813h158q74 0 111.5 32t48.5 79q12 57 -23 75.5t-100 18.5h-150z" />
<glyph unicode="&#xaf;" horiz-adv-x="569" d="M203 1266l33 151h708l-33 -151h-708z" />
<glyph unicode="&#xb0;" horiz-adv-x="819" d="M376 1091.5q-11 53.5 1 114.5t47 114.5t83 93.5t106.5 62.5t119.5 22.5t109.5 -22.5t79 -62.5t42 -93t-0.5 -115q-12 -61 -47 -114.5t-83.5 -93.5t-107 -62.5t-119.5 -22.5t-109 22.5t-79 62.5t-42 93.5zM506 1140.5q6 -30.5 22.5 -53t43 -37t61.5 -14.5q33 0 65.5 14.5 t59 37t46 53t27.5 65.5q14 68 -21.5 119t-102.5 51q-35 0 -67 -14t-58.5 -36.5t-46 -54.5t-27.5 -65q-8 -35 -2 -65.5z" />
<glyph unicode="&#xb1;" horiz-adv-x="1228" d="M82 0l47 221h1065l-47 -221h-1065zM205 573l47 222h422l59 270h221l-59 -270h422l-47 -222h-422l-60 -272h-221l60 272h-422z" />
<glyph unicode="&#xb2;" horiz-adv-x="749" d="M170 598l31 147q14 35 60 74t107.5 81t129 85t126 85t100.5 83t50 78q25 121 -110 121q-72 0 -123.5 -39t-79.5 -99l-148 31q20 55 58.5 101.5t89.5 80t111.5 53t125.5 19.5q63 0 116.5 -16.5t89.5 -49t50.5 -80.5t1.5 -110q-18 -80 -68 -141.5t-124 -116.5t-166 -111.5 t-192 -128.5h442l-31 -147h-647z" />
<glyph unicode="&#xb3;" horiz-adv-x="749" d="M190 772l156 72q23 -53 66 -82t112 -29q63 0 117.5 34t69.5 99q10 49 -11.5 77t-59.5 41t-86 16.5t-91 3.5l29 135q51 0 97 4t82 16t59.5 35t31.5 57q10 43 -19.5 72t-89.5 29q-61 0 -110 -27t-92 -61l-95 98q88 78 166 107.5t170 29.5q133 0 206 -57.5t48 -169.5 q-16 -68 -63 -116t-121 -75l-2 -4q82 -23 114.5 -81t14.5 -142q-14 -70 -55 -120t-96.5 -83t-120 -49t-128.5 -16q-102 0 -185 46t-114 140z" />
<glyph unicode="&#xb4;" horiz-adv-x="569" d="M377 1200l258 299h315l-364 -299h-209z" />
<glyph unicode="&#xb5;" horiz-adv-x="1138" d="M45 -389l315 1454h254l-149 -692q-23 -109 0.5 -149t89.5 -40q84 0 152.5 38t109.5 75l166 768h254l-229 -1065h-234l25 115q-82 -49 -173 -92t-186 -43q-16 0 -30.5 1t-28.5 3l-82 -373h-254z" />
<glyph unicode="&#xb6;" horiz-adv-x="1269" d="M285 1110q25 109 77 180.5t121.5 113.5t150.5 58.5t161 16.5h725l-37 -172h-150l-313 -1446h-209l313 1446h-182l-313 -1446h-209l192 895q-182 0 -272 94t-55 260z" />
<glyph unicode="&#xb7;" horiz-adv-x="624" d="M270 532q14 63 67.5 109.5t117.5 46.5q66 0 103.5 -45t23.5 -111q-8 -33 -26.5 -61.5t-45.5 -49t-58.5 -32.5t-64.5 -12q-66 0 -98.5 45t-18.5 110z" />
<glyph unicode="&#xb8;" horiz-adv-x="569" d="M-45 -416l53 86q23 -10 66 -21t86 -11q51 0 82.5 16t42.5 70q8 39 -16.5 51t-57.5 12q-23 0 -47.5 -4t-40.5 -8l-33 41l162 184h108l-116 -129q20 4 38.5 7t36.5 3q35 0 66 -9t51.5 -27.5t28.5 -48t0 -70.5q-10 -51 -42 -88t-75 -60.5t-92 -35t-92 -11.5 q-59 0 -110.5 15.5t-98.5 37.5z" />
<glyph unicode="&#xb9;" horiz-adv-x="749" d="M283 598l28 135h138l126 590h-157l24 115q66 4 124.5 18t99.5 43h137l-166 -766h143l-28 -135h-469z" />
<glyph unicode="&#xba;" horiz-adv-x="614" d="M258 1167q33 154 132 243t241 89q141 0 200.5 -89t26.5 -243q-35 -154 -132 -242.5t-239 -88.5q-141 0 -202.5 88.5t-26.5 242.5zM434 1167q-45 -201 82 -200q121 -1 166 200q41 201 -80 201q-127 0 -168 -201z" />
<glyph unicode="&#xbb;" horiz-adv-x="1138" d="M166 205l323 334l-182 321h230l176 -321l-318 -334h-229zM584 205l323 334l-182 321h229l176 -321l-317 -334h-229z" />
<glyph unicode="&#xbc;" horiz-adv-x="1875" d="M303 598l29 135h137l127 590h-158l25 115q66 4 124 18t99 43h137l-166 -766h144l-29 -135h-469zM426 -20l1176 1519h180l-1174 -1519h-182zM1128 205l37 172l504 512h211l-119 -549h129l-28 -135h-129l-43 -205h-189l43 205h-416zM1313 340h260l80 360h-4z" />
<glyph unicode="&#xbd;" horiz-adv-x="1875" d="M303 598l29 135h137l127 590h-158l25 115q66 4 124 18t99 43h137l-166 -766h144l-29 -135h-469zM393 -20l1176 1519h180l-1174 -1519h-182zM1090 0l30 147q14 35 60.5 74t107 81t128 85t127 85t100 83t49.5 78q25 121 -109 121q-72 0 -123 -39t-80 -99l-147 31 q18 55 57 101.5t90.5 80t111.5 53t126 19.5q63 0 116.5 -16.5t89.5 -49t50 -80.5t2 -110q-18 -80 -68.5 -141.5t-124 -116.5t-166 -111.5t-192.5 -128.5h442l-30 -147h-647z" />
<glyph unicode="&#xbe;" horiz-adv-x="1875" d="M223 772l156 72q23 -53 65.5 -82t112.5 -29q63 0 117.5 34t68.5 99q10 49 -11 77t-59 41t-86 16.5t-91 3.5l28 135q51 0 97.5 4t82 16t59 35t32.5 57q10 43 -20 72t-89 29q-61 0 -110.5 -27t-92.5 -61l-94 98q88 78 166 107.5t170 29.5q133 0 206 -57.5t48 -169.5 q-16 -68 -63.5 -116t-120.5 -75l-2 -4q82 -23 114.5 -81t14.5 -142q-14 -70 -55.5 -120t-96.5 -83t-119.5 -49t-128.5 -16q-102 0 -185 46t-114 140zM455 -20l1175 1519h180l-1173 -1519h-182zM1128 205l37 172l504 512h211l-119 -549h129l-28 -135h-129l-43 -205h-189 l43 205h-416zM1313 340h260l80 360h-4z" />
<glyph unicode="&#xbf;" horiz-adv-x="909" d="M79.5 -202.5q-16.5 61.5 2.5 141.5q23 102 84 174.5t131 138.5t130 132.5t79 152.5l16 75h226l-25 -112q-18 -88 -75.5 -164t-121.5 -146q-66 -70 -120 -134t-68 -130q-10 -47 21.5 -78.5t82.5 -31.5q37 0 70 16t59.5 42t47 57.5t32.5 64.5l221 -66 q-72 -154 -198.5 -236.5t-292.5 -82.5q-76 0 -138.5 21.5t-104.5 62.5t-58.5 102.5zM535 819l63 291h283l-64 -291h-282z" />
<glyph unicode="&#xc0;" d="M27 0l745 1481h352l101 -1481h-281l-14 319h-467l-156 -319h-280zM575 553h345l-27 643h-4zM686 1859h316l127 -299h-209z" />
<glyph unicode="&#xc1;" d="M27 0l745 1481h352l101 -1481h-281l-14 319h-467l-156 -319h-280zM575 553h345l-27 643h-4zM797 1560l258 299h315l-364 -299h-209z" />
<glyph unicode="&#xc2;" d="M27 0l745 1481h352l101 -1481h-281l-14 319h-467l-156 -319h-280zM575 553h345l-27 643h-4zM602 1560l297 299h254l170 -299h-231l-92 168l-168 -168h-230z" />
<glyph unicode="&#xc3;" d="M27 0l745 1481h352l101 -1481h-281l-14 319h-467l-156 -319h-280zM575 553h345l-27 643h-4zM592 1577q16 47 44 92t63.5 79.5t81 56t98.5 21.5q41 0 80 -12t72.5 -25.5t63.5 -25.5t54 -12q37 0 68.5 26.5t48.5 61.5h133q-20 -47 -47 -92.5t-60.5 -80t-76.5 -56t-99 -21.5 q-39 0 -76.5 11t-73.5 24.5t-70 24.5t-64 11q-41 0 -67 -24.5t-46 -58.5h-127z" />
<glyph unicode="&#xc4;" d="M27 0l745 1481h352l101 -1481h-281l-14 319h-467l-156 -319h-280zM575 553h345l-27 643h-4zM649 1581l54 237h245l-53 -237h-246zM1038 1581l54 237h246l-54 -237h-246z" />
<glyph unicode="&#xc5;" d="M27 0l745 1481h352l101 -1481h-281l-14 319h-467l-156 -319h-280zM575 553h345l-27 643h-4zM789 1779q10 45 35.5 86t62.5 71t81 47t91 17q45 0 82 -17t60.5 -47t31.5 -71t-2 -86q-10 -47 -35.5 -87t-61.5 -69.5t-81 -47t-90 -17.5q-92 0 -142 64.5t-32 156.5zM899 1779 q-10 -47 15.5 -78.5t72.5 -31.5t85 31.5t48 78.5t-14 79t-72 32q-47 0 -86 -32t-49 -79z" />
<glyph unicode="&#xc6;" horiz-adv-x="1933" d="M14 0l1063 1479h1075l-51 -238h-620l-78 -352h430l-51 -238h-430l-88 -413h643l-52 -238h-925l74 346h-451l-238 -346h-301zM721 584h334l149 690h-4z" />
<glyph unicode="&#xc7;" d="M221 739q39 180 109.5 322.5t167 239t218.5 147.5t263 51q213 0 317.5 -95t114.5 -294l-270 -61q-10 94 -63.5 153.5t-157.5 59.5q-141 0 -250 -130.5t-166 -392.5q-59 -262 -11 -392t207 -130q47 0 89 10.5t82 35t80 66.5t87 107l246 -69q-109 -193 -269.5 -290 t-365.5 -97q-285 0 -395.5 197.5t-32.5 561.5zM315 -416l53 86q23 -10 66 -21t86 -11q51 0 82.5 16t42.5 70q8 39 -16.5 51t-57.5 12q-23 0 -47.5 -4t-40.5 -8l-33 41l162 184h108l-116 -129q20 4 38.5 7t36.5 3q35 0 66 -9t51.5 -27.5t28.5 -48t0 -70.5q-10 -51 -42 -88 t-75 -60.5t-92 -35t-92 -11.5q-59 0 -110.5 15.5t-98.5 37.5z" />
<glyph unicode="&#xc8;" d="M172 0l320 1479h978l-51 -238h-696l-78 -352h506l-51 -238h-506l-88 -413h719l-51 -238h-1002zM725 1859h316l127 -299h-209z" />
<glyph unicode="&#xc9;" d="M172 0l320 1479h978l-51 -238h-696l-78 -352h506l-51 -238h-506l-88 -413h719l-51 -238h-1002zM836 1560l258 299h315l-364 -299h-209z" />
<glyph unicode="&#xca;" d="M172 0l320 1479h978l-51 -238h-696l-78 -352h506l-51 -238h-506l-88 -413h719l-51 -238h-1002zM641 1560l297 299h254l170 -299h-231l-92 168l-168 -168h-230z" />
<glyph unicode="&#xcb;" d="M172 0l320 1479h978l-51 -238h-696l-78 -352h506l-51 -238h-506l-88 -413h719l-51 -238h-1002zM688 1581l54 237h245l-53 -237h-246zM1077 1581l54 237h246l-54 -237h-246z" />
<glyph unicode="&#xcc;" horiz-adv-x="681" d="M199 0l319 1479h283l-320 -1479h-282zM395 1859h316l127 -299h-209z" />
<glyph unicode="&#xcd;" horiz-adv-x="681" d="M199 0l319 1479h283l-320 -1479h-282zM506 1560l258 299h315l-364 -299h-209z" />
<glyph unicode="&#xce;" horiz-adv-x="681" d="M199 0l319 1479h283l-320 -1479h-282zM311 1560l297 299h254l170 -299h-231l-92 168l-168 -168h-230z" />
<glyph unicode="&#xcf;" horiz-adv-x="681" d="M199 0l319 1479h283l-320 -1479h-282zM358 1581l54 237h245l-53 -237h-246zM747 1581l54 237h246l-54 -237h-246z" />
<glyph unicode="&#xd0;" horiz-adv-x="1366" d="M160 0l137 635h-137l53 254h137l129 590h490q147 0 259.5 -42t181.5 -132.5t87.5 -229.5t-24.5 -336t-122 -336t-186.5 -229t-237.5 -132t-278 -42h-489zM494 238h188q121 0 208 40.5t146.5 110.5t95 161t58.5 189q20 98 23.5 189.5t-26.5 161t-98.5 110.5t-189.5 41 h-188l-78 -352h305l-53 -254h-305z" />
<glyph unicode="&#xd1;" horiz-adv-x="1478" d="M166 0l319 1479h295l363 -1008h4l219 1008h266l-319 -1479h-273l-376 1053h-5l-227 -1053h-266zM704 1577q16 47 44 92t63.5 79.5t81 56t98.5 21.5q41 0 80 -12t72.5 -25.5t63.5 -25.5t54 -12q37 0 68.5 26.5t48.5 61.5h133q-20 -47 -47 -92.5t-60.5 -80t-76.5 -56 t-99 -21.5q-39 0 -76.5 11t-73.5 24.5t-70 24.5t-64 11q-41 0 -67 -24.5t-46 -58.5h-127z" />
<glyph unicode="&#xd2;" horiz-adv-x="1366" d="M221 739q78 365 278.5 562.5t506.5 197.5q303 0 418.5 -199t37.5 -561q-78 -365 -279.5 -562t-506.5 -197q-303 0 -418 198.5t-37 560.5zM498 347q53 -130 229 -130q174 0 285 130t168 392q55 262 1.5 392.5t-227.5 130.5t-283.5 -130.5t-166.5 -392.5q-59 -262 -6 -392z M743 1859h316l127 -299h-209z" />
<glyph unicode="&#xd3;" horiz-adv-x="1366" d="M221 739q78 365 278.5 562.5t506.5 197.5q303 0 418.5 -199t37.5 -561q-78 -365 -279.5 -562t-506.5 -197q-303 0 -418 198.5t-37 560.5zM498 347q53 -130 229 -130q174 0 285 130t168 392q55 262 1.5 392.5t-227.5 130.5t-283.5 -130.5t-166.5 -392.5q-59 -262 -6 -392z M854 1560l258 299h315l-364 -299h-209z" />
<glyph unicode="&#xd4;" horiz-adv-x="1366" d="M221 739q78 365 278.5 562.5t506.5 197.5q303 0 418.5 -199t37.5 -561q-78 -365 -279.5 -562t-506.5 -197q-303 0 -418 198.5t-37 560.5zM498 347q53 -130 229 -130q174 0 285 130t168 392q55 262 1.5 392.5t-227.5 130.5t-283.5 -130.5t-166.5 -392.5q-59 -262 -6 -392z M659 1560l297 299h254l170 -299h-231l-92 168l-168 -168h-230z" />
<glyph unicode="&#xd5;" horiz-adv-x="1366" d="M221 739q78 365 278.5 562.5t506.5 197.5q303 0 418.5 -199t37.5 -561q-78 -365 -279.5 -562t-506.5 -197q-303 0 -418 198.5t-37 560.5zM498 347q53 -130 229 -130q174 0 285 130t168 392q55 262 1.5 392.5t-227.5 130.5t-283.5 -130.5t-166.5 -392.5q-59 -262 -6 -392z M649 1577q16 47 44 92t63.5 79.5t81 56t98.5 21.5q41 0 80 -12t72.5 -25.5t63.5 -25.5t54 -12q37 0 68.5 26.5t48.5 61.5h133q-20 -47 -47 -92.5t-60.5 -80t-76.5 -56t-99 -21.5q-39 0 -76.5 11t-73.5 24.5t-70 24.5t-64 11q-41 0 -67 -24.5t-46 -58.5h-127z" />
<glyph unicode="&#xd6;" horiz-adv-x="1366" d="M221 739q78 365 278.5 562.5t506.5 197.5q303 0 418.5 -199t37.5 -561q-78 -365 -279.5 -562t-506.5 -197q-303 0 -418 198.5t-37 560.5zM498 347q53 -130 229 -130q174 0 285 130t168 392q55 262 1.5 392.5t-227.5 130.5t-283.5 -130.5t-166.5 -392.5q-59 -262 -6 -392z M706 1581l54 237h245l-53 -237h-246zM1095 1581l54 237h246l-54 -237h-246z" />
<glyph unicode="&#xd7;" horiz-adv-x="1228" d="M115 160l456 375l-292 374l190 156l295 -373l455 373l124 -156l-456 -374l293 -375l-191 -160l-295 377l-454 -377z" />
<glyph unicode="&#xd8;" horiz-adv-x="1366" d="M-51 -135l297 338q-98 195 -25 536q78 365 278.5 562.5t506.5 197.5q195 0 311 -86l127 148h235l-245 -279q102 -197 28 -543q-78 -365 -279.5 -562t-506.5 -197q-203 0 -316 88l-180 -203h-231zM473 463l657 741q-63 57 -176 58q-174 0 -284.5 -130.5t-165.5 -392.5 q-18 -84 -26.5 -153.5t-4.5 -122.5zM547 279q63 -61 180 -62q174 0 284.5 130t168.5 392q37 172 24 283z" />
<glyph unicode="&#xd9;" horiz-adv-x="1478" d="M278.5 281.5q-22.5 109.5 12.5 271.5l201 926h282l-203 -938q-39 -180 15.5 -252t197.5 -72t230.5 71.5t126.5 252.5l202 938h283l-201 -926q-35 -162 -105.5 -271.5t-162.5 -177t-201.5 -96t-222.5 -28.5t-209 28.5t-159.5 96t-86 177zM792 1859h316l127 -299h-209z" />
<glyph unicode="&#xda;" horiz-adv-x="1478" d="M278.5 281.5q-22.5 109.5 12.5 271.5l201 926h282l-203 -938q-39 -180 15.5 -252t197.5 -72t230.5 71.5t126.5 252.5l202 938h283l-201 -926q-35 -162 -105.5 -271.5t-162.5 -177t-201.5 -96t-222.5 -28.5t-209 28.5t-159.5 96t-86 177zM903 1560l258 299h315l-364 -299 h-209z" />
<glyph unicode="&#xdb;" horiz-adv-x="1478" d="M278.5 281.5q-22.5 109.5 12.5 271.5l201 926h282l-203 -938q-39 -180 15.5 -252t197.5 -72t230.5 71.5t126.5 252.5l202 938h283l-201 -926q-35 -162 -105.5 -271.5t-162.5 -177t-201.5 -96t-222.5 -28.5t-209 28.5t-159.5 96t-86 177zM708 1560l297 299h254l170 -299 h-231l-92 168l-168 -168h-230z" />
<glyph unicode="&#xdc;" horiz-adv-x="1478" d="M278.5 281.5q-22.5 109.5 12.5 271.5l201 926h282l-203 -938q-39 -180 15.5 -252t197.5 -72t230.5 71.5t126.5 252.5l202 938h283l-201 -926q-35 -162 -105.5 -271.5t-162.5 -177t-201.5 -96t-222.5 -28.5t-209 28.5t-159.5 96t-86 177zM755 1581l54 237h245l-53 -237 h-246zM1144 1581l54 237h246l-54 -237h-246z" />
<glyph unicode="&#xdd;" horiz-adv-x="1138" d="M340 1479h295l127 -586l381 586h295l-600 -889l-127 -590h-283l127 590zM739 1560l258 299h315l-364 -299h-209z" />
<glyph unicode="&#xde;" d="M139 0l320 1479h282l-59 -273h258q119 0 210 -25.5t147.5 -79.5t75 -137t-6.5 -198t-79 -199t-134 -137t-182.5 -78.5t-220.5 -25.5h-258l-70 -326h-283zM541 555h225q80 0 136 14.5t93 42t57.5 66.5t30.5 88t6 88t-28.5 66.5t-73.5 42t-129 14.5h-225z" />
<glyph unicode="&#xdf;" horiz-adv-x="1024" d="M109 0l243 1126q16 76 53 140.5t95.5 111.5t136.5 74t174 27q205 0 281.5 -97.5t42.5 -263.5q-23 -109 -71 -182.5t-151 -120.5l-2 -4q100 -31 148.5 -129t9.5 -276q-27 -121 -71 -203t-102 -131t-131 -70.5t-155 -21.5q-16 0 -37.5 4t-43 10t-41 15t-31.5 20l100 180 q16 -10 40 -17.5t46 -7.5q123 0 176 234q12 57 14.5 106t-10 86t-44 57.5t-87.5 20.5h-53l45 205h33q55 0 98 44t64 138q43 199 -109 199q-133 0 -166 -156l-242 -1118h-253z" />
<glyph unicode="&#xe0;" horiz-adv-x="1024" d="M87 156.5q-7 50.5 5 105.5q41 182 211 281.5t490 136.5l20 90q14 61 -23.5 94t-105.5 33q-90 0 -151.5 -40t-110.5 -91l-135 125q33 43 84 79t110.5 62.5t123 40.5t120.5 12q106 -2 180 -24.5t113 -72.5t45 -132t-21 -201l-108 -501q-10 -41 -14.5 -80t2.5 -74h-248l2 92 q-88 -53 -172 -82.5t-185 -29.5q-72 0 -120.5 23.5t-76.5 63t-35 90zM352 293q-12 -59 15.5 -92t81.5 -33q31 0 65.5 11t69 27.5t66.5 37t57 37.5l49 229q-66 -12 -132.5 -26.5t-123 -38t-96 -60.5t-52.5 -92zM493 1499h316l127 -299h-209z" />
<glyph unicode="&#xe1;" horiz-adv-x="1024" d="M87 156.5q-7 50.5 5 105.5q41 182 211 281.5t490 136.5l20 90q14 61 -23.5 94t-105.5 33q-90 0 -151.5 -40t-110.5 -91l-135 125q33 43 84 79t110.5 62.5t123 40.5t120.5 12q106 -2 180 -24.5t113 -72.5t45 -132t-21 -201l-108 -501q-10 -41 -14.5 -80t2.5 -74h-248l2 92 q-88 -53 -172 -82.5t-185 -29.5q-72 0 -120.5 23.5t-76.5 63t-35 90zM352 293q-12 -59 15.5 -92t81.5 -33q31 0 65.5 11t69 27.5t66.5 37t57 37.5l49 229q-66 -12 -132.5 -26.5t-123 -38t-96 -60.5t-52.5 -92zM604 1200l258 299h315l-364 -299h-209z" />
<glyph unicode="&#xe2;" horiz-adv-x="1024" d="M87 156.5q-7 50.5 5 105.5q41 182 211 281.5t490 136.5l20 90q14 61 -23.5 94t-105.5 33q-90 0 -151.5 -40t-110.5 -91l-135 125q33 43 84 79t110.5 62.5t123 40.5t120.5 12q106 -2 180 -24.5t113 -72.5t45 -132t-21 -201l-108 -501q-10 -41 -14.5 -80t2.5 -74h-248l2 92 q-88 -53 -172 -82.5t-185 -29.5q-72 0 -120.5 23.5t-76.5 63t-35 90zM352 293q-12 -59 15.5 -92t81.5 -33q31 0 65.5 11t69 27.5t66.5 37t57 37.5l49 229q-66 -12 -132.5 -26.5t-123 -38t-96 -60.5t-52.5 -92zM409 1200l297 299h254l170 -299h-231l-92 168l-168 -168h-230z " />
<glyph unicode="&#xe3;" horiz-adv-x="1024" d="M87 156.5q-7 50.5 5 105.5q41 182 211 281.5t490 136.5l20 90q14 61 -23.5 94t-105.5 33q-90 0 -151.5 -40t-110.5 -91l-135 125q33 43 84 79t110.5 62.5t123 40.5t120.5 12q106 -2 180 -24.5t113 -72.5t45 -132t-21 -201l-108 -501q-10 -41 -14.5 -80t2.5 -74h-248l2 92 q-88 -53 -172 -82.5t-185 -29.5q-72 0 -120.5 23.5t-76.5 63t-35 90zM352 293q-12 -59 15.5 -92t81.5 -33q31 0 65.5 11t69 27.5t66.5 37t57 37.5l49 229q-66 -12 -132.5 -26.5t-123 -38t-96 -60.5t-52.5 -92zM399 1217q16 47 44 92t63.5 79.5t81 56t98.5 21.5q41 0 80 -12 t72.5 -25.5t63.5 -25.5t54 -12q37 0 68.5 26.5t48.5 61.5h133q-20 -47 -47 -92.5t-60.5 -80t-76.5 -56t-99 -21.5q-39 0 -76.5 11t-73.5 24.5t-70 24.5t-64 11q-41 0 -67 -24.5t-46 -58.5h-127z" />
<glyph unicode="&#xe4;" horiz-adv-x="1024" d="M87 156.5q-7 50.5 5 105.5q41 182 211 281.5t490 136.5l20 90q14 61 -23.5 94t-105.5 33q-90 0 -151.5 -40t-110.5 -91l-135 125q33 43 84 79t110.5 62.5t123 40.5t120.5 12q106 -2 180 -24.5t113 -72.5t45 -132t-21 -201l-108 -501q-10 -41 -14.5 -80t2.5 -74h-248l2 92 q-88 -53 -172 -82.5t-185 -29.5q-72 0 -120.5 23.5t-76.5 63t-35 90zM352 293q-12 -59 15.5 -92t81.5 -33q31 0 65.5 11t69 27.5t66.5 37t57 37.5l49 229q-66 -12 -132.5 -26.5t-123 -38t-96 -60.5t-52.5 -92zM456 1221l54 237h245l-53 -237h-246zM845 1221l54 237h246 l-54 -237h-246z" />
<glyph unicode="&#xe5;" horiz-adv-x="1024" d="M87 156.5q-7 50.5 5 105.5q41 182 211 281.5t490 136.5l20 90q14 61 -23.5 94t-105.5 33q-90 0 -151.5 -40t-110.5 -91l-135 125q33 43 84 79t110.5 62.5t123 40.5t120.5 12q106 -2 180 -24.5t113 -72.5t45 -132t-21 -201l-108 -501q-10 -41 -14.5 -80t2.5 -74h-248l2 92 q-88 -53 -172 -82.5t-185 -29.5q-72 0 -120.5 23.5t-76.5 63t-35 90zM352 293q-12 -59 15.5 -92t81.5 -33q31 0 65.5 11t69 27.5t66.5 37t57 37.5l49 229q-66 -12 -132.5 -26.5t-123 -38t-96 -60.5t-52.5 -92zM596 1419q10 45 35.5 86t62.5 71t81 47t91 17q45 0 82 -17 t60.5 -47t31.5 -71t-2 -86q-10 -47 -35.5 -87t-61.5 -69.5t-81 -47t-90 -17.5q-92 0 -142 64.5t-32 156.5zM706 1419q-10 -47 15.5 -78.5t72.5 -31.5t85 31.5t48 78.5t-14 79t-72 32q-47 0 -86 -32t-49 -79z" />
<glyph unicode="&#xe6;" horiz-adv-x="1593" d="M87 156.5q-7 50.5 5 105.5q41 182 212 281.5t497 136.5l20 90q14 61 -27.5 94t-109.5 33q-90 0 -151.5 -40t-110.5 -91l-135 125q33 43 84 79t110.5 62.5t123 40.5t120.5 12q119 -4 185.5 -32.5t99.5 -81.5q133 115 313 114q109 0 183.5 -39.5t116.5 -107.5t51 -157 t-11 -185l-23 -104h-647l-22 -107q-18 -90 31 -145.5t147 -55.5q45 0 82 9.5t68.5 27t60.5 40t57 50.5l160 -114q-98 -115 -219 -166t-275 -51q-43 0 -87 7t-84 26.5t-72.5 51t-53.5 80.5q-88 -55 -155.5 -87.5t-122.5 -50t-100.5 -22.5t-88.5 -5q-72 0 -120.5 23.5 t-76.5 63t-35 90zM352 293q-12 -59 15.5 -92t81.5 -33q31 0 65.5 11t70.5 27.5t69.5 37t60.5 37.5l49 229q-70 -12 -138.5 -26.5t-125 -38t-96 -60.5t-52.5 -92zM1032 664h414q20 111 -22 172t-134 61q-96 0 -163.5 -61.5t-94.5 -171.5z" />
<glyph unicode="&#xe7;" horiz-adv-x="1024" d="M164 532q27 127 80 229.5t129 174.5t170 110.5t202 38.5q152 0 247 -74.5t112 -209.5l-230 -82q-8 33 -18 62.5t-28.5 52t-49 35t-76.5 12.5q-106 0 -175.5 -84t-108.5 -265q-39 -180 -5.5 -264t146.5 -84q84 0 146.5 49.5t115.5 120.5l168 -108q-109 -143 -222.5 -204.5 t-260.5 -61.5q-217 2 -307 150.5t-35 401.5zM182 -416l53 86q23 -10 66 -21t86 -11q51 0 82.5 16t42.5 70q8 39 -16.5 51t-57.5 12q-23 0 -47.5 -4t-40.5 -8l-33 41l162 184h108l-116 -129q20 4 38.5 7t36.5 3q35 0 66 -9t51.5 -27.5t28.5 -48t0 -70.5q-10 -51 -42 -88 t-75 -60.5t-92 -35t-92 -11.5q-59 0 -110.5 15.5t-98.5 37.5z" />
<glyph unicode="&#xe8;" horiz-adv-x="1024" d="M144.5 303.5q-9.5 102.5 19.5 228.5q27 127 80 228.5t129 174.5t170 111.5t202 38.5q104 0 176 -40.5t113 -108.5t50.5 -156t-11.5 -184l-22 -104h-643q-16 -84 -10.5 -142.5t27 -95.5t57.5 -53.5t81 -16.5q90 0 147.5 36t116.5 91l160 -114q-98 -115 -219 -166t-274 -51 q-104 0 -179 38.5t-118 110.5t-52.5 174.5zM446 664h410q20 111 -21.5 172t-134.5 61q-92 0 -159.5 -61.5t-94.5 -171.5zM493 1499h316l127 -299h-209z" />
<glyph unicode="&#xe9;" horiz-adv-x="1024" d="M144.5 303.5q-9.5 102.5 19.5 228.5q27 127 80 228.5t129 174.5t170 111.5t202 38.5q104 0 176 -40.5t113 -108.5t50.5 -156t-11.5 -184l-22 -104h-643q-16 -84 -10.5 -142.5t27 -95.5t57.5 -53.5t81 -16.5q90 0 147.5 36t116.5 91l160 -114q-98 -115 -219 -166t-274 -51 q-104 0 -179 38.5t-118 110.5t-52.5 174.5zM446 664h410q20 111 -21.5 172t-134.5 61q-92 0 -159.5 -61.5t-94.5 -171.5zM604 1200l258 299h315l-364 -299h-209z" />
<glyph unicode="&#xea;" horiz-adv-x="1024" d="M144.5 303.5q-9.5 102.5 19.5 228.5q27 127 80 228.5t129 174.5t170 111.5t202 38.5q104 0 176 -40.5t113 -108.5t50.5 -156t-11.5 -184l-22 -104h-643q-16 -84 -10.5 -142.5t27 -95.5t57.5 -53.5t81 -16.5q90 0 147.5 36t116.5 91l160 -114q-98 -115 -219 -166t-274 -51 q-104 0 -179 38.5t-118 110.5t-52.5 174.5zM409 1200l297 299h254l170 -299h-231l-92 168l-168 -168h-230zM446 664h410q20 111 -21.5 172t-134.5 61q-92 0 -159.5 -61.5t-94.5 -171.5z" />
<glyph unicode="&#xeb;" horiz-adv-x="1024" d="M144.5 303.5q-9.5 102.5 19.5 228.5q27 127 80 228.5t129 174.5t170 111.5t202 38.5q104 0 176 -40.5t113 -108.5t50.5 -156t-11.5 -184l-22 -104h-643q-16 -84 -10.5 -142.5t27 -95.5t57.5 -53.5t81 -16.5q90 0 147.5 36t116.5 91l160 -114q-98 -115 -219 -166t-274 -51 q-104 0 -179 38.5t-118 110.5t-52.5 174.5zM446 664h410q20 111 -21.5 172t-134.5 61q-92 0 -159.5 -61.5t-94.5 -171.5zM456 1221l54 237h245l-53 -237h-246zM845 1221l54 237h246l-54 -237h-246z" />
<glyph unicode="&#xec;" horiz-adv-x="569" d="M158 0l229 1065h254l-229 -1065h-254zM270 1499h316l127 -299h-209z" />
<glyph unicode="&#xed;" horiz-adv-x="569" d="M158 0l229 1065h254l-229 -1065h-254zM381 1200l258 299h315l-364 -299h-209z" />
<glyph unicode="&#xee;" horiz-adv-x="569" d="M158 0l229 1065h254l-229 -1065h-254zM186 1200l297 299h254l170 -299h-231l-92 168l-168 -168h-230z" />
<glyph unicode="&#xef;" horiz-adv-x="569" d="M158 0l229 1065h254l-229 -1065h-254zM233 1221l54 237h245l-53 -237h-246zM622 1221l54 237h246l-54 -237h-246z" />
<glyph unicode="&#xf0;" horiz-adv-x="1024" d="M142.5 290q-11.5 95 13.5 210t78 210t126.5 164.5t168 107.5t202.5 38q20 0 40 -2t44 -8q-8 41 -22.5 78.5t-30.5 72.5l-230 -100l-47 131l207 90q-23 35 -50.5 66.5t-55.5 60.5l237 70q27 -23 48.5 -46.5t43.5 -52.5l228 99l45 -131l-199 -88q43 -80 69.5 -173.5 t39 -191.5t8.5 -198.5t-25 -196.5q-25 -115 -77 -210t-126.5 -165t-169 -107.5t-202.5 -37.5q-109 0 -186.5 37.5t-121.5 107.5t-55.5 165zM410 500q-33 -154 1 -235t140 -81t175 81t101 235q35 154 1.5 234.5t-140.5 80.5q-106 0 -175 -81t-103 -234z" />
<glyph unicode="&#xf1;" horiz-adv-x="1138" d="M131 0l229 1065h234l-25 -115q82 49 172 92t185 43q160 0 217 -96t22 -260l-157 -729h-254l149 692q23 109 -0.5 149t-89.5 40q-84 0 -152.5 -38t-109.5 -75l-166 -768h-254zM446 1217q16 47 44 92t63.5 79.5t81 56t98.5 21.5q41 0 80 -12t72.5 -25.5t63.5 -25.5t54 -12 q37 0 68.5 26.5t48.5 61.5h133q-20 -47 -47 -92.5t-60.5 -80t-76.5 -56t-99 -21.5q-39 0 -76.5 11t-73.5 24.5t-70 24.5t-64 11q-41 0 -67 -24.5t-46 -58.5h-127z" />
<glyph unicode="&#xf2;" horiz-adv-x="1024" d="M145.5 303q-10.5 102 18.5 229q27 127 80 229.5t129 174.5t170 110.5t202 38.5q109 0 186 -38.5t122 -110.5t54 -174.5t-17 -229.5q-29 -127 -82.5 -229t-129 -174t-170 -110.5t-202.5 -38.5q-109 0 -185.5 38.5t-120.5 110.5t-54.5 174zM411.5 268q32.5 -84 139.5 -84 q106 0 176 84t109 264t6 264.5t-140 84.5q-106 0 -175.5 -84t-108.5 -265q-39 -180 -6.5 -264zM487 1499h316l127 -299h-209z" />
<glyph unicode="&#xf3;" horiz-adv-x="1024" d="M145.5 303q-10.5 102 18.5 229q27 127 80 229.5t129 174.5t170 110.5t202 38.5q109 0 186 -38.5t122 -110.5t54 -174.5t-17 -229.5q-29 -127 -82.5 -229t-129 -174t-170 -110.5t-202.5 -38.5q-109 0 -185.5 38.5t-120.5 110.5t-54.5 174zM411.5 268q32.5 -84 139.5 -84 q106 0 176 84t109 264t6 264.5t-140 84.5q-106 0 -175.5 -84t-108.5 -265q-39 -180 -6.5 -264zM598 1200l258 299h315l-364 -299h-209z" />
<glyph unicode="&#xf4;" horiz-adv-x="1024" d="M145.5 303q-10.5 102 18.5 229q27 127 80 229.5t129 174.5t170 110.5t202 38.5q109 0 186 -38.5t122 -110.5t54 -174.5t-17 -229.5q-29 -127 -82.5 -229t-129 -174t-170 -110.5t-202.5 -38.5q-109 0 -185.5 38.5t-120.5 110.5t-54.5 174zM403 1200l297 299h254l170 -299 h-231l-92 168l-168 -168h-230zM411.5 268q32.5 -84 139.5 -84q106 0 176 84t109 264t6 264.5t-140 84.5q-106 0 -175.5 -84t-108.5 -265q-39 -180 -6.5 -264z" />
<glyph unicode="&#xf5;" horiz-adv-x="1024" d="M145.5 303q-10.5 102 18.5 229q27 127 80 229.5t129 174.5t170 110.5t202 38.5q109 0 186 -38.5t122 -110.5t54 -174.5t-17 -229.5q-29 -127 -82.5 -229t-129 -174t-170 -110.5t-202.5 -38.5q-109 0 -185.5 38.5t-120.5 110.5t-54.5 174zM393 1217q16 47 44 92t63.5 79.5 t81 56t98.5 21.5q41 0 80 -12t72.5 -25.5t63.5 -25.5t54 -12q37 0 68.5 26.5t48.5 61.5h133q-20 -47 -47 -92.5t-60.5 -80t-76.5 -56t-99 -21.5q-39 0 -76.5 11t-73.5 24.5t-70 24.5t-64 11q-41 0 -67 -24.5t-46 -58.5h-127zM411.5 268q32.5 -84 139.5 -84q106 0 176 84 t109 264t6 264.5t-140 84.5q-106 0 -175.5 -84t-108.5 -265q-39 -180 -6.5 -264z" />
<glyph unicode="&#xf6;" horiz-adv-x="1024" d="M145.5 303q-10.5 102 18.5 229q27 127 80 229.5t129 174.5t170 110.5t202 38.5q109 0 186 -38.5t122 -110.5t54 -174.5t-17 -229.5q-29 -127 -82.5 -229t-129 -174t-170 -110.5t-202.5 -38.5q-109 0 -185.5 38.5t-120.5 110.5t-54.5 174zM411.5 268q32.5 -84 139.5 -84 q106 0 176 84t109 264t6 264.5t-140 84.5q-106 0 -175.5 -84t-108.5 -265q-39 -180 -6.5 -264zM450 1221l54 237h245l-53 -237h-246zM839 1221l54 237h246l-54 -237h-246z" />
<glyph unicode="&#xf7;" horiz-adv-x="1228" d="M172 422l47 221h1065l-47 -221h-1065zM465 77q-8 32 0 66q6 33 27.5 66t52 59.5t66.5 42t71 15.5q37 0 67.5 -15.5t50 -42t26.5 -59.5t1 -66q-8 -35 -29.5 -66.5t-52 -57t-67.5 -41t-74 -15.5q-35 0 -64.5 15.5t-48 41t-26.5 57.5zM633 853q-8 32 0 67q6 33 27.5 65.5 t52 59t66.5 42t71 15.5q37 0 67.5 -15.5t50 -42t26.5 -59t1 -65.5q-8 -35 -29.5 -67t-52 -57.5t-67.5 -41t-74 -15.5q-35 0 -64.5 15.5t-48 41t-26.5 57.5z" />
<glyph unicode="&#xf8;" horiz-adv-x="1024" d="M-23 -205l238 314q-55 74 -67.5 181t16.5 242q27 127 80 229.5t129 174.5t170 110.5t202 38.5q113 0 189 -41l160 209h186l-233 -305q49 -72 60 -177t-17 -239q-29 -127 -82.5 -229t-129 -174t-170 -110.5t-202.5 -38.5q-96 0 -176 34l-168 -219h-185zM397 346l394 512 q-35 23 -89 23q-106 0 -175.5 -84t-108.5 -265q-12 -55 -18.5 -101t-2.5 -85zM473 201q33 -16 78 -17q106 0 176 84t109 264q20 94 20 168z" />
<glyph unicode="&#xf9;" horiz-adv-x="1138" d="M203 336l157 729h254l-149 -692q-23 -109 0.5 -149t89.5 -40q84 0 152.5 38t109.5 75l166 768h254l-229 -1065h-234l25 115q-82 -49 -173 -92t-186 -43q-160 0 -216 96t-21 260zM551 1499h316l127 -299h-209z" />
<glyph unicode="&#xfa;" horiz-adv-x="1138" d="M203 336l157 729h254l-149 -692q-23 -109 0.5 -149t89.5 -40q84 0 152.5 38t109.5 75l166 768h254l-229 -1065h-234l25 115q-82 -49 -173 -92t-186 -43q-160 0 -216 96t-21 260zM662 1200l258 299h315l-364 -299h-209z" />
<glyph unicode="&#xfb;" horiz-adv-x="1138" d="M203 336l157 729h254l-149 -692q-23 -109 0.5 -149t89.5 -40q84 0 152.5 38t109.5 75l166 768h254l-229 -1065h-234l25 115q-82 -49 -173 -92t-186 -43q-160 0 -216 96t-21 260zM467 1200l297 299h254l170 -299h-231l-92 168l-168 -168h-230z" />
<glyph unicode="&#xfc;" horiz-adv-x="1138" d="M203 336l157 729h254l-149 -692q-23 -109 0.5 -149t89.5 -40q84 0 152.5 38t109.5 75l166 768h254l-229 -1065h-234l25 115q-82 -49 -173 -92t-186 -43q-160 0 -216 96t-21 260zM514 1221l54 237h245l-53 -237h-246zM903 1221l54 237h246l-54 -237h-246z" />
<glyph unicode="&#xfd;" horiz-adv-x="909" d="M-61 -381l45 209q27 -6 50 -7t52 -1q66 0 110 19.5t76 64.5q29 39 45.5 65.5t24.5 59.5q6 29 2 61.5t-8 65.5l-88 909h256l35 -655h4l323 655h254l-567 -1067q-61 -117 -117.5 -191.5t-114 -118.5t-122 -60.5t-142.5 -16.5q-45 0 -70.5 2t-47.5 6zM547 1200l258 299h315 l-364 -299h-209z" />
<glyph unicode="&#xfe;" horiz-adv-x="1138" d="M45 -389l406 1868h243l-110 -512q66 53 138.5 85.5t158.5 32.5q106 0 175.5 -44t106.5 -121.5t41 -184t-22 -231.5q-23 -98 -71 -192.5t-118.5 -168t-160 -118.5t-191.5 -45q-66 0 -134.5 33.5t-96.5 84.5h-4l-107 -487h-254zM444 274q31 -35 73 -62.5t104 -27.5 q115 0 195.5 89t117.5 259t-5 259.5t-157 89.5q-41 0 -71.5 -9.5t-55 -22.5t-46 -30.5t-44.5 -32.5z" />
<glyph unicode="&#xff;" horiz-adv-x="909" d="M-61 -381l45 209q27 -6 50 -7t52 -1q66 0 110 19.5t76 64.5q29 39 45.5 65.5t24.5 59.5q6 29 2 61.5t-8 65.5l-88 909h256l35 -655h4l323 655h254l-567 -1067q-61 -117 -117.5 -191.5t-114 -118.5t-122 -60.5t-142.5 -16.5q-45 0 -70.5 2t-47.5 6zM399 1221l54 237h245 l-53 -237h-246zM788 1221l54 237h246l-54 -237h-246z" />
<glyph unicode="&#x152;" horiz-adv-x="1933" d="M152.5 411.5q-7.5 141.5 33.5 327.5q80 371 280 565.5t558 194.5q66 0 147.5 -10t171.5 -10h826l-51 -238h-627l-78 -352h442l-51 -238h-442l-88 -413h661l-51 -238h-825q-90 0 -181.5 -10t-183.5 -10q-178 0 -295.5 49t-178 145t-68 237.5zM437 471q5 -102 40 -158.5 t93.5 -76t129.5 -19.5q76 0 133.5 14.5t100.5 51t71.5 100t51.5 162.5l84 389q20 98 19 161.5t-27.5 100.5t-77.5 51.5t-127 14.5q-72 0 -138.5 -19.5t-126 -76t-108.5 -159t-86 -268.5t-32 -268z" />
<glyph unicode="&#x153;" horiz-adv-x="1593" d="M120 303.5q-9 102.5 19 228.5q27 127 80 229.5t128 174.5t166 110.5t196 38.5q104 0 182 -32.5t119 -104.5q137 137 329 137q102 0 174 -39.5t112 -107.5t49 -157t-11 -185l-23 -104h-622q-33 -166 6 -237t154 -71q72 0 126 36t113 91l160 -114q-98 -115 -215 -166 t-246 -51q-104 0 -174 37.5t-108 103.5q-72 -72 -164 -106.5t-201 -34.5q-104 0 -179 38.5t-118 110.5t-52 174.5zM386 268q32 -84 132 -84t169 84t108 264t7 264.5t-132 84.5t-169 -84.5t-108 -264.5t-7 -264zM1057 664h389q20 111 -20 172t-126 61t-151.5 -61.5 t-91.5 -171.5z" />
<glyph unicode="&#x178;" horiz-adv-x="1138" d="M340 1479h295l127 -586l381 586h295l-600 -889l-127 -590h-283l127 590zM591 1581l54 237h245l-53 -237h-246zM980 1581l54 237h246l-54 -237h-246z" />
<glyph unicode="&#x2c6;" horiz-adv-x="569" d="M182 1200l297 299h254l170 -299h-231l-92 168l-168 -168h-230z" />
<glyph unicode="&#x2dc;" horiz-adv-x="569" d="M172 1217q16 47 44 92t63.5 79.5t81 56t98.5 21.5q41 0 80 -12t72.5 -25.5t63.5 -25.5t54 -12q37 0 68.5 26.5t48.5 61.5h133q-20 -47 -47 -92.5t-60.5 -80t-76.5 -56t-99 -21.5q-39 0 -76.5 11t-73.5 24.5t-70 24.5t-64 11q-41 0 -67 -24.5t-46 -58.5h-127z" />
<glyph unicode="&#x2000;" horiz-adv-x="1000" />
<glyph unicode="&#x2001;" horiz-adv-x="2000" />
<glyph unicode="&#x2002;" horiz-adv-x="1000" />
<glyph unicode="&#x2003;" horiz-adv-x="2000" />
<glyph unicode="&#x2004;" horiz-adv-x="666" />
<glyph unicode="&#x2005;" horiz-adv-x="500" />
<glyph unicode="&#x2006;" horiz-adv-x="333" />
<glyph unicode="&#x2007;" horiz-adv-x="333" />
<glyph unicode="&#x2008;" horiz-adv-x="250" />
<glyph unicode="&#x2009;" horiz-adv-x="400" />
<glyph unicode="&#x200a;" horiz-adv-x="111" />
<glyph unicode="&#x2010;" horiz-adv-x="681" d="M180 422l47 221h502l-47 -221h-502z" />
<glyph unicode="&#x2011;" horiz-adv-x="681" d="M180 422l47 221h502l-47 -221h-502z" />
<glyph unicode="&#x2012;" horiz-adv-x="681" d="M180 422l47 221h502l-47 -221h-502z" />
<glyph unicode="&#x2013;" horiz-adv-x="1024" d="M96 446l37 172h1024l-37 -172h-1024z" />
<glyph unicode="&#x2014;" horiz-adv-x="2048" d="M96 446l37 172h2048l-37 -172h-2048z" />
<glyph unicode="&#x2018;" horiz-adv-x="569" d="M338 901l61 291l199 307h133l-172 -307h123l-61 -291h-283z" />
<glyph unicode="&#x2019;" horiz-adv-x="569" d="M352 881l170 307h-123l64 291h282l-63 -291l-197 -307h-133z" />
<glyph unicode="&#x201a;" horiz-adv-x="569" d="M94 -307l172 307h-123l62 291h282l-61 -291l-199 -307h-133z" />
<glyph unicode="&#x201c;" horiz-adv-x="909" d="M281 901l61 291l199 307h133l-172 -307h123l-62 -291h-282zM737 901l62 291l198 307h133l-172 -307h123l-61 -291h-283z" />
<glyph unicode="&#x201d;" horiz-adv-x="909" d="M293 881l170 307h-123l63 291h283l-63 -291l-197 -307h-133zM750 881l170 307h-123l63 291h283l-64 -291l-196 -307h-133z" />
<glyph unicode="&#x201e;" horiz-adv-x="909" d="M35 -307l172 307h-123l61 291h283l-61 -291l-199 -307h-133zM492 -307l172 307h-123l61 291h283l-62 -291l-198 -307h-133z" />
<glyph unicode="&#x2022;" horiz-adv-x="1024" d="M298 594.5q-13 66.5 3 144.5q16 76 59 143.5t104.5 118t134.5 79t151 28.5q76 0 137 -28.5t101 -79t54.5 -118t-2.5 -143.5q-16 -78 -60 -144.5t-105.5 -117.5t-136 -79.5t-150.5 -28.5q-78 0 -138.5 28.5t-99.5 79.5t-52 117.5z" />
<glyph unicode="&#x2026;" horiz-adv-x="2048" d="M197 0l61 291h291l-62 -291h-290zM879 0l61 291h291l-62 -291h-290zM1561 0l61 291h291l-62 -291h-290z" />
<glyph unicode="&#x202f;" horiz-adv-x="400" />
<glyph unicode="&#x2039;" horiz-adv-x="681" d="M197 526l317 334h229l-323 -334l182 -321h-229z" />
<glyph unicode="&#x203a;" horiz-adv-x="681" d="M166 205l321 321l-180 334h230l174 -334l-316 -321h-229z" />
<glyph unicode="&#x205f;" horiz-adv-x="500" />
<glyph unicode="&#x2122;" horiz-adv-x="2048" d="M328 1307l37 172h698l-37 -172h-248l-145 -672h-205l145 672h-245zM1049 635l182 844h305l76 -529h4l303 529h305l-182 -844h-205l123 575l-6 4l-330 -579h-158l-80 577h-8l-125 -577h-204z" />
<glyph unicode="&#xe000;" horiz-adv-x="1064" d="M0 0v1065h1065v-1065h-1065z" />
<glyph unicode="&#xfb01;" horiz-adv-x="1138" d="M172 0l184 860h-147l45 205h145l29 131q18 86 48 144.5t75 93t105.5 50t138.5 15.5h168l-45 -205h-70q-80 0 -117 -26.5t-51 -87.5l-25 -115h215l-45 -205h-215l-184 -860h-254zM754 0l229 1065h254l-229 -1065h-254zM1026 1262l51 237h254l-51 -237h-254z" />
<glyph unicode="&#xfb02;" horiz-adv-x="1138" d="M172 0l184 860h-147l45 205h145l29 131q18 86 48 144.5t75 93t105.5 50t138.5 15.5h168l-45 -205h-70q-80 0 -117 -26.5t-51 -87.5l-25 -115h215l-45 -205h-215l-184 -860h-254zM754 0l319 1479h254l-319 -1479h-254z" />
</font>
</defs>
</svg>
