<?xml version="1.0" standalone="no"?>
<!DOCTYPE svg PUBLIC "-//W3C//DTD SVG 1.1//EN" "http://www.w3.org/Graphics/SVG/1.1/DTD/svg11.dtd" >
<svg xmlns="http://www.w3.org/2000/svg">
<metadata></metadata>
<defs>
<font id="PrudentialModernLightLtIt" horiz-adv-x="1138" >
<font-face units-per-em="2048" ascent="1638" descent="-410" />
<missing-glyph horiz-adv-x="569" />
<glyph horiz-adv-x="0" />
<glyph unicode="&#xd;" horiz-adv-x="0" />
<glyph horiz-adv-x="0" />
<glyph horiz-adv-x="0" />
<glyph unicode=" "  horiz-adv-x="569" />
<glyph unicode="&#x09;" horiz-adv-x="569" />
<glyph unicode="&#xa0;" horiz-adv-x="569" />
<glyph unicode="!" horiz-adv-x="454" d="M139 0l39 184h176l-39 -184h-176zM274 455l185 1024h176l-258 -1024h-103z" />
<glyph unicode="&#x22;" horiz-adv-x="681" d="M395 1016l101 463h102l-100 -463h-103zM623 1016l100 463h102l-100 -463h-102z" />
<glyph unicode="#" d="M154 481l22 99h254l117 321h-242l21 98h254l172 480h102l-172 -480h301l172 480h102l-172 -480h218l-21 -98h-231l-115 -321h217l-23 -99h-231l-170 -481h-100l170 481h-303l-170 -481h-101l170 481h-241zM532 580h302l116 321h-303z" />
<glyph unicode="$" d="M123 299l110 68q12 -55 39 -104.5t66 -85.5t90 -57.5t115 -21.5l131 609q-70 20 -136.5 50.5t-114.5 77t-69.5 112t-3.5 155.5q20 92 66.5 162.5t112 118t145.5 71t168 25.5l30 143h99l-31 -143q70 -4 127 -26.5t100 -56.5t70 -76t37 -83q-2 0 -16.5 -10t-32 -22.5 t-33.5 -24t-21 -13.5q-29 88 -92 143.5t-161 67.5l-125 -577q74 -23 145.5 -53.5t124.5 -78.5t77.5 -117t4.5 -165q-20 -94 -72.5 -165.5t-124 -121t-156.5 -75t-171 -25.5l-54 -244h-98l53 244q-150 6 -257 83t-142 216zM463 1112q-14 -68 1 -115t50 -79.5t84 -53 t102 -35.5l119 551q-59 0 -116.5 -18.5t-106.5 -53t-84 -84.5t-49 -112zM641 98q63 0 128 22.5t119 61.5t94 92.5t54 116.5q14 68 -7 114t-62 78.5t-95.5 55.5t-105.5 41z" />
<glyph unicode="%" horiz-adv-x="1820" d="M412.5 1012.5q-13.5 60.5 1.5 130.5q14 70 55 130t96.5 106t121.5 73t136 27t125.5 -27t91 -73t48 -106.5t-2.5 -129.5q-14 -70 -54 -130.5t-95 -106.5t-121.5 -72.5t-136.5 -26.5t-125 26.5t-91 72.5t-49.5 106.5zM418 -20l1198 1519h108l-1200 -1519h-106zM511 1051 q9 -43 34.5 -76t64.5 -51.5t88 -18.5t96.5 18.5t86.5 51.5t67.5 76t38.5 92t1 92t-34.5 75.5t-64.5 51t-88 18.5t-96.5 -18.5t-86 -51t-67.5 -75.5t-39 -92t-1 -92zM1051.5 205.5q-13.5 60.5 1.5 130.5q14 70 54 130t95 106t121.5 73t136.5 27t125 -27t91 -73t49.5 -106 t-1.5 -130q-14 -70 -54 -130.5t-95 -106.5t-122 -72.5t-136 -26.5q-70 0 -125 26.5t-91 72.5t-49.5 106.5zM1150 244q9 -43 34.5 -76t64.5 -51.5t88 -18.5t96.5 18.5t86.5 51.5t67.5 76t38.5 92t1 92t-34.5 76t-64.5 51t-88 18t-96.5 -18t-86 -51t-67.5 -76t-39 -92t-1 -92z " />
<glyph unicode="&#x26;" horiz-adv-x="1366" d="M166 360q18 82 50 144.5t84 118t129 108.5t181 115q-35 76 -48 165t5 179q33 147 131.5 228t239.5 81q127 0 194.5 -73.5t38.5 -208.5q-16 -76 -55 -135.5t-93 -110.5t-117.5 -94t-129.5 -84q59 -123 114.5 -246t127.5 -225q74 86 134 180t101 194l121 -24 q-102 -240 -280 -436q41 -53 95 -91.5t130 -42.5l-27 -122q-98 4 -175 48t-134 113q-100 -78 -220 -119.5t-237 -41.5q-86 0 -161.5 23.5t-126 70.5t-72 118.5t-0.5 167.5zM299 352q-14 -66 2 -115t54 -81.5t90.5 -49t111.5 -16.5q66 0 122 15.5t101 37t80 47t58 43.5 q-31 35 -69 98.5t-76 137.5t-70.5 145.5t-53.5 122.5q-68 -35 -125 -70.5t-102 -80.5t-76 -101.5t-47 -132.5zM693 1034.5q9 -69.5 38 -129.5q115 55 201 141.5t106 178.5q16 70 -14.5 117t-116.5 47q-72 0 -127 -49t-80 -164q-16 -72 -7 -141.5z" />
<glyph unicode="'" horiz-adv-x="454" d="M395 1016l101 463h102l-100 -463h-103z" />
<glyph unicode="(" horiz-adv-x="681" d="M254 457.5q6 107.5 29 208.5q43 203 160.5 423t301.5 410h148q-203 -190 -323.5 -410.5t-163.5 -422.5q-23 -100 -28 -208t9 -215.5t50 -212t95 -198.5h-147q-51 94 -82 198.5t-43 212t-6 215z" />
<glyph unicode=")" horiz-adv-x="681" d="M76 -168q201 190 321.5 410.5t165.5 423.5q20 100 25.5 207.5t-9 215t-49 212t-94.5 198.5h148q100 -190 122.5 -410.5t-20.5 -422.5q-45 -203 -162.5 -423t-300.5 -411h-147z" />
<glyph unicode="*" horiz-adv-x="1024" d="M434 1188l60 106l247 -104l37 289h111l-86 -289l291 108l10 -102l-301 -70l139 -211l-104 -71l-84 254l-199 -254l-80 61l240 221z" />
<glyph unicode="+" horiz-adv-x="1228" d="M184 477l25 111h477l102 477h111l-102 -477h477l-25 -111h-477l-102 -477h-111l103 477h-478z" />
<glyph unicode="," horiz-adv-x="569" d="M96 -307l187 307h-86l39 184h176l-39 -184l-197 -307h-80z" />
<glyph unicode="-" horiz-adv-x="681" d="M188 477l25 111h510l-25 -111h-510z" />
<glyph unicode="." horiz-adv-x="569" d="M197 0l39 184h176l-39 -184h-176z" />
<glyph unicode="/" horiz-adv-x="569" d="M-29 -20l834 1519h113l-828 -1519h-119z" />
<glyph unicode="0" d="M181 443.5q1 138.5 36 295.5q33 156 92.5 295.5t144.5 241.5t194.5 162.5t244.5 60.5t219 -60.5t124 -162.5t39 -241.5t-34 -295.5q-35 -158 -94.5 -296t-144 -240.5t-194.5 -162.5t-245 -60t-219 60t-124 162.5t-39 241zM316 475q-5 -119 23 -205t88 -133t161 -47 q100 0 181 47t145.5 133t112.5 205t79 264q31 143 35 263t-23.5 206t-88.5 133.5t-161 47.5t-181 -47.5t-145.5 -133.5t-111.5 -205.5t-78 -263.5q-31 -145 -36 -264z" />
<glyph unicode="1" d="M274 0l23 111h254l268 1241l-291 -41l17 80l356 108h86l-301 -1388h246l-23 -111h-635z" />
<glyph unicode="2" d="M90 0l19 86q8 39 38.5 89t101 120t189.5 160t301 209q125 80 197 134t111.5 98t56 86t29.5 99q14 68 7 124.5t-38 97t-88.5 63.5t-141.5 23q-133 0 -240.5 -84t-178.5 -250l-115 22q80 201 231.5 311.5t341.5 110.5q203 0 294 -110.5t50 -303.5q-16 -72 -44.5 -131 t-83 -118.5t-137.5 -123t-208 -139.5q-72 -45 -161 -103t-169.5 -120.5t-141 -125t-74.5 -113.5h811l-23 -111h-934z" />
<glyph unicode="3" d="M88 274l121 62q18 -72 47 -119t70 -74.5t97 -40t128 -12.5q186 0 292.5 83t141.5 241q35 160 -55 237.5t-301 77.5h-135l22 111h111q201 0 318.5 69.5t150.5 216.5q29 139 -44 201t-223 62q-104 0 -193 -47.5t-187 -145.5l-82 70q133 127 253.5 180t243.5 53 q72 0 146.5 -17.5t131 -59.5t85 -110.5t6.5 -172.5q-29 -127 -100.5 -209t-212.5 -139q57 -23 102 -56t72.5 -78t36 -104t-8.5 -135q-25 -117 -81 -200t-135 -136t-177 -77.5t-209 -24.5q-180 0 -291.5 71.5t-140.5 222.5z" />
<glyph unicode="4" d="M109 373l22 104l866 1002h181l-217 -998h223l-23 -108h-223l-80 -373h-135l80 373h-694zM268 483h559l187 869h-15z" />
<glyph unicode="5" d="M150 256l124 72q35 -127 109 -182.5t192 -55.5q98 0 177 33t136.5 88t94.5 125t53 143q18 88 11 161t-39.5 125t-92 80.5t-141.5 28.5q-47 0 -100 -14t-103.5 -39.5t-95.5 -63.5t-78 -87l-102 18l237 791h736l-25 -111h-635l-151 -514q166 131 360 131q106 0 182 -40 t119 -107.5t54.5 -157.5t-11.5 -191q-25 -111 -78 -205t-133 -161.5t-184 -105t-231 -37.5q-139 0 -245 69.5t-140 206.5z" />
<glyph unicode="6" d="M187.5 432q5.5 127 33.5 254q31 139 95.5 283.5t160.5 262.5t224 192.5t286 74.5q98 0 178 -31.5t146 -91.5l-84 -100q-41 66 -110.5 89.5t-155.5 23.5q-127 0 -227.5 -63.5t-174.5 -161t-122 -214t-70 -221.5q92 84 206.5 140.5t231.5 56.5q113 0 193.5 -38 t126.5 -103.5t59.5 -154.5t-8.5 -192q-23 -106 -82.5 -191t-140.5 -144.5t-179 -91t-199 -31.5q-154 0 -238.5 62t-119.5 162.5t-29.5 227.5zM326 526q-43 -201 32.5 -318.5t245.5 -117.5q174 0 288.5 98.5t151.5 272.5q16 76 7 140.5t-44.5 112.5t-97 74.5t-149.5 26.5 q-82 0 -158 -38t-136 -87t-98 -96t-42 -68z" />
<glyph unicode="7" d="M252 0l926 1368h-770l24 111h914l-19 -80l-930 -1399h-145z" />
<glyph unicode="8" d="M128 193.5q-22 76.5 3 187.5q23 111 120 211t306 186q-129 49 -182 136t-27 210q20 92 68.5 163t119 118t162 70.5t195.5 23.5q211 0 316.5 -94t64.5 -281q-53 -246 -356 -346q86 -43 140 -90t83.5 -96t36 -102.5t-6.5 -108.5q-25 -111 -79 -187.5t-133.5 -123.5 t-180 -68.5t-215.5 -21.5t-206 21.5t-149 68.5t-80 123.5zM266 381q-16 -76 1.5 -130t61.5 -90t110.5 -53.5t148.5 -17.5t155.5 17.5t134 53.5t101.5 90t57 130q12 59 -3 106.5t-57 87t-105.5 74.5t-145.5 72q-98 -37 -178 -72t-137.5 -74.5t-94.5 -87t-49 -106.5zM485 1130 q-12 -59 2.5 -106t51 -84t90 -63.5t119.5 -45.5q74 18 139 45t117.5 64t88 84t48.5 106q14 66 -0.5 114t-50 81t-93 48.5t-129.5 15.5q-145 0 -249.5 -64t-133.5 -195z" />
<glyph unicode="9" d="M125 102l84 105q47 -53 104.5 -85t155.5 -32q129 0 229.5 56.5t174 148.5t121.5 207.5t73 234.5q-92 -86 -208 -143t-232 -57q-113 0 -193 39.5t-127 105.5t-60.5 151t7.5 175q25 117 85 208t142 154.5t180.5 96t198.5 32.5q154 0 239 -62.5t119.5 -162.5t28.5 -227 t-33 -254q-31 -139 -89 -283.5t-148 -262.5t-213 -192.5t-283 -74.5q-123 0 -207 31.5t-149 90.5zM384 870.5q9 -67.5 44 -116.5t96.5 -78t149.5 -29q82 0 157.5 38t136 88t98.5 98.5t42 68.5q45 211 -31 330t-246 119q-174 0 -288.5 -98.5t-151.5 -272.5q-16 -80 -7 -147.5 z" />
<glyph unicode=":" horiz-adv-x="569" d="M197 0l39 184h176l-39 -184h-176zM330 623l41 184h176l-41 -184h-176z" />
<glyph unicode=";" horiz-adv-x="569" d="M96 -307l187 307h-86l39 184h176l-39 -184l-197 -307h-80zM330 623l41 184h176l-41 -184h-176z" />
<glyph unicode="&#x3c;" horiz-adv-x="1228" d="M184 475l25 115l1169 487l-24 -119l-1018 -426l833 -426l-26 -118z" />
<glyph unicode="=" horiz-adv-x="1228" d="M139 272l25 111h1065l-25 -111h-1065zM229 682l23 111h1065l-23 -111h-1065z" />
<glyph unicode="&#x3e;" horiz-adv-x="1228" d="M78 -12l26 118l1018 426l-833 426l24 119l961 -487l-25 -115z" />
<glyph unicode="?" horiz-adv-x="796" d="M238 0l38 184h177l-39 -184h-176zM328 1247q66 115 164 183.5t229 68.5q66 0 122 -21.5t94 -63.5t53.5 -104.5t-3.5 -144.5q-14 -68 -52 -123t-86 -102t-102.5 -90t-103.5 -89t-86 -97.5t-51 -114.5l-23 -98h-110l33 147q12 53 45.5 100t78.5 91.5t97.5 89.5t98.5 93 t81 102t49 118q20 96 -28 146.5t-134 50.5q-51 0 -93 -18.5t-75.5 -46.5t-60.5 -62.5t-45 -65.5z" />
<glyph unicode="@" horiz-adv-x="1638" d="M252 448.5q-29 139.5 6 296.5q33 156 123 293.5t215 239.5t274.5 161.5t303.5 59.5q143 0 258.5 -47t191.5 -132t104.5 -200.5t-2.5 -253.5q-25 -119 -91 -225t-150 -186t-177.5 -127t-172.5 -47q-53 0 -86 35.5t-23 107.5l-4 -4q-55 -55 -137 -97t-162 -42 q-66 0 -112 24.5t-72.5 65.5t-33.5 97t5 118q25 109 84 217t143 194t187.5 140.5t214.5 54.5q72 0 122 -40t64 -134l82 135h111l-330 -604q-18 -33 -32.5 -62.5t-20.5 -52.5q-12 -59 41 -59q61 0 131.5 45t134 116.5t113 159.5t67.5 176q27 123 0 221.5t-92.5 169 t-162.5 108.5t-210 38q-139 0 -269 -54.5t-236.5 -147.5t-182.5 -216t-107 -260q-29 -135 -4 -256t94.5 -211t177 -142t242.5 -52q78 0 159 19.5t160 56t151.5 89t134.5 117.5h106q-68 -86 -152.5 -155.5t-181 -117.5t-198 -73.5t-199.5 -25.5q-162 0 -287 60t-204.5 164.5 t-108.5 244zM639 596q-20 -94 19.5 -151.5t115.5 -57.5q74 0 148.5 52.5t138 128t108.5 162.5t62 157q8 37 1 72.5t-24.5 63.5t-43 45t-56.5 17q-80 0 -157 -48t-141.5 -121.5t-109.5 -159.5t-61 -160z" />
<glyph unicode="A" horiz-adv-x="1251" d="M51 0l793 1479h207l147 -1479h-143l-45 483h-559l-256 -483h-144zM508 594h493l-77 774h-4z" />
<glyph unicode="B" horiz-adv-x="1366" d="M205 0l319 1479h414q274 1 380 -89q76 -64 76 -183q0 -46 -12 -99q-27 -121 -91 -194.5t-187 -125.5q111 -53 163 -147q33 -59 33 -136q0 -46 -12 -99q-25 -115 -79 -193t-132 -125t-180 -67.5t-221 -20.5h-471zM362 111h351q197 0 302 72.5t140 230.5q8 34 8 66 q0 26 -6 52q-12 56 -54 96t-117 62.5t-185 22.5h-307zM518 823h322q66 0 130 12.5t119.5 43t96.5 84t59 135.5q9 44 9 79q0 31 -7 55q-14 52 -57 83t-116 42t-173 11h-266z" />
<glyph unicode="C" horiz-adv-x="1251" d="M228 428q-1 23 -1 48q0 120 31 263q37 172 105.5 311.5t164 240t212 154.5t251.5 54q98 0 169 -32.5t116 -90t68.5 -136.5t27.5 -169l-131 -27q-12 164 -81.5 254.5t-205.5 90.5q-111 0 -200.5 -50.5t-160.5 -138.5t-121 -207t-79 -254q-31 -135 -31 -253.5t34 -207 t105.5 -138.5t186.5 -50q88 0 157.5 30t123 79t94.5 114.5t76 137.5l123 -23q-43 -98 -98.5 -181t-128 -142.5t-165 -92t-208.5 -32.5q-135 0 -228.5 54t-145.5 154.5t-60 239.5z" />
<glyph unicode="D" horiz-adv-x="1366" d="M205 0l319 1479h418q172 0 280.5 -60.5t164 -162t62.5 -235.5q1 -25 1 -50q0 -111 -25 -232q-33 -147 -97 -281t-163.5 -235.5t-234.5 -162t-307 -60.5h-418zM362 111h287q248 0 412 163.5t229 464.5q27 125 27 226q-1 143 -55 239q-94 164 -340 164h-287z" />
<glyph unicode="E" d="M205 0l319 1479h844l-25 -111h-708l-117 -545h510l-24 -110h-510l-132 -602h748l-23 -111h-882z" />
<glyph unicode="F" d="M205 0l319 1479h869l-25 -111h-733l-117 -545h535l-25 -110h-534l-154 -713h-135z" />
<glyph unicode="G" horiz-adv-x="1366" d="M230 414q-3 33 -3 68q0 116 31 257q39 184 115 325.5t174 238t214 146.5t234 50q102 0 179 -31.5t128.5 -88t76 -135.5t24.5 -173l-133 -22q-2 70 -19.5 132t-54.5 108t-94.5 73t-138.5 27q-98 0 -187.5 -45.5t-163 -130.5t-130 -204.5t-89.5 -269.5q-27 -119 -32 -235 q-1 -15 -1 -30q0 -99 30 -179q34 -92 113 -148.5t222 -56.5q78 0 148.5 27.5t127 77t94.5 114t54 137.5l29 136h-373l24 110h508l-149 -692h-117l31 145h-4q-84 -86 -184.5 -125.5t-254.5 -39.5q-123 0 -216 50t-147 146t-66 238z" />
<glyph unicode="H" horiz-adv-x="1478" d="M205 0l319 1479h135l-141 -656h799l141 656h135l-319 -1479h-135l153 713h-798l-154 -713h-135z" />
<glyph unicode="I" horiz-adv-x="569" d="M217 0l320 1479h135l-320 -1479h-135z" />
<glyph unicode="J" horiz-adv-x="909" d="M37 176l123 64q27 -78 65.5 -114t134.5 -36q98 0 163 62.5t93 199.5l244 1127h135l-254 -1168q-35 -166 -146.5 -248.5t-266.5 -82.5q-133 0 -194.5 48t-96.5 148z" />
<glyph unicode="K" horiz-adv-x="1251" d="M205 0l319 1479h135l-174 -803l850 803h166l-600 -566l338 -913h-152l-292 815l-349 -321l-106 -494h-135z" />
<glyph unicode="L" horiz-adv-x="1024" d="M205 0l319 1479h135l-297 -1368h660l-23 -111h-794z" />
<glyph unicode="M" horiz-adv-x="1705" d="M205 0l319 1479h238l135 -1254h4l682 1254h238l-320 -1479h-135l295 1368h-4l-739 -1368h-130l-149 1368h-4l-295 -1368h-135z" />
<glyph unicode="N" horiz-adv-x="1478" d="M205 0l319 1479h228l434 -1233h4l268 1233h135l-319 -1479h-139l-496 1368h-4l-295 -1368h-135z" />
<glyph unicode="O" horiz-adv-x="1366" d="M232 436q-2 27 -2 55q0 116 28 248q35 164 104.5 303.5t166 240.5t217.5 158.5t260 57.5t235 -57.5t148.5 -158.5t61.5 -241q2 -29 2 -58q0 -115 -28 -245q-35 -164 -104.5 -303t-166.5 -240.5t-218 -158.5t-260 -57t-235.5 57t-148.5 158.5t-60 240.5zM393 739 q-30 -139 -30 -250q0 -138 47 -231q85 -168 290 -168q102 0 194.5 43t169.5 126t134 204t92 276q30 138 30 248q0 139 -48 233q-86 168 -291 169q-102 0 -194.5 -43t-168 -126t-134 -204t-91.5 -277z" />
<glyph unicode="P" horiz-adv-x="1251" d="M205 0l319 1479h447q131 0 219 -30t137 -83t61 -130q5 -29 6 -60q0 -52 -14 -109q-20 -92 -65 -169t-117 -130t-173 -83t-232 -30h-312l-141 -655h-135zM504 766h311q193 0 296 77t134 224q11 47 11 87q0 84 -48 137q-70 77 -262 77h-311z" />
<glyph unicode="Q" horiz-adv-x="1366" d="M232 436q-2 27 -2 55q0 116 28 248q35 164 104.5 303.5t166 240.5t217 158.5t260.5 57.5q139 0 235 -57.5t148.5 -158.5t61.5 -241q2 -28 2 -58q0 -115 -28 -245q-41 -188 -124.5 -341.5t-206.5 -256.5q14 -41 33.5 -68.5t46 -44t61.5 -22.5t84 -6l-27 -123 q-49 0 -96 9.5t-88 32t-72.5 57t-50.5 87.5q-141 -83 -305 -83h-4q-139 0 -235.5 57t-148.5 158.5t-60 240.5zM393 739q-30 -139 -30 -249q0 -138 47 -232q86 -168 290 -168q135 0 250 74q-31 82 -65.5 114.5t-96.5 43.5l31 133q168 -31 244 -197q78 84 135 204t92 277 q30 138 30 248q0 139 -48 233q-86 169 -291 169q-102 0 -194.5 -43t-168 -126t-134 -204t-91.5 -277z" />
<glyph unicode="R" horiz-adv-x="1366" d="M205 0l319 1479h500q220 1 314 -109q66 -76 65 -189q0 -49 -12 -104q-31 -147 -126.5 -241.5t-260.5 -135.5l210 -700h-147l-199 676h-383l-145 -676h-135zM510 786h364q147 0 250 77t131 214q10 45 10 83q-1 79 -43 131q-64 77 -223 77h-364z" />
<glyph unicode="S" d="M145 375l134 39q6 -170 91 -247t261 -77q139 0 234.5 80t123.5 215q6 30 6 56q1 38 -13 69q-24 51 -72 88t-114.5 63.5t-136 54t-134 59.5t-111.5 77q-48 44 -68 108q-10 32 -10 72q0 38 10 84q18 82 61.5 152.5t109 122t151.5 80t188 28.5q176 0 279.5 -91t115.5 -263 l-123 -35q-14 123 -84.5 201t-212.5 78q-129 0 -225 -71t-125 -202q-7 -33 -7 -63v-7q1 -34 25.5 -66t77 -65.5t146.5 -72.5q143 -59 230 -109.5t130 -105t49 -115.5q2 -17 2 -35q0 -48 -12 -106q-20 -94 -73.5 -167t-126 -123t-159.5 -75.5t-177 -25.5q-213 0 -317.5 95 t-123.5 300z" />
<glyph unicode="T" d="M358 1368l25 111h1012l-25 -111h-438l-295 -1368h-135l295 1368h-439z" />
<glyph unicode="U" horiz-adv-x="1478" d="M309 483l215 996h135l-219 -1008q-16 -75 -16 -134q0 -24 2 -45q10 -73 51 -118t111.5 -64.5t169.5 -19.5q98 0 177 19.5t138.5 64.5t101.5 118t64 179l219 1008h135l-215 -996q-109 -503 -643 -503h-2q-442 0 -442 348q0 70 18 155z" />
<glyph unicode="V" d="M336 1479h143l123 -1286h4l692 1286h144l-811 -1479h-135z" />
<glyph unicode="W" horiz-adv-x="1705" d="M352 1479h137l48 -1233h4l563 1233h135l21 -1233h4l589 1233h138l-715 -1479h-135l-27 1217h-4l-551 -1217h-135z" />
<glyph unicode="X" d="M25 0l626 774l-280 705h159l226 -590l475 590h160l-580 -705l303 -774h-160l-249 647l-521 -647h-159z" />
<glyph unicode="Y" d="M360 1479h152l207 -731l547 731h151l-653 -852l-135 -627h-135l135 627z" />
<glyph unicode="Z" d="M94 0l23 111l1044 1257h-708l24 111h877l-25 -115l-1044 -1253h782l-23 -111h-950z" />
<glyph unicode="[" horiz-adv-x="681" d="M147 -147l353 1626h381l-17 -74h-258l-319 -1479h258l-17 -73h-381z" />
<glyph unicode="\" horiz-adv-x="569" d="M299 1499h113l176 -1519h-121z" />
<glyph unicode="]" horiz-adv-x="681" d="M88 -147l16 73h258l320 1479h-258l16 74h381l-352 -1626h-381z" />
<glyph unicode="^" horiz-adv-x="1228" d="M246 606l633 873h108l258 -873h-135l-213 725l-516 -725h-135z" />
<glyph unicode="_" horiz-adv-x="1024" d="M-55 -256l22 102h1022l-22 -102h-1022z" />
<glyph unicode="`" horiz-adv-x="454" d="M287 1466h157l168 -282h-104z" />
<glyph unicode="a" horiz-adv-x="1024" d="M109 258q25 109 83 178.5t154 115.5t230.5 79t310.5 69l14 74q7 36 7 65q0 59 -26 95q-40 54 -177 53q-96 0 -185.5 -50t-167.5 -142l-69 49q98 129 207.5 185t238.5 56q182 1 253 -77q46 -50 46 -142q0 -50 -14 -114l-121 -557q-10 -41 -16.5 -91.5t-8.5 -103.5h-118 l10 129q-55 -37 -104.5 -65.5t-99.5 -47t-102.5 -27.5t-113.5 -9q-124 0 -192 72q-47 51 -48 132q0 34 9 74zM231 260q-5 -26 -6 -48q0 -54 31 -87q43 -47 127 -47q86 0 193.5 47t205.5 129l76 348q-190 -41 -308 -80t-185.5 -81t-95 -86t-38.5 -95z" />
<glyph unicode="b" d="M188 0l320 1479h123l-121 -553q49 41 92 71.5t87 50t90 28.5t100 9q92 0 160.5 -40.5t108.5 -114.5t48 -174q2 -25 2 -52q0 -78 -18 -165q-59 -274 -199.5 -416.5t-349.5 -142.5q-111 0 -188.5 37.5t-118.5 121.5l-50 -139h-86zM369 272q20 -41 45.5 -76.5t58.5 -62.5 t75 -41t99 -14q80 0 145.5 33.5t117 93t87 139.5t56.5 172q21 94 21 173v17q-2 86 -30 149t-82.5 97.5t-136.5 34.5q-45 0 -96 -19.5t-99 -49t-87 -62.5t-60 -59z" />
<glyph unicode="c" horiz-adv-x="1024" d="M170 310q-2 24 -2 49q0 81 20 173q31 137 86.5 241t130 173.5t167 104t194.5 34.5q152 0 229.5 -77.5t98.5 -210.5l-121 -31q-10 45 -27.5 86t-44.5 70.5t-64.5 47t-91.5 17.5q-76 0 -142 -24.5t-122.5 -79t-99.5 -141.5t-70 -210q-19 -85 -19 -158v-28q4 -84 35 -143.5 t86.5 -92t135.5 -32.5q113 0 196.5 59.5t169.5 161.5l89 -47q-47 -57 -98.5 -106.5t-111 -86t-126 -58t-142.5 -21.5q-113 0 -189.5 40.5t-117.5 114t-49 175.5z" />
<glyph unicode="d" d="M188 539q25 117 78 217t124 174t158 114.5t179 40.5q106 0 173 -38.5t126 -120.5l121 553h123l-320 -1479h-86l8 139q-76 -84 -171 -121.5t-205 -37.5q-209 0 -288 142q-45 81 -45 206q0 93 25 211zM289 344q2 -80 27.5 -139.5t76.5 -93t131 -33.5q115 0 199 55t162 139 l114 525q-10 27 -34.5 59.5t-59.5 62t-78 49t-88 19.5q-84 0 -152.5 -34.5t-123.5 -97t-94 -148.5t-62 -191q-18 -84 -18 -157v-15z" />
<glyph unicode="e" horiz-adv-x="1024" d="M188 532q27 123 79 225.5t125 175.5t162 112.5t191 39.5q109 0 179.5 -40.5t107.5 -114.5t41 -176q1 -14 1 -28q0 -91 -23 -198h-742q-16 -81 -16 -156v-16q2 -82 29.5 -143t85 -98t147.5 -37q51 0 93 10t83 34.5t84 65.5t96 105l90 -53q-59 -72 -112 -121t-109.5 -80 t-119 -45t-138.5 -14q-209 0 -302 136q-56 82 -56 217q0 88 24 199zM332 627h618q4 39 4 74q0 114 -40 188q-52 96 -193 98q-82 0 -148.5 -36t-115.5 -90t-81 -117.5t-44 -116.5z" />
<glyph unicode="f" horiz-adv-x="569" d="M197 0l209 967h-177l21 98h176l33 152q29 139 104.5 210.5t212.5 71.5q35 0 65.5 -5t63.5 -11l-22 -103q-27 10 -53.5 15.5t-61.5 5.5q-72 0 -117 -39t-65 -131l-37 -166h217l-21 -98h-217l-209 -967h-122z" />
<glyph unicode="g" horiz-adv-x="1024" d="M12 -125q14 70 64.5 127t171.5 98l2 4q-57 12 -92 42q-25 21 -25 62q0 17 4 36q8 33 28.5 63.5t48.5 54t59.5 40t62.5 22.5q-61 49 -86 122q-14 41 -14 86q0 34 8 70q18 88 63 159t110.5 121t149.5 76.5t181 26.5q78 0 133 -19t98 -54q117 94 244 94l-23 -111 q-41 0 -91 -8t-91 -41q27 -43 36 -94q3 -18 3 -40q0 -39 -10 -89q-23 -98 -70 -169t-112.5 -116t-145.5 -66.5t-164 -21.5q-51 0 -90 9.5t-76 23.5q-55 -18 -85 -46t-36 -56q-4 -23 3.5 -40.5t39 -28.5t95 -17.5t172.5 -6.5q240 0 330 -72q70 -56 70 -145q0 -28 -7 -59 q-12 -59 -48 -111.5t-100.5 -91.5t-163 -62.5t-235.5 -23.5t-222 21.5t-131 56.5t-57 81q-7 25 -7 49q0 22 5 44zM141 -102q-3 -15 -3 -29q0 -58 54 -99q68 -49 234 -49q201 0 301 49.5t119 133.5q3 14 3 28q0 18 -5 36q-8 32 -46 56.5t-110.5 39t-191.5 14.5 q-90 0 -155 -15.5t-106.5 -40t-64.5 -57.5t-29 -67zM366 595q11 -50 41.5 -83t77.5 -48t103 -15q129 0 217 63t117 203q11 48 11 88q0 75 -39 119q-60 65 -189 65t-218 -73.5t-118 -198.5q-8 -39 -8 -72q0 -26 5 -48z" />
<glyph unicode="h" d="M168 0l319 1479h123l-127 -582q106 90 197.5 139t208.5 49q166 0 220 -92q32 -55 32 -138q0 -57 -15 -128l-155 -727h-123l153 715q14 64 14 113q-1 54 -17 90q-32 70 -154 69q-49 0 -93 -14.5t-88.5 -41t-93.5 -64.5t-110 -83l-168 -784h-123z" />
<glyph unicode="i" horiz-adv-x="454" d="M166 0l229 1065h123l-229 -1065h-123zM446 1298l39 181h123l-39 -181h-123z" />
<glyph unicode="j" horiz-adv-x="454" d="M-119 -365l23 101q20 -6 40.5 -10.5t41.5 -4.5q59 0 95 26t48 85l266 1233h123l-266 -1235q-25 -117 -91.5 -162t-170.5 -45q-29 0 -58.5 3t-50.5 9zM446 1298l39 181h123l-39 -181h-123z" />
<glyph unicode="k" horiz-adv-x="1024" d="M168 0l319 1479h123l-213 -979l617 565h141l-432 -397l256 -668h-137l-215 582l-262 -238l-74 -344h-123z" />
<glyph unicode="l" horiz-adv-x="454" d="M166 0l319 1479h123l-319 -1479h-123z" />
<glyph unicode="m" horiz-adv-x="1705" d="M168 0l229 1065h123l-35 -162q49 43 94.5 77t90.5 57.5t96 35.5t113 12q90 0 151.5 -52t65.5 -142q92 86 184 140t209 54q141 1 195 -73q35 -47 35 -122q0 -42 -11 -93l-172 -797h-123l174 809q7 31 7 57q0 48 -24 77q-38 44 -128 44q-35 0 -83 -17.5t-99.5 -46 t-98.5 -64.5t-80 -75l-168 -784h-122l174 809q7 31 7 57q0 49 -25 77q-38 44 -128 44q-35 0 -83 -17.5t-99 -46t-98 -64.5t-80 -75l-168 -784h-123z" />
<glyph unicode="n" d="M168 0l229 1065h123l-37 -168q106 90 197.5 139t208.5 49q166 0 220 -92q32 -55 32 -138q0 -57 -15 -128l-155 -727h-123l153 715q14 64 14 113q-1 54 -17 90q-32 70 -154 69q-49 0 -93 -14.5t-88.5 -41t-93.5 -64.5t-110 -83l-168 -784h-123z" />
<glyph unicode="o" horiz-adv-x="1024" d="M164 324.5q0 99.5 24 207.5q23 109 66 208.5t110.5 176t161.5 122.5t219 46t199 -46t108.5 -122.5t34.5 -176t-22 -208.5q-25 -109 -68 -208t-110.5 -175.5t-161.5 -122.5t-219 -46t-199 46t-108.5 122.5t-34.5 176zM311 532q-23 -106 -23 -189q0 -87 25 -147 q49 -118 215 -118t266.5 118.5t147.5 335.5q22 104 22 185q0 89 -26 151q-49 119 -213 119q-166 0 -266.5 -118.5t-147.5 -336.5z" />
<glyph unicode="p" d="M106 -377l312 1442h123l-35 -164h4q84 92 170 138t190 46t174 -46t108 -123.5t44 -177.5q1 -21 1 -41q0 -82 -19 -171q-31 -139 -83.5 -241.5t-123 -170t-155.5 -101t-177 -33.5q-53 0 -95 9t-77 28.5t-65.5 50t-61.5 71.5l-111 -516h-123zM369 268q8 -27 33.5 -59.5 t60.5 -62t78 -49t88 -19.5q166 0 275.5 124t156.5 347q16 74 16 145v16q-2 78 -26.5 139.5t-75.5 99.5t-131 38q-51 0 -96.5 -15.5t-88.5 -41t-86 -61t-92 -76.5z" />
<glyph unicode="q" d="M170 306q-2 25 -2 51q0 78 18 165q59 272 198.5 413.5t348.5 141.5q111 0 184.5 -43t124.5 -114l50 137h86l-310 -1434h-123l111 514q-47 -41 -91 -70.5t-87 -49t-90 -28.5t-101 -9q-92 0 -160.5 40.5t-108.5 113.5t-48 172zM292 356q3 -86 30.5 -147.5t82 -96 t138.5 -34.5q45 0 96 19.5t98 48t86 61.5t62 59l112 520q-23 41 -47 77t-57 61.5t-75 40t-99 14.5q-80 0 -145.5 -34t-116.5 -92t-87 -137t-57 -171t-21 -171v-18z" />
<glyph unicode="r" horiz-adv-x="681" d="M160 0l229 1065h123l-43 -203h4q63 98 157.5 160.5t196.5 62.5h56l-25 -118h-55q-51 0 -112.5 -29t-118 -78t-100.5 -115.5t-60 -142.5l-129 -602h-123z" />
<glyph unicode="s" horiz-adv-x="909" d="M92 195l105 63q27 -53 55.5 -88t63 -55.5t76.5 -28.5t95 -8q51 0 97.5 15.5t84.5 43t63.5 64.5t35.5 80q5 22 5 42q1 30 -11 53q-18 38 -57 62.5t-92.5 41t-108.5 32.5t-107.5 35.5t-89.5 50.5t-54 78q-9 24 -9 55q0 29 8 64q16 76 55 130t93.5 90t120 53t132.5 17 q135 0 212 -50t114 -142l-109 -66q-39 74 -92 117t-149 43q-90 0 -160 -44t-92 -142q-3 -16 -4 -30q1 -29 15 -50q20 -31 58.5 -52.5t92 -37t108.5 -32.5t106.5 -39.5t87.5 -58.5q36 -35 51 -89q7 -26 8 -58q0 -33 -9 -73q-16 -72 -58 -128.5t-101.5 -94.5t-131.5 -58 t-143 -20q-123 0 -218.5 51t-146.5 164z" />
<glyph unicode="t" horiz-adv-x="569" d="M215 166l174 801h-160l21 98h160l75 348h123l-76 -348h234l-21 -98h-233l-170 -781q-5 -20 -5 -36q0 -72 89 -72h2q31 0 64.5 6t64.5 16l-22 -102q-31 -4 -65 -11t-64 -7q-131 0 -172 44q-27 29 -27 80q0 28 8 62z" />
<glyph unicode="u" d="M240 338l157 727h123l-153 -715q-14 -64 -14 -113q1 -53 17 -89q32 -70 154 -70q49 0 92 14t88.5 41t93.5 63.5t109 84.5l170 784h123l-229 -1065h-123l35 168q-104 -90 -196.5 -139t-209.5 -49q-166 0 -220 92q-32 55 -32 138q0 57 15 128z" />
<glyph unicode="v" horiz-adv-x="909" d="M258 1065h131l100 -877h5l485 877h131l-596 -1065h-121z" />
<glyph unicode="w" horiz-adv-x="1366" d="M244 1065h125l49 -856h4l428 856h121l53 -856h4l424 856h127l-539 -1065h-120l-56 856h-4l-422 -856h-127z" />
<glyph unicode="x" horiz-adv-x="909" d="M20 0l482 565l-211 500h147l162 -385l330 385h147l-428 -500l240 -565h-148l-190 449l-383 -449h-148z" />
<glyph unicode="y" horiz-adv-x="909" d="M-45 -365l22 101q25 -4 53.5 -9.5t63.5 -5.5q63 0 143 66t160 229l-143 1049h135l105 -866h4l485 866h131l-645 -1141q-45 -78 -86 -135t-88 -94t-102.5 -54.5t-126.5 -17.5q-41 0 -66 3t-45 9z" />
<glyph unicode="z" horiz-adv-x="909" d="M51 0l17 78l806 889h-565l21 98h729l-17 -78l-806 -889h630l-20 -98h-795z" />
<glyph unicode="{" horiz-adv-x="681" d="M225 63l86 400q16 80 1 123t-87 43l17 73q72 0 106.5 43t50.5 123l86 400q25 111 85.5 171t146.5 60h127l-17 -74h-102q-41 0 -66.5 -24.5t-44.5 -110.5l-88 -403q-23 -102 -71.5 -152.5t-122.5 -66.5v-4q66 -16 93.5 -66.5t4.5 -153.5l-86 -403q-18 -86 -3 -110.5 t56 -24.5h103l-17 -74h-127q-86 0 -119.5 60.5t-11.5 170.5z" />
<glyph unicode="|" horiz-adv-x="454" d="M166 -20l330 1519h110l-330 -1519h-110z" />
<glyph unicode="}" horiz-adv-x="681" d="M125 -168l16 74h103q41 0 66.5 24.5t43.5 110.5l86 403q23 102 72 152.5t125 67.5v4q-68 16 -95.5 66t-4.5 153l88 403q18 86 2.5 110.5t-56.5 24.5h-102l16 74h127q86 0 120 -60.5t9 -170.5l-86 -400q-16 -80 0.5 -123t87.5 -43l-16 -73q-72 0 -107.5 -43t-52.5 -123 l-86 -400q-23 -111 -83 -171t-146 -60h-127z" />
<glyph unicode="~" horiz-adv-x="1228" d="M209 485q25 31 55.5 62t69.5 55.5t86 39.5t102 15t113.5 -19.5t116.5 -45.5q57 -25 111.5 -47.5t101.5 -22.5q66 0 120 45t105 99l59 -86q-25 -33 -55.5 -64t-69.5 -55.5t-86 -38.5t-102 -14t-113.5 19t-117.5 46q-55 25 -109.5 47.5t-101.5 22.5q-66 0 -121.5 -45 t-104.5 -99z" />
<glyph unicode="&#xa1;" horiz-adv-x="454" d="M49 -414l258 1024h103l-185 -1024h-176zM330 881l39 184h176l-39 -184h-176z" />
<glyph unicode="&#xa2;" d="M229 -246l150 277q-106 66 -139 196.5t6 304.5q31 137 86 241t130 173.5t167 104t194 34.5q63 0 117 -16l121 219h110l-143 -262q100 -74 123 -229l-121 -31q-10 41 -24.5 79t-38.5 68l-447 -823q37 -12 86 -12q113 0 197 59.5t170 161.5l88 -47q-47 -57 -98.5 -106.5 t-110.5 -86t-126 -58t-142 -21.5q-66 0 -115 14l-129 -240h-111zM356.5 295q16.5 -102 79.5 -158l453 834q-39 16 -86 16q-76 0 -142.5 -24.5t-123 -79t-99.5 -141.5t-69 -210q-29 -135 -12.5 -237z" />
<glyph unicode="&#xa3;" d="M27 -20l28 126q72 29 127.5 77t96 107.5t67.5 126t41 134.5q8 35 11 68.5t8 66.5h-228l21 98h215q10 76 15 151t22 150q20 94 65 170t111.5 130.5t149.5 84t177 29.5q178 0 269.5 -101.5t85.5 -273.5l-125 -28q2 133 -53.5 213t-202.5 80q-150 0 -237 -85t-118 -225 q-16 -74 -22 -148.5t-10 -146.5h299l-21 -98h-287q-6 -27 -8 -53.5t-8 -54.5q-10 -49 -23.5 -92.5t-31 -84.5t-41 -81.5t-53.5 -86.5q31 -25 68.5 -49t78.5 -45.5t86 -35t90 -13.5q61 0 112.5 13.5t95.5 45t84 85t77 133.5l110 -25q-72 -174 -192.5 -268t-290.5 -94 q-74 0 -129 13t-101 34.5t-85 51.5t-80 60q-55 -59 -122 -102t-142 -57z" />
<glyph unicode="&#xa4;" d="M127 309l135 111q-45 68 -52 150.5t11 168.5t62.5 169t115.5 151l-86 110l95 78l90 -112q80 57 167 84.5t173 27.5t160.5 -27.5t129.5 -84.5l140 112l61 -78l-135 -110q45 -68 53 -151t-10 -169t-63.5 -169t-116.5 -150l86 -111l-94 -78l-91 113q-80 -57 -166.5 -85 t-173.5 -28q-86 0 -160.5 28t-129.5 85l-140 -113zM329 581.5q15 -73.5 56 -130t106.5 -89t147.5 -32.5t162 32.5t145.5 89t113.5 130t66 157.5q18 82 3 157t-57 131t-107.5 89t-147.5 33t-162 -33t-145.5 -89t-112.5 -131t-65 -157q-18 -84 -3 -157.5z" />
<glyph unicode="&#xa5;" d="M242 504l20 98h361l6 25l-54 176h-270l23 98h221l-172 578h135l207 -731l547 731h135l-432 -578h215l-23 -98h-266l-131 -176l-6 -25h360l-20 -98h-361l-108 -504h-135l108 504h-360z" />
<glyph unicode="&#xa6;" horiz-adv-x="454" d="M166 -20l125 573h110l-125 -573h-110zM371 926l125 573h110l-125 -573h-110z" />
<glyph unicode="&#xa7;" horiz-adv-x="1024" d="M180 27l99 55q12 -66 60 -111t122 -45q86 0 142 37t73 115q10 45 -17.5 101.5t-73.5 117.5t-101.5 126.5t-99.5 132.5t-69.5 131.5t-13.5 123.5q10 49 38 88t65.5 65.5t85 41t96.5 14.5l6 4q-43 37 -69.5 96.5t-8.5 141.5q12 51 41 95t72 75.5t96 49t113 17.5 q106 0 171.5 -53t90.5 -148l-94 -51q-20 74 -66.5 118t-132.5 44q-70 0 -122 -39t-71 -125q-8 -43 19.5 -93t75 -105.5t102.5 -115t100 -123t71 -128t11 -127.5q-14 -63 -39.5 -105t-61.5 -69t-79 -40t-92 -15q35 -55 53.5 -121t1.5 -140q-12 -59 -47 -102t-81 -70.5 t-100 -41t-108 -13.5q-94 0 -166.5 52.5t-91.5 138.5zM408 831q-6 -29 8 -71.5t40.5 -92t62.5 -99.5t72 -89t68.5 -64.5t55.5 -25.5q66 0 110.5 41t59.5 102q4 23 -8.5 64t-38 88t-59.5 95t-70.5 87t-73.5 63.5t-66 24.5q-23 0 -49 -9t-48.5 -24.5t-40 -39t-23.5 -50.5z" />
<glyph unicode="&#xa8;" horiz-adv-x="454" d="M260 1204l41 193h135l-41 -193h-135zM580 1204l41 193h135l-41 -193h-135z" />
<glyph unicode="&#xa9;" horiz-adv-x="1638" d="M214 443.5q-30 138.5 5 295.5q33 156 123 295.5t215 241.5t276.5 162.5t309.5 60.5t282.5 -60.5t205.5 -162.5t111 -241.5t-3 -295.5q-35 -158 -125 -296t-215 -240.5t-276.5 -162.5t-309.5 -60t-282.5 60t-205.5 162.5t-111 241zM333.5 482q22.5 -120 88 -209 t171.5 -140t243 -51t265 51t232.5 140t178 209t104.5 257q29 137 6 257t-88.5 209t-171 140.5t-242.5 51.5t-265 -51.5t-232.5 -140.5t-178 -208.5t-102.5 -257.5q-31 -137 -8.5 -257zM531.5 551q-13.5 88 9.5 190t72 190.5t121.5 153t164.5 100.5t199 36q74 0 136 -20.5 t105 -61.5t64.5 -100.5t15.5 -135.5h-110q0 90 -58.5 152.5t-171.5 62.5q-80 0 -148.5 -29.5t-122.5 -80t-91 -119t-53 -146.5q-16 -74 -7 -143.5t41.5 -122.5t88 -85t133.5 -32q111 0 195.5 66t123.5 158h111q-33 -72 -80 -132.5t-106.5 -103.5t-127 -66.5t-139.5 -23.5 q-104 0 -182 37t-124 102.5t-59.5 153.5z" />
<glyph unicode="&#xaa;" horiz-adv-x="614" d="M242 1006q16 80 72.5 127t128 73.5t146.5 41t128 28.5l12 51q10 41 -13.5 65.5t-99.5 24.5q-66 0 -114.5 -24.5t-95.5 -75.5l-58 41q63 76 132 108.5t165 32.5q117 0 160 -46t20 -150l-69 -320q-10 -47 -12.5 -72.5t-2.5 -58.5h-90l6 78q-66 -47 -123 -68.5t-137 -21.5 q-82 0 -127 44t-28 122zM344 1008q-8 -37 14.5 -61.5t69.5 -24.5q57 0 123.5 26.5t110.5 67.5l36 172q-37 -10 -92 -22.5t-110.5 -32t-98.5 -49t-53 -76.5z" />
<glyph unicode="&#xab;" horiz-adv-x="1024" d="M283 537l315 311h135l-321 -311l184 -320h-135zM586 537l317 311h135l-323 -311l186 -320h-135z" />
<glyph unicode="&#xac;" horiz-adv-x="1228" d="M229 682l23 111h1065l-113 -521h-110l90 410h-955z" />
<glyph unicode="&#xad;" horiz-adv-x="681" d="M188 477l25 111h510l-25 -111h-510z" />
<glyph unicode="&#xae;" horiz-adv-x="1638" d="M214 443.5q-30 138.5 5 295.5q33 156 123 295.5t215 241.5t276.5 162.5t309.5 60.5t282.5 -60.5t205.5 -162.5t111 -241.5t-3 -295.5q-35 -158 -125 -296t-215 -240.5t-276.5 -162.5t-309.5 -60t-282.5 60t-205.5 162.5t-111 241zM333.5 482q22.5 -120 88 -209 t171.5 -140t243 -51t265 51t232.5 140t178 209t104.5 257q29 137 6 257t-88.5 209t-171 140.5t-242.5 51.5t-265 -51.5t-232.5 -140.5t-178 -208.5t-102.5 -257.5q-31 -137 -8.5 -257zM598 287l195 903h346q154 0 210 -63.5t29 -186.5q-12 -59 -39.5 -103t-63.5 -74 t-78 -48.5t-83 -26.5l166 -401h-139l-160 401h-174l-86 -401h-123zM829 791h142q45 0 90 1t84 15t68.5 45t41.5 90q10 47 -1 76t-35.5 44t-59.5 20t-69 5h-197z" />
<glyph unicode="&#xaf;" horiz-adv-x="454" d="M197 1264l20 90h606l-20 -90h-606z" />
<glyph unicode="&#xb0;" horiz-adv-x="819" d="M367.5 1083.5q-11.5 55.5 1.5 116.5q14 61 49 116.5t84 95.5t108.5 63.5t122.5 23.5t112.5 -23.5t81 -63.5t43 -95t-2.5 -117q-12 -61 -47 -116.5t-84.5 -95.5t-108.5 -63.5t-123 -23.5q-63 0 -112.5 23.5t-81 63.5t-43 95.5zM463 1200q-18 -92 24.5 -152.5t135.5 -60.5 q92 0 161.5 60.5t87.5 152.5q20 92 -22.5 152.5t-134.5 60.5t-162 -60.5t-90 -152.5z" />
<glyph unicode="&#xb1;" horiz-adv-x="1228" d="M82 0l22 111h1065l-22 -111h-1065zM205 575l24 111h478l81 379h111l-82 -379h477l-24 -111h-477l-82 -378h-111l82 378h-477z" />
<glyph unicode="&#xb2;" horiz-adv-x="681" d="M162 598l14 68q6 27 18.5 54.5t45 61t93 75.5t159.5 101q92 53 149 93.5t92 72t51.5 59t22.5 58.5q16 76 -19.5 122t-113.5 46q-92 0 -158.5 -43t-107.5 -135l-93 14q49 121 147.5 187.5t227.5 66.5q127 0 188.5 -69.5t32.5 -196.5q-14 -63 -50 -109.5t-85 -84.5 t-107.5 -71.5t-115.5 -70.5q-127 -84 -191.5 -128t-74.5 -81h504l-19 -90h-610z" />
<glyph unicode="&#xb3;" horiz-adv-x="681" d="M168 762l94 49q27 -78 74 -106.5t141 -28.5q109 0 174.5 46t81.5 124q20 94 -38 136t-181 42h-88l18 90h72q117 0 188.5 37t90.5 123q14 66 -30 100.5t-116 34.5q-41 0 -71.5 -4t-58 -15.5t-54.5 -31t-57 -51.5l-64 47q76 82 150.5 113.5t167.5 31.5q53 0 102 -13t84 -40 t51 -68t4 -96q-16 -78 -52 -126t-128 -83q74 -29 105.5 -81t11.5 -144q-31 -139 -137.5 -200.5t-249.5 -61.5q-117 0 -190 43t-95 133z" />
<glyph unicode="&#xb4;" horiz-adv-x="454" d="M354 1184l287 282h158l-340 -282h-105z" />
<glyph unicode="&#xb5;" d="M86 -377l311 1442h123l-153 -715q-29 -133 2.5 -202.5t154.5 -69.5q49 0 92 14t88.5 41t93.5 63.5t109 84.5l170 784h123l-229 -1065h-123l35 168q-104 -90 -196.5 -139t-209.5 -49q-123 0 -180 49l-88 -406h-123z" />
<glyph unicode="&#xb6;" horiz-adv-x="1024" d="M264 1077q43 195 185.5 298.5t359.5 103.5h539l-21 -90h-151l-336 -1553h-103l336 1553h-215l-336 -1553h-102l184 852q-90 0 -160.5 31t-115.5 84t-62.5 123.5t-1.5 150.5z" />
<glyph unicode="&#xb7;" horiz-adv-x="569" d="M297 532q10 43 47 73t78 30t65.5 -30t14.5 -73t-47 -72.5t-78 -29.5t-65.5 29.5t-14.5 72.5z" />
<glyph unicode="&#xb8;" horiz-adv-x="454" d="M-82 -385l45 74q23 -10 53.5 -21.5t57.5 -11.5q137 0 153 84q10 43 -14.5 63.5t-58.5 20.5q-25 0 -50.5 -5t-44.5 -14l-24 27l160 168h77l-110 -102l2 -4q10 4 28.5 8t38.5 4q74 0 106 -46t15 -126q-10 -41 -36.5 -71t-63.5 -50.5t-77 -29.5t-73 -9q-51 0 -97 9t-87 32z " />
<glyph unicode="&#xb9;" horiz-adv-x="681" d="M279 598l18 90h149l154 709l-176 -41l16 76l205 67h84l-176 -811h158l-19 -90h-413z" />
<glyph unicode="&#xba;" horiz-adv-x="614" d="M260 1044.5q-2 59.5 12 124.5q14 63 41 124t71 106t104.5 72.5t142.5 27.5q80 0 129 -27.5t71.5 -72.5t24.5 -105.5t-12 -124.5q-14 -66 -41 -125t-70 -104t-104.5 -72.5t-141.5 -27.5q-82 0 -131 27.5t-71.5 72.5t-24.5 104.5zM386 993q24 -59 122 -59t147.5 59.5 t73.5 175.5q25 115 2.5 175.5t-121.5 60.5q-98 0 -148 -60.5t-75 -175.5q-25 -117 -1 -176z" />
<glyph unicode="&#xbb;" horiz-adv-x="1024" d="M213 217l324 311l-187 320h135l181 -320l-318 -311h-135zM518 217l322 311l-185 320h136l178 -320l-316 -311h-135z" />
<glyph unicode="&#xbc;" horiz-adv-x="1708" d="M328 598l18 90h150l153 709l-176 -41l16 76l205 67h84l-176 -811h158l-19 -90h-413zM365 -20l1239 1519h116l-1235 -1519h-120zM991 213l21 98l526 578h137l-125 -586h146l-21 -90h-145l-45 -213h-107l45 213h-432zM1126 303h318l98 463h-8z" />
<glyph unicode="&#xbd;" horiz-adv-x="1708" d="M328 598l18 90h150l153 709l-176 -41l16 76l205 67h84l-176 -811h158l-19 -90h-413zM340 -20l1239 1519h117l-1235 -1519h-121zM1008 0l14 68q6 27 18.5 54.5t45 61t93 75.5t158.5 101q92 53 149.5 93.5t91.5 72t50.5 59t22.5 58.5q16 76 -19 122t-112 46q-92 0 -160 -43 t-109 -135l-90 14q49 121 147.5 187.5t227.5 66.5q127 0 187.5 -69.5t33.5 -196.5q-14 -63 -50 -109.5t-85 -84.5t-107.5 -71.5t-115.5 -70.5q-129 -84 -192.5 -128t-73.5 -81h503l-18 -90h-610z" />
<glyph unicode="&#xbe;" horiz-adv-x="1708" d="M225 762l94 49q27 -78 74 -106.5t142 -28.5q109 0 174 46t82 124q20 94 -38.5 136t-181.5 42h-88l19 90h71q117 0 189 37t90 123q14 66 -30 100.5t-115 34.5q-41 0 -72 -4t-58.5 -15.5t-54 -31t-57.5 -51.5l-64 47q76 82 151 113.5t167 31.5q53 0 102 -13t84 -40 t51.5 -68t4.5 -96q-16 -78 -52.5 -126t-128.5 -83q74 -29 106 -81t11 -144q-31 -139 -137.5 -200.5t-249.5 -61.5q-117 0 -189.5 43t-95.5 133zM397 -20l1239 1519h117l-1235 -1519h-121zM991 213l21 98l526 578h137l-125 -586h146l-21 -90h-145l-45 -213h-107l45 213h-432z M1126 303h318l98 463h-8z" />
<glyph unicode="&#xbf;" horiz-adv-x="796" d="M35.5 -244.5q-15.5 62.5 3.5 144.5q14 68 52 122t87 102t103.5 91t103.5 89t85 97.5t50 114.5l21 98h110l-30 -147q-16 -80 -81 -146.5t-140.5 -134t-143.5 -143.5t-88 -170q-20 -96 28 -146.5t134 -50.5q51 0 93 18.5t77 46.5t61.5 62.5t44.5 65.5l90 -51 q-66 -115 -163 -183.5t-228 -68.5q-66 0 -122 21.5t-94 63.5t-53.5 104.5zM573 881l39 184h176l-38 -184h-177z" />
<glyph unicode="&#xc0;" horiz-adv-x="1251" d="M51 0l793 1479h207l147 -1479h-143l-45 483h-559l-256 -483h-144zM508 594h493l-77 774h-4zM756 1824h157l168 -282h-104z" />
<glyph unicode="&#xc1;" horiz-adv-x="1251" d="M51 0l793 1479h207l147 -1479h-143l-45 483h-559l-256 -483h-144zM508 594h493l-77 774h-4zM823 1542l287 282h158l-340 -282h-105z" />
<glyph unicode="&#xc2;" horiz-adv-x="1251" d="M51 0l793 1479h207l147 -1479h-143l-45 483h-559l-256 -483h-144zM508 594h493l-77 774h-4zM649 1542l293 282h139l174 -282h-135l-125 207l-211 -207h-135z" />
<glyph unicode="&#xc3;" horiz-adv-x="1251" d="M51 0l793 1479h207l147 -1479h-143l-45 483h-559l-256 -483h-144zM508 594h493l-77 774h-4zM635 1564q10 35 31.5 71t51.5 64.5t65.5 46t74.5 17.5t74 -14.5t67 -30.5q35 -16 67 -30.5t65 -14.5q41 0 70.5 31.5t43.5 68.5h78q-16 -39 -35.5 -74.5t-46.5 -63.5t-62.5 -44 t-80.5 -16q-33 0 -68 15t-69 32q-35 16 -68 30.5t-62 14.5q-45 0 -74.5 -32t-43.5 -71h-78z" />
<glyph unicode="&#xc4;" horiz-adv-x="1251" d="M51 0l793 1479h207l147 -1479h-143l-45 483h-559l-256 -483h-144zM508 594h493l-77 774h-4zM729 1562l41 193h135l-41 -193h-135zM1049 1562l41 193h135l-41 -193h-135z" />
<glyph unicode="&#xc5;" horiz-adv-x="1251" d="M51 0l793 1479h207l147 -1479h-143l-45 483h-559l-256 -483h-144zM508 594h493l-77 774h-4zM787.5 1657.5q-9.5 37.5 0.5 80.5t35 80t58.5 64.5t74.5 44t82 16.5t75 -16.5t56.5 -44t30.5 -64.5t-2 -80t-33.5 -80.5t-57.5 -65.5t-75 -43t-82 -15t-74.5 15t-56 43t-32 65.5 zM858 1738q-12 -57 19.5 -96t87.5 -39q55 0 103 39t60 96t-18.5 96.5t-85.5 39.5t-104.5 -39t-61.5 -97z" />
<glyph unicode="&#xc6;" horiz-adv-x="1933" d="M37 0l1143 1479h952l-25 -111h-696l-117 -545h498l-25 -110h-497l-131 -602h735l-23 -111h-870l104 483h-534l-363 -483h-151zM639 594h469l168 770h-35z" />
<glyph unicode="&#xc7;" horiz-adv-x="1251" d="M228.5 428q-7.5 139 29.5 311t105.5 311.5t164 240t212 154.5t251.5 54q98 0 169 -32.5t116 -90t68.5 -136.5t27.5 -169l-131 -27q-12 164 -81.5 254.5t-205.5 90.5q-111 0 -200.5 -50.5t-160.5 -138.5t-121 -207t-79 -254q-31 -135 -31 -253.5t34 -207t105.5 -138.5 t186.5 -50q88 0 157.5 30t123 79t94.5 114.5t76 137.5l123 -23q-43 -98 -98.5 -181t-128 -142.5t-165 -92t-208.5 -32.5q-135 0 -228.5 54t-145.5 154.5t-59.5 239.5zM332 -385l45 74q23 -10 53.5 -21.5t57.5 -11.5q137 0 153 84q10 43 -14.5 63.5t-58.5 20.5 q-25 0 -50.5 -5t-44.5 -14l-24 27l160 168h77l-110 -102l2 -4q10 4 28.5 8t38.5 4q74 0 106 -46t15 -126q-10 -41 -36.5 -71t-63.5 -50.5t-77 -29.5t-73 -9q-51 0 -97 9t-87 32z" />
<glyph unicode="&#xc8;" d="M205 0l319 1479h844l-25 -111h-708l-117 -545h510l-24 -110h-510l-132 -602h748l-23 -111h-882zM766 1824h157l168 -282h-104z" />
<glyph unicode="&#xc9;" d="M205 0l319 1479h844l-25 -111h-708l-117 -545h510l-24 -110h-510l-132 -602h748l-23 -111h-882zM833 1542l287 282h158l-340 -282h-105z" />
<glyph unicode="&#xca;" d="M205 0l319 1479h844l-25 -111h-708l-117 -545h510l-24 -110h-510l-132 -602h748l-23 -111h-882zM659 1542l293 282h139l174 -282h-135l-125 207l-211 -207h-135z" />
<glyph unicode="&#xcb;" d="M205 0l319 1479h844l-25 -111h-708l-117 -545h510l-24 -110h-510l-132 -602h748l-23 -111h-882zM739 1562l41 193h135l-41 -193h-135zM1059 1562l41 193h135l-41 -193h-135z" />
<glyph unicode="&#xcc;" horiz-adv-x="569" d="M217 0l320 1479h135l-320 -1479h-135zM406 1824h157l168 -282h-104z" />
<glyph unicode="&#xcd;" horiz-adv-x="569" d="M217 0l320 1479h135l-320 -1479h-135zM473 1542l287 282h158l-340 -282h-105z" />
<glyph unicode="&#xce;" horiz-adv-x="569" d="M217 0l320 1479h135l-320 -1479h-135zM299 1542l293 282h139l174 -282h-135l-125 207l-211 -207h-135z" />
<glyph unicode="&#xcf;" horiz-adv-x="569" d="M217 0l320 1479h135l-320 -1479h-135zM379 1562l41 193h135l-41 -193h-135zM699 1562l41 193h135l-41 -193h-135z" />
<glyph unicode="&#xd0;" horiz-adv-x="1366" d="M174 713l25 110h184l141 656h418q172 0 280.5 -60.5t164 -162t62.5 -235.5t-24 -282q-33 -147 -97 -281t-163.5 -235.5t-234.5 -162t-307 -60.5h-418l153 713h-184zM362 111h287q248 0 412 163.5t229 464.5q66 301 -27.5 465t-340.5 164h-287l-117 -545h402l-25 -110 h-401z" />
<glyph unicode="&#xd1;" horiz-adv-x="1478" d="M205 0l319 1479h228l434 -1233h4l268 1233h135l-319 -1479h-139l-496 1368h-4l-295 -1368h-135zM754 1564q10 35 31.5 71t51.5 64.5t65.5 46t74.5 17.5t74 -14.5t67 -30.5q35 -16 67 -30.5t65 -14.5q41 0 70.5 31.5t43.5 68.5h78q-16 -39 -35.5 -74.5t-46.5 -63.5 t-62.5 -44t-80.5 -16q-33 0 -68 15t-69 32q-35 16 -68 30.5t-62 14.5q-45 0 -74.5 -32t-43.5 -71h-78z" />
<glyph unicode="&#xd2;" horiz-adv-x="1366" d="M231.5 436q-8.5 139 26.5 303t104.5 303.5t166 240.5t217.5 158.5t260 57.5t235 -57.5t148.5 -158.5t61.5 -240.5t-26 -303.5t-104.5 -303t-166.5 -240.5t-218 -158.5t-260 -57t-235.5 57t-148.5 158.5t-60.5 240.5zM393 739q-68 -313 17 -481t290 -168q102 0 194.5 43 t169.5 126t134 204t92 276q68 313 -18 481.5t-291 168.5q-102 0 -194.5 -43t-168 -126t-134 -204t-91.5 -277zM819 1824h157l168 -282h-104z" />
<glyph unicode="&#xd3;" horiz-adv-x="1366" d="M231.5 436q-8.5 139 26.5 303t104.5 303.5t166 240.5t217.5 158.5t260 57.5t235 -57.5t148.5 -158.5t61.5 -240.5t-26 -303.5t-104.5 -303t-166.5 -240.5t-218 -158.5t-260 -57t-235.5 57t-148.5 158.5t-60.5 240.5zM393 739q-68 -313 17 -481t290 -168q102 0 194.5 43 t169.5 126t134 204t92 276q68 313 -18 481.5t-291 168.5q-102 0 -194.5 -43t-168 -126t-134 -204t-91.5 -277zM886 1542l287 282h158l-340 -282h-105z" />
<glyph unicode="&#xd4;" horiz-adv-x="1366" d="M231.5 436q-8.5 139 26.5 303t104.5 303.5t166 240.5t217.5 158.5t260 57.5t235 -57.5t148.5 -158.5t61.5 -240.5t-26 -303.5t-104.5 -303t-166.5 -240.5t-218 -158.5t-260 -57t-235.5 57t-148.5 158.5t-60.5 240.5zM393 739q-68 -313 17 -481t290 -168q102 0 194.5 43 t169.5 126t134 204t92 276q68 313 -18 481.5t-291 168.5q-102 0 -194.5 -43t-168 -126t-134 -204t-91.5 -277zM712 1542l293 282h139l174 -282h-135l-125 207l-211 -207h-135z" />
<glyph unicode="&#xd5;" horiz-adv-x="1366" d="M231.5 436q-8.5 139 26.5 303t104.5 303.5t166 240.5t217.5 158.5t260 57.5t235 -57.5t148.5 -158.5t61.5 -240.5t-26 -303.5t-104.5 -303t-166.5 -240.5t-218 -158.5t-260 -57t-235.5 57t-148.5 158.5t-60.5 240.5zM393 739q-68 -313 17 -481t290 -168q102 0 194.5 43 t169.5 126t134 204t92 276q68 313 -18 481.5t-291 168.5q-102 0 -194.5 -43t-168 -126t-134 -204t-91.5 -277zM698 1564q10 35 31.5 71t51.5 64.5t65.5 46t74.5 17.5t74 -14.5t67 -30.5q35 -16 67 -30.5t65 -14.5q41 0 70.5 31.5t43.5 68.5h78q-16 -39 -35.5 -74.5 t-46.5 -63.5t-62.5 -44t-80.5 -16q-33 0 -68 15t-69 32q-35 16 -68 30.5t-62 14.5q-45 0 -74.5 -32t-43.5 -71h-78z" />
<glyph unicode="&#xd6;" horiz-adv-x="1366" d="M231.5 436q-8.5 139 26.5 303t104.5 303.5t166 240.5t217.5 158.5t260 57.5t235 -57.5t148.5 -158.5t61.5 -240.5t-26 -303.5t-104.5 -303t-166.5 -240.5t-218 -158.5t-260 -57t-235.5 57t-148.5 158.5t-60.5 240.5zM393 739q-68 -313 17 -481t290 -168q102 0 194.5 43 t169.5 126t134 204t92 276q68 313 -18 481.5t-291 168.5q-102 0 -194.5 -43t-168 -126t-134 -204t-91.5 -277zM792 1562l41 193h135l-41 -193h-135zM1112 1562l41 193h135l-41 -193h-135z" />
<glyph unicode="&#xd7;" horiz-adv-x="1228" d="M98 78l553 454l-356 455l94 78l356 -455l553 455l62 -78l-553 -455l356 -454l-94 -78l-356 455l-553 -455z" />
<glyph unicode="&#xd8;" horiz-adv-x="1366" d="M61 -98l240 280q-59 104 -69.5 246.5t26.5 310.5q35 164 104.5 303.5t166 240.5t217 158.5t260.5 57.5q104 0 183 -31.5t134 -91.5l170 201h129l-240 -281q57 -100 68.5 -242.5t-25.5 -314.5q-35 -164 -104.5 -303t-166.5 -240.5t-218 -158.5t-260 -57q-104 0 -182 31.5 t-134 88.5l-170 -198h-129zM393 739q-61 -279 4 -444l838 979q-84 115 -254 115q-102 0 -194.5 -43t-168 -126t-134 -204t-91.5 -277zM449 203q82 -113 251 -113q102 0 194.5 43t169.5 126t134 204t92 276q31 141 29 253t-35 190z" />
<glyph unicode="&#xd9;" horiz-adv-x="1478" d="M309 483l215 996h135l-219 -1008q-23 -106 -13.5 -179t50.5 -118t111.5 -64.5t169.5 -19.5q98 0 177 19.5t138.5 64.5t101.5 118t64 179l219 1008h135l-215 -996q-109 -504 -645 -503q-532 0 -424 503zM865 1824h157l168 -282h-104z" />
<glyph unicode="&#xda;" horiz-adv-x="1478" d="M309 483l215 996h135l-219 -1008q-23 -106 -13.5 -179t50.5 -118t111.5 -64.5t169.5 -19.5q98 0 177 19.5t138.5 64.5t101.5 118t64 179l219 1008h135l-215 -996q-109 -504 -645 -503q-532 0 -424 503zM932 1542l287 282h158l-340 -282h-105z" />
<glyph unicode="&#xdb;" horiz-adv-x="1478" d="M309 483l215 996h135l-219 -1008q-23 -106 -13.5 -179t50.5 -118t111.5 -64.5t169.5 -19.5q98 0 177 19.5t138.5 64.5t101.5 118t64 179l219 1008h135l-215 -996q-109 -504 -645 -503q-532 0 -424 503zM758 1542l293 282h139l174 -282h-135l-125 207l-211 -207h-135z" />
<glyph unicode="&#xdc;" horiz-adv-x="1478" d="M309 483l215 996h135l-219 -1008q-23 -106 -13.5 -179t50.5 -118t111.5 -64.5t169.5 -19.5q98 0 177 19.5t138.5 64.5t101.5 118t64 179l219 1008h135l-215 -996q-109 -504 -645 -503q-532 0 -424 503zM838 1562l41 193h135l-41 -193h-135zM1158 1562l41 193h135 l-41 -193h-135z" />
<glyph unicode="&#xdd;" d="M360 1479h152l207 -731l547 731h151l-653 -852l-135 -627h-135l135 627zM772 1542l287 282h158l-340 -282h-105z" />
<glyph unicode="&#xde;" horiz-adv-x="1251" d="M205 0l319 1479h135l-67 -308h311q131 0 220 -29.5t138.5 -82.5t61.5 -130t-8 -169q-41 -186 -183.5 -299t-406.5 -113h-311l-74 -348h-135zM438 459h312q193 0 295 76.5t135 224.5q31 147 -38 224t-261 77h-312z" />
<glyph unicode="&#xdf;" horiz-adv-x="1024" d="M156 0l235 1092q37 174 149.5 280.5t295.5 106.5q78 0 137 -28t94 -77t46 -115.5t-5 -144.5q-23 -102 -87.5 -182t-166.5 -125q129 -43 177 -146.5t18 -248.5q-43 -199 -159 -315.5t-286 -116.5q-43 0 -94 12t-84 35l63 92q29 -16 68 -28.5t76 -12.5q106 0 181 86 t108 233q39 186 -39 263t-260 77l22 99q135 4 222 67.5t120 214.5q29 123 -19 192.5t-173 69.5q-66 0 -113 -24.5t-81 -64.5t-54.5 -91t-30.5 -102l-237 -1098h-123z" />
<glyph unicode="&#xe0;" horiz-adv-x="1024" d="M109 258q25 109 83 178.5t154 115.5t230.5 79t310.5 69l14 74q20 106 -19.5 159.5t-176.5 53.5q-96 0 -185.5 -50t-167.5 -142l-69 49q98 129 207.5 185t238.5 56q182 0 253 -77.5t32 -255.5l-121 -557q-10 -41 -16.5 -91.5t-8.5 -103.5h-118l10 129 q-55 -37 -104.5 -65.5t-99.5 -47t-102.5 -27.5t-113.5 -9q-125 0 -192.5 72.5t-38.5 205.5zM231 260q-18 -88 25 -135t127 -47q86 0 193.5 47t205.5 129l76 348q-190 -41 -308 -80t-185.5 -81t-95 -86t-38.5 -95zM572 1466h157l168 -282h-104z" />
<glyph unicode="&#xe1;" horiz-adv-x="1024" d="M109 258q25 109 83 178.5t154 115.5t230.5 79t310.5 69l14 74q20 106 -19.5 159.5t-176.5 53.5q-96 0 -185.5 -50t-167.5 -142l-69 49q98 129 207.5 185t238.5 56q182 0 253 -77.5t32 -255.5l-121 -557q-10 -41 -16.5 -91.5t-8.5 -103.5h-118l10 129 q-55 -37 -104.5 -65.5t-99.5 -47t-102.5 -27.5t-113.5 -9q-125 0 -192.5 72.5t-38.5 205.5zM231 260q-18 -88 25 -135t127 -47q86 0 193.5 47t205.5 129l76 348q-190 -41 -308 -80t-185.5 -81t-95 -86t-38.5 -95zM639 1184l287 282h158l-340 -282h-105z" />
<glyph unicode="&#xe2;" horiz-adv-x="1024" d="M109 258q25 109 83 178.5t154 115.5t230.5 79t310.5 69l14 74q20 106 -19.5 159.5t-176.5 53.5q-96 0 -185.5 -50t-167.5 -142l-69 49q98 129 207.5 185t238.5 56q182 0 253 -77.5t32 -255.5l-121 -557q-10 -41 -16.5 -91.5t-8.5 -103.5h-118l10 129 q-55 -37 -104.5 -65.5t-99.5 -47t-102.5 -27.5t-113.5 -9q-125 0 -192.5 72.5t-38.5 205.5zM231 260q-18 -88 25 -135t127 -47q86 0 193.5 47t205.5 129l76 348q-190 -41 -308 -80t-185.5 -81t-95 -86t-38.5 -95zM465 1184l293 282h139l174 -282h-135l-125 207l-211 -207 h-135z" />
<glyph unicode="&#xe3;" horiz-adv-x="1024" d="M109 258q25 109 83 178.5t154 115.5t230.5 79t310.5 69l14 74q20 106 -19.5 159.5t-176.5 53.5q-96 0 -185.5 -50t-167.5 -142l-69 49q98 129 207.5 185t238.5 56q182 0 253 -77.5t32 -255.5l-121 -557q-10 -41 -16.5 -91.5t-8.5 -103.5h-118l10 129 q-55 -37 -104.5 -65.5t-99.5 -47t-102.5 -27.5t-113.5 -9q-125 0 -192.5 72.5t-38.5 205.5zM231 260q-18 -88 25 -135t127 -47q86 0 193.5 47t205.5 129l76 348q-190 -41 -308 -80t-185.5 -81t-95 -86t-38.5 -95zM451 1206q10 35 31.5 71t51.5 64.5t65.5 46t74.5 17.5 t74 -14.5t67 -30.5q35 -16 67 -30.5t65 -14.5q41 0 70.5 31.5t43.5 68.5h78q-16 -39 -35.5 -74.5t-46.5 -63.5t-62.5 -44t-80.5 -16q-33 0 -68 15t-69 32q-35 16 -68 30.5t-62 14.5q-45 0 -74.5 -32t-43.5 -71h-78z" />
<glyph unicode="&#xe4;" horiz-adv-x="1024" d="M109 258q25 109 83 178.5t154 115.5t230.5 79t310.5 69l14 74q20 106 -19.5 159.5t-176.5 53.5q-96 0 -185.5 -50t-167.5 -142l-69 49q98 129 207.5 185t238.5 56q182 0 253 -77.5t32 -255.5l-121 -557q-10 -41 -16.5 -91.5t-8.5 -103.5h-118l10 129 q-55 -37 -104.5 -65.5t-99.5 -47t-102.5 -27.5t-113.5 -9q-125 0 -192.5 72.5t-38.5 205.5zM231 260q-18 -88 25 -135t127 -47q86 0 193.5 47t205.5 129l76 348q-190 -41 -308 -80t-185.5 -81t-95 -86t-38.5 -95zM545 1204l41 193h135l-41 -193h-135zM865 1204l41 193h135 l-41 -193h-135z" />
<glyph unicode="&#xe5;" horiz-adv-x="1024" d="M109 258q25 109 83 178.5t154 115.5t230.5 79t310.5 69l14 74q20 106 -19.5 159.5t-176.5 53.5q-96 0 -185.5 -50t-167.5 -142l-69 49q98 129 207.5 185t238.5 56q182 0 253 -77.5t32 -255.5l-121 -557q-10 -41 -16.5 -91.5t-8.5 -103.5h-118l10 129 q-55 -37 -104.5 -65.5t-99.5 -47t-102.5 -27.5t-113.5 -9q-125 0 -192.5 72.5t-38.5 205.5zM231 260q-18 -88 25 -135t127 -47q86 0 193.5 47t205.5 129l76 348q-190 -41 -308 -80t-185.5 -81t-95 -86t-38.5 -95zM603.5 1299.5q-9.5 37.5 0.5 80.5t35 80t58.5 64.5t74.5 44 t82 16.5t75 -16.5t56.5 -44t30.5 -64.5t-2 -80t-33.5 -80.5t-57.5 -65.5t-75 -43t-82 -15t-74.5 15t-56 43t-32 65.5zM674 1380q-12 -57 19.5 -96t87.5 -39q55 0 103 39t60 96t-18.5 96.5t-85.5 39.5t-104.5 -39t-61.5 -97z" />
<glyph unicode="&#xe6;" horiz-adv-x="1593" d="M109 258q25 109 82 178.5t149 115.5t218 79t286 69l14 74q8 41 4 79t-24.5 67.5t-58.5 48t-99 18.5q-113 0 -189.5 -50t-134.5 -146l-77 53q82 129 183 185t230 56q49 0 94 -8t84 -28.5t68 -53t41 -84.5q78 86 170 130t190 44q106 0 174 -40.5t101 -114.5t33 -176.5 t-27 -225.5h-692q-18 -90 -21.5 -172t18 -143t69.5 -98t130 -37q51 0 93.5 10t83 34.5t83.5 65.5t97 105l90 -53q-59 -72 -112.5 -121t-110 -80t-119 -45t-137.5 -14q-109 0 -182.5 48t-118.5 132q-111 -106 -222.5 -143t-228.5 -37q-125 0 -192.5 72.5t-38.5 205.5z M231 260q-18 -88 25 -135t127 -47q43 0 92 12t97.5 34.5t93.5 55.5t79 74l76 348q-178 -41 -287.5 -80t-173 -81t-91 -86t-38.5 -95zM950 627h570q8 82 3 148.5t-29 113.5t-68 72.5t-111 25.5q-70 0 -127.5 -28.5t-103.5 -78t-79.5 -115t-54.5 -138.5z" />
<glyph unicode="&#xe7;" horiz-adv-x="1024" d="M170 310.5q-8 101.5 18 221.5q31 137 86.5 241t130 173.5t167 104t194.5 34.5q152 0 229.5 -77.5t98.5 -210.5l-121 -31q-10 45 -27.5 86t-44.5 70.5t-64.5 47t-91.5 17.5q-76 0 -142 -24.5t-122.5 -79t-99.5 -141.5t-70 -210q-23 -102 -18.5 -186t35 -143.5t86 -92 t135.5 -32.5q113 0 196.5 59.5t169.5 161.5l89 -47q-47 -57 -98.5 -106.5t-111 -86t-126 -58t-142.5 -21.5q-113 0 -189.5 40.5t-117.5 114.5t-49 175.5zM203 -385l45 74q23 -10 53.5 -21.5t57.5 -11.5q137 0 153 84q10 43 -14.5 63.5t-58.5 20.5q-25 0 -50.5 -5t-44.5 -14 l-24 27l160 168h77l-110 -102l2 -4q10 4 28.5 8t38.5 4q74 0 106 -46t15 -126q-10 -41 -36.5 -71t-63.5 -50.5t-77 -29.5t-73 -9q-51 0 -97 9t-87 32z" />
<glyph unicode="&#xe8;" horiz-adv-x="1024" d="M188 532q27 123 79 225.5t125 175.5t162 112.5t191 39.5q109 0 179.5 -40.5t107.5 -114.5t41 -176.5t-22 -225.5h-742q-18 -90 -16 -172t29.5 -143t85 -98t147.5 -37q51 0 93 10t83 34.5t84 65.5t96 105l90 -53q-59 -72 -112 -121t-109.5 -80t-119 -45t-138.5 -14 q-209 0 -302 136t-32 416zM332 627h618q16 166 -36 262t-193 98q-82 0 -148.5 -36t-115.5 -90t-81 -117.5t-44 -116.5zM572 1466h157l168 -282h-104z" />
<glyph unicode="&#xe9;" horiz-adv-x="1024" d="M188 532q27 123 79 225.5t125 175.5t162 112.5t191 39.5q109 0 179.5 -40.5t107.5 -114.5t41 -176.5t-22 -225.5h-742q-18 -90 -16 -172t29.5 -143t85 -98t147.5 -37q51 0 93 10t83 34.5t84 65.5t96 105l90 -53q-59 -72 -112 -121t-109.5 -80t-119 -45t-138.5 -14 q-209 0 -302 136t-32 416zM332 627h618q16 166 -36 262t-193 98q-82 0 -148.5 -36t-115.5 -90t-81 -117.5t-44 -116.5zM639 1184l287 282h158l-340 -282h-105z" />
<glyph unicode="&#xea;" horiz-adv-x="1024" d="M188 532q27 123 79 225.5t125 175.5t162 112.5t191 39.5q109 0 179.5 -40.5t107.5 -114.5t41 -176.5t-22 -225.5h-742q-18 -90 -16 -172t29.5 -143t85 -98t147.5 -37q51 0 93 10t83 34.5t84 65.5t96 105l90 -53q-59 -72 -112 -121t-109.5 -80t-119 -45t-138.5 -14 q-209 0 -302 136t-32 416zM332 627h618q16 166 -36 262t-193 98q-82 0 -148.5 -36t-115.5 -90t-81 -117.5t-44 -116.5zM465 1184l293 282h139l174 -282h-135l-125 207l-211 -207h-135z" />
<glyph unicode="&#xeb;" horiz-adv-x="1024" d="M188 532q27 123 79 225.5t125 175.5t162 112.5t191 39.5q109 0 179.5 -40.5t107.5 -114.5t41 -176.5t-22 -225.5h-742q-18 -90 -16 -172t29.5 -143t85 -98t147.5 -37q51 0 93 10t83 34.5t84 65.5t96 105l90 -53q-59 -72 -112 -121t-109.5 -80t-119 -45t-138.5 -14 q-209 0 -302 136t-32 416zM332 627h618q16 166 -36 262t-193 98q-82 0 -148.5 -36t-115.5 -90t-81 -117.5t-44 -116.5zM545 1204l41 193h135l-41 -193h-135zM865 1204l41 193h135l-41 -193h-135z" />
<glyph unicode="&#xec;" horiz-adv-x="454" d="M166 0l229 1065h123l-229 -1065h-123zM287 1466h157l168 -282h-104z" />
<glyph unicode="&#xed;" horiz-adv-x="454" d="M166 0l229 1065h123l-229 -1065h-123zM354 1184l287 282h158l-340 -282h-105z" />
<glyph unicode="&#xee;" horiz-adv-x="454" d="M166 0l229 1065h123l-229 -1065h-123zM180 1184l293 282h139l174 -282h-135l-125 207l-211 -207h-135z" />
<glyph unicode="&#xef;" horiz-adv-x="454" d="M166 0l229 1065h123l-229 -1065h-123zM260 1204l41 193h135l-41 -193h-135zM580 1204l41 193h135l-41 -193h-135z" />
<glyph unicode="&#xf0;" horiz-adv-x="1024" d="M164 324.5q0 99.5 24 207.5q23 109 66 208.5t110.5 176t162 122.5t218.5 46q119 0 193 -45l6 4q-35 104 -96 199l-234 -108l-39 82l213 100q-27 29 -57.5 56.5t-66.5 51.5l120 54q70 -53 119 -109l234 109l39 -82l-211 -101q59 -86 90.5 -179t41 -190.5t-1 -196.5 t-30.5 -198q-23 -109 -67 -208t-111.5 -175.5t-161.5 -122.5t-219 -46t-199 46t-108.5 122.5t-34.5 176zM311 532q-47 -217 2 -335.5t215 -118.5t266.5 118.5t147.5 335.5q45 217 -4 336t-213 119q-166 0 -266.5 -118.5t-147.5 -336.5z" />
<glyph unicode="&#xf1;" d="M168 0l229 1065h123l-37 -168q106 90 197.5 139t208.5 49q166 0 220 -92t17 -266l-155 -727h-123l153 715q29 133 -2.5 202.5t-154.5 69.5q-49 0 -93 -14.5t-88.5 -41t-93.5 -64.5t-110 -83l-168 -784h-123zM494 1206q10 35 31.5 71t51.5 64.5t65.5 46t74.5 17.5 t74 -14.5t67 -30.5q35 -16 67 -30.5t65 -14.5q41 0 70.5 31.5t43.5 68.5h78q-16 -39 -35.5 -74.5t-46.5 -63.5t-62.5 -44t-80.5 -16q-33 0 -68 15t-69 32q-35 16 -68 30.5t-62 14.5q-45 0 -74.5 -32t-43.5 -71h-78z" />
<glyph unicode="&#xf2;" horiz-adv-x="1024" d="M164 324.5q0 99.5 24 207.5q23 109 66 208.5t110.5 176t161.5 122.5t219 46t199 -46t108.5 -122.5t34.5 -176t-22 -208.5q-25 -109 -68 -208t-110.5 -175.5t-161.5 -122.5t-219 -46t-199 46t-108.5 122.5t-34.5 176zM311 532q-47 -217 2 -335.5t215 -118.5t266.5 118.5 t147.5 335.5q45 217 -4 336t-213 119q-166 0 -266.5 -118.5t-147.5 -336.5zM561 1466h157l168 -282h-104z" />
<glyph unicode="&#xf3;" horiz-adv-x="1024" d="M164 324.5q0 99.5 24 207.5q23 109 66 208.5t110.5 176t161.5 122.5t219 46t199 -46t108.5 -122.5t34.5 -176t-22 -208.5q-25 -109 -68 -208t-110.5 -175.5t-161.5 -122.5t-219 -46t-199 46t-108.5 122.5t-34.5 176zM311 532q-47 -217 2 -335.5t215 -118.5t266.5 118.5 t147.5 335.5q45 217 -4 336t-213 119q-166 0 -266.5 -118.5t-147.5 -336.5zM628 1184l287 282h158l-340 -282h-105z" />
<glyph unicode="&#xf4;" horiz-adv-x="1024" d="M164 324.5q0 99.5 24 207.5q23 109 66 208.5t110.5 176t161.5 122.5t219 46t199 -46t108.5 -122.5t34.5 -176t-22 -208.5q-25 -109 -68 -208t-110.5 -175.5t-161.5 -122.5t-219 -46t-199 46t-108.5 122.5t-34.5 176zM311 532q-47 -217 2 -335.5t215 -118.5t266.5 118.5 t147.5 335.5q45 217 -4 336t-213 119q-166 0 -266.5 -118.5t-147.5 -336.5zM454 1184l293 282h139l174 -282h-135l-125 207l-211 -207h-135z" />
<glyph unicode="&#xf5;" horiz-adv-x="1024" d="M164 324.5q0 99.5 24 207.5q23 109 66 208.5t110.5 176t161.5 122.5t219 46t199 -46t108.5 -122.5t34.5 -176t-22 -208.5q-25 -109 -68 -208t-110.5 -175.5t-161.5 -122.5t-219 -46t-199 46t-108.5 122.5t-34.5 176zM311 532q-47 -217 2 -335.5t215 -118.5t266.5 118.5 t147.5 335.5q45 217 -4 336t-213 119q-166 0 -266.5 -118.5t-147.5 -336.5zM440 1206q10 35 31.5 71t51.5 64.5t65.5 46t74.5 17.5t74 -14.5t67 -30.5q35 -16 67 -30.5t65 -14.5q41 0 70.5 31.5t43.5 68.5h78q-16 -39 -35.5 -74.5t-46.5 -63.5t-62.5 -44t-80.5 -16 q-33 0 -68 15t-69 32q-35 16 -68 30.5t-62 14.5q-45 0 -74.5 -32t-43.5 -71h-78z" />
<glyph unicode="&#xf6;" horiz-adv-x="1024" d="M164 324.5q0 99.5 24 207.5q23 109 66 208.5t110.5 176t161.5 122.5t219 46t199 -46t108.5 -122.5t34.5 -176t-22 -208.5q-25 -109 -68 -208t-110.5 -175.5t-161.5 -122.5t-219 -46t-199 46t-108.5 122.5t-34.5 176zM311 532q-47 -217 2 -335.5t215 -118.5t266.5 118.5 t147.5 335.5q45 217 -4 336t-213 119q-166 0 -266.5 -118.5t-147.5 -336.5zM534 1204l41 193h135l-41 -193h-135zM854 1204l41 193h135l-41 -193h-135z" />
<glyph unicode="&#xf7;" horiz-adv-x="1228" d="M184 477l25 111h1065l-25 -111h-1065zM516 88q10 47 52 82t89 35t75 -35t18 -82t-53.5 -82t-90.5 -35t-73.5 35t-16.5 82zM709 977q10 47 52 82t89 35t74.5 -35t17.5 -82t-53 -82t-90 -35t-74 35t-16 82z" />
<glyph unicode="&#xf8;" horiz-adv-x="1024" d="M-6 -164l225 275q-51 78 -54 188.5t23 232.5q23 109 66 208.5t110.5 176t162 122.5t218.5 46q147 0 228 -67l174 211h117l-230 -277q49 -78 53.5 -187.5t-22.5 -232.5q-25 -109 -68 -208t-110.5 -175.5t-161.5 -122.5t-219 -46q-145 0 -225 67l-175 -211h-112zM286.5 353 q-1.5 -79 20.5 -136l590 709q-59 61 -172 61q-166 0 -266.5 -118.5t-147.5 -336.5q-23 -100 -24.5 -179zM356 137q59 -59 172 -59q166 0 266.5 118.5t147.5 335.5q43 207 4 314z" />
<glyph unicode="&#xf9;" d="M240 338l157 727h123l-153 -715q-29 -133 2.5 -202.5t154.5 -69.5q49 0 92 14t88.5 41t93.5 63.5t109 84.5l170 784h123l-229 -1065h-123l35 168q-104 -90 -196.5 -139t-209.5 -49q-166 0 -220 92t-17 266zM629 1466h157l168 -282h-104z" />
<glyph unicode="&#xfa;" d="M240 338l157 727h123l-153 -715q-29 -133 2.5 -202.5t154.5 -69.5q49 0 92 14t88.5 41t93.5 63.5t109 84.5l170 784h123l-229 -1065h-123l35 168q-104 -90 -196.5 -139t-209.5 -49q-166 0 -220 92t-17 266zM696 1184l287 282h158l-340 -282h-105z" />
<glyph unicode="&#xfb;" d="M240 338l157 727h123l-153 -715q-29 -133 2.5 -202.5t154.5 -69.5q49 0 92 14t88.5 41t93.5 63.5t109 84.5l170 784h123l-229 -1065h-123l35 168q-104 -90 -196.5 -139t-209.5 -49q-166 0 -220 92t-17 266zM522 1184l293 282h139l174 -282h-135l-125 207l-211 -207h-135z " />
<glyph unicode="&#xfc;" d="M240 338l157 727h123l-153 -715q-29 -133 2.5 -202.5t154.5 -69.5q49 0 92 14t88.5 41t93.5 63.5t109 84.5l170 784h123l-229 -1065h-123l35 168q-104 -90 -196.5 -139t-209.5 -49q-166 0 -220 92t-17 266zM602 1204l41 193h135l-41 -193h-135zM922 1204l41 193h135 l-41 -193h-135z" />
<glyph unicode="&#xfd;" horiz-adv-x="909" d="M-45 -365l22 101q25 -4 53.5 -9.5t63.5 -5.5q63 0 143 66t160 229l-143 1049h135l105 -866h4l485 866h131l-645 -1141q-45 -78 -86 -135t-88 -94t-102.5 -54.5t-126.5 -17.5q-41 0 -66 3t-45 9zM581 1184l287 282h158l-340 -282h-105z" />
<glyph unicode="&#xfe;" d="M106 -377l402 1856h123l-125 -578h4q84 92 170 138t190 46t174 -46t108 -123.5t44 -178t-18 -211.5q-31 -139 -83.5 -241.5t-123 -170t-155.5 -101t-177 -33.5q-53 0 -95 9t-77 28.5t-65.5 50t-61.5 71.5l-111 -516h-123zM369 268q8 -27 33.5 -59.5t60.5 -62t78 -49 t88 -19.5q166 0 275.5 124t156.5 347q18 82 16 160.5t-26.5 140t-75.5 99.5t-131 38q-51 0 -96.5 -15.5t-88.5 -41t-86 -61t-92 -76.5z" />
<glyph unicode="&#xff;" horiz-adv-x="909" d="M-45 -365l22 101q25 -4 53.5 -9.5t63.5 -5.5q63 0 143 66t160 229l-143 1049h135l105 -866h4l485 866h131l-645 -1141q-45 -78 -86 -135t-88 -94t-102.5 -54.5t-126.5 -17.5q-41 0 -66 3t-45 9zM487 1204l41 193h135l-41 -193h-135zM807 1204l41 193h135l-41 -193h-135z " />
<glyph unicode="&#x152;" horiz-adv-x="2048" d="M227 431q-6 140 31 308q33 156 104.5 294t177 241.5t242 164t299.5 60.5q43 0 93.5 -3t100.5 -7t95 -7t80 -3h797l-25 -111h-698l-117 -545h500l-25 -110h-500l-131 -602h738l-23 -111h-827q-102 0 -206 -10t-181 -10q-178 0 -291 55t-170.5 155.5t-63.5 240.5z M365.5 462.5q7.5 -120.5 57.5 -203.5t148.5 -126t249.5 -43q147 0 230.5 53.5t105.5 151.5l193 889q23 98 -39 151.5t-209 53.5q-145 0 -262 -47.5t-206 -132.5t-149.5 -204.5t-91.5 -265.5q-35 -156 -27.5 -276.5z" />
<glyph unicode="&#x153;" horiz-adv-x="1705" d="M164 324.5q0 99.5 24 207.5q23 109 66 208.5t110.5 176t159.5 122.5t213 46q139 0 211 -66.5t92 -164.5q25 41 63 83t88 74.5t112.5 53t138.5 20.5q106 0 175 -40.5t103.5 -114.5t36.5 -176.5t-24 -225.5h-699q-18 -90 -21 -172t18.5 -143t71.5 -98t134 -37q51 0 93 10 t83 34.5t84 65.5t96 105l90 -53q-59 -72 -112 -121t-109.5 -80t-119 -45t-138.5 -14q-129 0 -202.5 58t-104.5 175q-66 -98 -162 -165.5t-237 -67.5q-121 0 -194 46t-106.5 122.5t-33.5 176zM311 532q-47 -217 1 -335.5t208 -118.5q150 0 248 118.5t145 335.5t0 336 t-196 119q-160 0 -259.5 -119t-146.5 -336zM1057 627h575q8 82 2 148.5t-31.5 113.5t-70.5 72.5t-113 25.5q-74 0 -132 -28.5t-102 -78t-76 -115t-52 -138.5z" />
<glyph unicode="&#x178;" d="M360 1479h152l207 -731l547 731h151l-653 -852l-135 -627h-135l135 627zM678 1562l41 193h135l-41 -193h-135zM998 1562l41 193h135l-41 -193h-135z" />
<glyph unicode="&#x2c6;" horiz-adv-x="454" d="M180 1184l293 282h139l174 -282h-135l-125 207l-211 -207h-135z" />
<glyph unicode="&#x2dc;" horiz-adv-x="454" d="M166 1206q10 35 31.5 71t51.5 64.5t65.5 46t74.5 17.5t74 -14.5t67 -30.5q35 -16 67 -30.5t65 -14.5q41 0 70.5 31.5t43.5 68.5h78q-16 -39 -35.5 -74.5t-46.5 -63.5t-62.5 -44t-80.5 -16q-33 0 -68 15t-69 32q-35 16 -68 30.5t-62 14.5q-45 0 -74.5 -32t-43.5 -71h-78z " />
<glyph unicode="&#x2000;" horiz-adv-x="971" />
<glyph unicode="&#x2001;" horiz-adv-x="1943" />
<glyph unicode="&#x2002;" horiz-adv-x="971" />
<glyph unicode="&#x2003;" horiz-adv-x="1943" />
<glyph unicode="&#x2004;" horiz-adv-x="647" />
<glyph unicode="&#x2005;" horiz-adv-x="485" />
<glyph unicode="&#x2006;" horiz-adv-x="323" />
<glyph unicode="&#x2007;" horiz-adv-x="323" />
<glyph unicode="&#x2008;" horiz-adv-x="242" />
<glyph unicode="&#x2009;" horiz-adv-x="388" />
<glyph unicode="&#x200a;" horiz-adv-x="107" />
<glyph unicode="&#x2010;" horiz-adv-x="681" d="M188 477l25 111h510l-25 -111h-510z" />
<glyph unicode="&#x2011;" horiz-adv-x="681" d="M188 477l25 111h510l-25 -111h-510z" />
<glyph unicode="&#x2012;" horiz-adv-x="681" d="M188 477l25 111h510l-25 -111h-510z" />
<glyph unicode="&#x2013;" horiz-adv-x="1024" d="M104 487l21 91h1024l-21 -91h-1024z" />
<glyph unicode="&#x2014;" horiz-adv-x="2048" d="M104 487l21 91h2048l-21 -91h-2048z" />
<glyph unicode="&#x2018;" horiz-adv-x="454" d="M340 1008l39 184l196 307h80l-186 -307h86l-39 -184h-176z" />
<glyph unicode="&#x2019;" horiz-adv-x="454" d="M336 987l184 307h-86l41 185h176l-41 -185l-194 -307h-80z" />
<glyph unicode="&#x201a;" horiz-adv-x="454" d="M55 -307l187 307h-86l39 184h176l-39 -184l-197 -307h-80z" />
<glyph unicode="&#x201c;" horiz-adv-x="909" d="M416 1008l39 184l196 307h80l-186 -307h86l-39 -184h-176zM758 1008l39 184l196 307h80l-186 -307h86l-39 -184h-176z" />
<glyph unicode="&#x201d;" horiz-adv-x="909" d="M373 987l184 307h-86l41 185h176l-41 -185l-194 -307h-80zM715 987l184 307h-86l41 185h176l-41 -185l-194 -307h-80z" />
<glyph unicode="&#x201e;" horiz-adv-x="909" d="M92 -307l187 307h-86l38 184h177l-39 -184l-197 -307h-80zM434 -307l187 307h-86l38 184h177l-39 -184l-197 -307h-80z" />
<glyph unicode="&#x2022;" horiz-adv-x="1024" d="M298 594.5q-13 66.5 3 144.5q16 76 59 143.5t104.5 118t134.5 79t151 28.5q76 0 137 -28.5t101 -79t54.5 -118t-2.5 -143.5q-16 -78 -60 -144.5t-105.5 -117.5t-136 -79.5t-150.5 -28.5q-78 0 -138.5 28.5t-99.5 79.5t-52 117.5z" />
<glyph unicode="&#x2026;" horiz-adv-x="2048" d="M254 0l39 184h176l-39 -184h-176zM936 0l39 184h176l-39 -184h-176zM1618 0l39 184h176l-39 -184h-176z" />
<glyph unicode="&#x202f;" horiz-adv-x="388" />
<glyph unicode="&#x2039;" horiz-adv-x="681" d="M246 537l315 311h135l-321 -311l184 -320h-135z" />
<glyph unicode="&#x203a;" horiz-adv-x="681" d="M213 217l322 311l-185 320h135l179 -320l-316 -311h-135z" />
<glyph unicode="&#x205f;" horiz-adv-x="485" />
<glyph unicode="&#x2122;" horiz-adv-x="2027" d="M410 1389l20 90h655l-20 -90h-272l-162 -754h-103l162 754h-280zM1055 635l182 844h174l127 -672l410 672h174l-183 -844h-102l162 754h-4l-467 -754h-62l-143 754h-4l-162 -754h-102z" />
<glyph unicode="&#xe000;" horiz-adv-x="1064" d="M0 0v1065h1065v-1065h-1065z" />
<glyph unicode="&#xfb01;" horiz-adv-x="1024" d="M197 0l209 967h-177l21 98h176l33 152q29 139 104.5 210.5t212.5 71.5q35 0 65.5 -5t63.5 -11l-22 -103q-27 10 -53.5 15.5t-61.5 5.5q-72 0 -117 -39t-65 -131l-37 -166h217l-21 -98h-217l-209 -967h-122zM735 0l230 1065h122l-229 -1065h-123zM1016 1298l39 181h123 l-39 -181h-123z" />
<glyph unicode="&#xfb02;" horiz-adv-x="1024" d="M197 0l209 967h-177l21 98h176l33 152q29 139 104.5 210.5t212.5 71.5q35 0 65.5 -5t63.5 -11l-22 -103q-27 10 -53.5 15.5t-61.5 5.5q-72 0 -117 -39t-65 -131l-37 -166h217l-21 -98h-217l-209 -967h-122zM735 0l320 1479h123l-320 -1479h-123z" />
</font>
</defs>
</svg>
